<svg width="49" height="29" viewBox="0 0 49 29" fill="none" xmlns="http://www.w3.org/2000/svg">
<g clip-path="url(#clip0_1_468)">
<path d="M24.8022 24.7987C27.3332 27.0916 30.6844 28.485 34.3619 28.485C42.2284 28.485 48.6044 22.109 48.6044 14.2425C48.6044 6.37605 42.2284 0 34.3619 0C30.6844 0 27.3332 1.39337 24.8022 3.68629C21.9273 6.28785 20.1194 10.0535 20.1194 14.2425C20.1194 18.4315 21.9273 22.1883 24.8022 24.7987Z" fill="#858585"/>
<path d="M24.8022 24.7987C21.9273 22.1883 20.1194 18.4315 20.1194 14.2425C20.1194 10.0535 21.9273 6.28783 24.8022 3.68628" fill="#858585"/>
<path d="M24.8022 24.7987C21.9273 22.1883 20.1194 18.4315 20.1194 14.2425C20.1194 10.0535 21.9273 6.28783 24.8022 3.68628" stroke="#858585" stroke-width="0.22206"/>
<path d="M29.4057 12.7345C29.3528 12.223 29.2646 11.7203 29.1588 11.2264H20.4369C20.5515 10.7149 20.6926 10.2123 20.8514 9.71841H28.7443C28.5767 9.1981 28.3739 8.69542 28.1446 8.21036H21.4599C21.7068 7.69006 21.9802 7.18739 22.28 6.70236H27.3244C26.9981 6.17321 26.6277 5.67053 26.2397 5.19432H23.3647C23.8057 4.65636 24.2819 4.15369 24.8022 3.68629C22.2712 1.39337 18.92 0 15.2425 0C7.37608 0 1 6.37605 1 14.2425C1 22.109 7.37608 28.485 15.2425 28.485C18.92 28.485 22.2712 27.0916 24.8022 24.7987C25.3137 24.3313 25.7987 23.8286 26.2397 23.2907H23.3647C22.9679 22.8145 22.6151 22.3118 22.28 21.7827H27.3244C27.6243 21.2976 27.8977 20.795 28.1446 20.2746H21.4599C21.2306 19.7808 21.0277 19.2869 20.8514 18.7666H28.7443C28.9118 18.2727 29.0529 17.7701 29.1588 17.2585C29.2646 16.7647 29.3528 16.262 29.4057 15.7506C29.4586 15.2567 29.4851 14.754 29.4851 14.2425C29.4851 13.731 29.4586 13.2283 29.4057 12.7345Z" fill="white"/>
<path d="M34.2208 10.9707L33.9738 12.5404C33.4183 12.2671 33.0214 12.1524 32.5893 12.1524C31.434 12.1524 30.6226 13.2636 30.6226 14.8598C30.6226 15.9533 31.1694 16.6148 32.069 16.6148C32.4482 16.6148 32.8715 16.5001 33.383 16.2444L33.1096 17.8935C32.5363 18.0523 32.1748 18.1051 31.7426 18.1051C30.0759 18.1051 29.0441 16.9058 29.0441 14.9833C29.0441 12.3993 30.4727 10.6003 32.5187 10.6003C32.7833 10.6003 33.0214 10.6268 33.2154 10.6709L33.8504 10.8296C34.0444 10.9001 34.0885 10.9178 34.2208 10.9707Z" fill="#141414"/>
<path d="M29.2558 12.0466C29.2117 12.0377 29.1588 12.0378 29.1059 12.0378C28.5944 12.0378 28.3122 12.2935 27.8359 12.9902L27.9682 12.0995H26.5748L25.6312 17.9729H27.1745C27.7301 14.3836 27.88 13.7574 28.6208 13.7574C28.6649 13.7574 28.6649 13.7574 28.7266 13.7662C28.8678 13.0607 29.0618 12.5404 29.3175 12.0642L29.2558 12.0466Z" fill="#141414"/>
<path d="M20.3486 17.9023C19.9253 18.0346 19.599 18.0875 19.2462 18.0875C18.4525 18.0875 18.0204 17.6378 18.0204 16.7999C18.0204 16.6324 18.038 16.456 18.0645 16.2708L18.1615 15.6976L18.232 15.239L18.9023 11.2264H20.4368L20.2604 12.0995H21.0541L20.8424 13.5281H20.0487L19.6431 15.9798C19.6254 16.0856 19.6166 16.165 19.6166 16.2179C19.6166 16.5266 19.7754 16.6589 20.1369 16.6589C20.3133 16.6589 20.4544 16.6412 20.5602 16.5971L20.3486 17.9023Z" fill="#141414"/>
<path d="M14.4135 13.9515C14.4135 14.6922 14.775 15.2037 15.5864 15.5918C16.2125 15.8828 16.3095 15.971 16.3095 16.2355C16.3095 16.6059 16.0361 16.7735 15.4276 16.7735C14.9602 16.7735 14.5369 16.7029 14.0431 16.5354L13.8314 17.8935L13.8932 17.9111L14.1842 17.964C14.2724 17.9817 14.4046 17.9993 14.581 18.017C14.9514 18.0522 15.2336 18.0698 15.4364 18.0698C17.0679 18.0698 17.8176 17.4437 17.8176 16.1032C17.8176 15.3007 17.5001 14.8245 16.7328 14.4718C16.0802 14.1719 16.0097 14.1102 16.0097 13.8368C16.0097 13.5193 16.2654 13.3518 16.7593 13.3518C17.0679 13.3518 17.4824 13.387 17.8705 13.44L18.091 12.0818C17.6941 12.0201 17.0856 11.9672 16.7328 11.9672C15.0043 11.9672 14.4046 12.8755 14.4135 13.9515Z" fill="#141414"/>
<path d="M43.7452 16.5883C44.4683 16.5883 44.971 15.777 44.971 14.6129C44.971 13.8633 44.6888 13.4576 44.1508 13.4576C43.4542 13.4576 42.9515 14.2778 42.9515 15.433C42.9515 16.2003 43.216 16.5883 43.7452 16.5883ZM46.0293 17.9729H44.5653L44.6447 17.3996C44.2126 17.8494 43.7804 18.0522 43.2072 18.0522C42.0872 18.0522 41.3464 17.0822 41.3464 15.6094C41.3464 13.6604 42.4929 12.0113 43.8598 12.0113C44.4595 12.0113 44.9181 12.2582 45.3414 12.8138L45.6765 10.7502H47.2022L46.0293 17.9729Z" fill="#141414"/>
<path d="M24.2113 14.3483C24.2201 14.2248 24.2201 14.1278 24.2201 14.0485C24.2201 13.5722 23.9467 13.2989 23.4881 13.2989C22.9943 13.2989 22.6503 13.6693 22.5004 14.3483H24.2113ZM25.0755 17.8494C24.5464 18.0081 24.0349 18.0875 23.4881 18.0875C21.7596 18.0875 20.8601 17.1792 20.8601 15.4507C20.8601 13.44 22.0066 11.9496 23.5675 11.9496C24.8374 11.9496 25.6488 12.7786 25.6488 14.0838C25.6488 14.5159 25.5959 14.9392 25.4636 15.5389H22.3858C22.377 15.6271 22.3681 15.6712 22.3681 15.724C22.3681 16.4031 22.8267 16.7471 23.7262 16.7471C24.2819 16.7471 24.7757 16.6324 25.3313 16.3766L25.0755 17.8494Z" fill="#141414"/>
<path d="M8.54905 17.9729H7.00575L7.88762 12.417L5.91221 17.9729H4.86275L4.73046 12.4523L3.79568 17.9729H2.34937L3.55756 10.7502H5.77992L5.84166 15.2214L7.34966 10.7502H9.74843L8.54905 17.9729Z" fill="#141414"/>
<path d="M13.4875 17.9729H12.2L12.2353 17.3644C11.8384 17.8494 11.3181 18.0787 10.6126 18.0787C9.77476 18.0787 9.20154 17.4172 9.20154 16.4736C9.20154 15.0362 10.1981 14.2072 11.9089 14.2072C12.0853 14.2072 12.3146 14.2248 12.5439 14.2513C12.588 14.0573 12.6056 13.9691 12.6056 13.8721C12.6056 13.4752 12.3322 13.3341 11.6091 13.3341C11.1682 13.3341 10.6743 13.3959 10.3304 13.5017L10.1187 13.5634L9.97761 13.5987L10.1893 12.2759C10.9653 12.0554 11.468 11.9672 12.0412 11.9672C13.3641 11.9672 14.0696 12.5581 14.0696 13.6869C14.0696 13.9779 14.0431 14.1984 13.9461 14.851L13.6198 16.9411L13.5669 17.3114L13.5316 17.6113L13.5052 17.8141L13.4875 17.9729ZM12.3587 15.3536C12.1999 15.336 12.1294 15.336 12.0148 15.336C11.1417 15.336 10.692 15.6359 10.692 16.2267C10.692 16.5883 10.9124 16.8264 11.2475 16.8264C11.8825 16.8264 12.3322 16.2267 12.3587 15.3536Z" fill="#141414"/>
<path d="M37.8454 17.9729H36.5579L36.5931 17.3644C36.1963 17.8494 35.676 18.0787 34.9705 18.0787C34.1327 18.0787 33.5594 17.4172 33.5594 16.4736C33.5594 15.0362 34.556 14.2072 36.2757 14.2072C36.4521 14.2072 36.6725 14.2248 36.9018 14.2513C36.9547 14.0573 36.9635 13.9691 36.9635 13.8721C36.9635 13.4752 36.6902 13.3341 35.9758 13.3341C35.5349 13.3341 35.0322 13.3959 34.6883 13.5017L34.4766 13.5634L34.3355 13.5987L34.5472 12.2759C35.3232 12.0554 35.8259 11.9672 36.3991 11.9672C37.7308 11.9672 38.4275 12.5581 38.4275 13.6869C38.4275 13.9779 38.4098 14.1984 38.304 14.851L37.9777 16.9411L37.9248 17.3114L37.8895 17.6113L37.8631 17.8141L37.8454 17.9729ZM36.7166 15.3536C36.5579 15.336 36.4873 15.336 36.3727 15.336C35.4996 15.336 35.0498 15.6359 35.0498 16.2267C35.0498 16.5883 35.2703 16.8264 35.6054 16.8264C36.2404 16.8264 36.6902 16.2267 36.7166 15.3536Z" fill="#141414"/>
<path d="M41.9902 12.0466C41.9461 12.0377 41.8932 12.0378 41.8315 12.0378C41.3288 12.0378 41.0378 12.2935 40.5615 12.9902L40.7026 12.0995H39.3005L38.3568 17.9729H39.9089C40.4557 14.3836 40.6057 13.7574 41.3464 13.7574C41.3905 13.7574 41.3905 13.7574 41.4523 13.7662C41.5934 13.0607 41.7785 12.5404 42.0431 12.0642L41.9902 12.0466Z" fill="#141414"/>
</g>
<defs>
<clipPath id="clip0_1_468">
<rect width="49" height="29" fill="white"/>
</clipPath>
</defs>
</svg>
