<svg width="72" height="25" viewBox="0 0 72 25" fill="none" xmlns="http://www.w3.org/2000/svg">
<path d="M66.2251 2.31134H61.7617C60.4123 2.31134 59.3742 2.72655 58.7514 4.07596L50.2397 23.4868H56.2602C56.2602 23.4868 57.2982 20.8918 57.5058 20.2689C58.1286 20.2689 64.0453 20.2689 64.8757 20.2689C65.0833 20.9956 65.6023 23.383 65.6023 23.383H71L66.2251 2.31134ZM59.1666 15.9093C59.6857 14.6637 61.4503 9.99263 61.4503 9.99263C61.4503 10.0964 61.9693 8.74701 62.1769 8.02041L62.5921 9.88883C62.5921 9.88883 63.7339 14.9751 63.9415 16.0131H59.1666V15.9093Z" fill="white"/>
<path d="M50.655 16.5322C50.655 20.8918 46.7106 23.7982 40.5863 23.7982C37.9913 23.7982 35.5 23.2792 34.1506 22.6564L34.981 17.8816L35.7077 18.193C37.5761 19.0234 38.8217 19.3348 41.1053 19.3348C42.7661 19.3348 44.5308 18.712 44.5308 17.2588C44.5308 16.3246 43.8041 15.7018 41.5205 14.6637C39.3407 13.6257 36.4343 11.9649 36.4343 8.95468C36.4343 4.80263 40.4825 2 46.1916 2C48.3714 2 50.2398 2.4152 51.3816 2.93421L50.5512 7.50146L50.136 7.08626C49.098 6.67105 47.7486 6.25585 45.7764 6.25585C43.5965 6.35965 42.5585 7.29386 42.5585 8.12427C42.5585 9.05848 43.8041 9.78509 45.7764 10.7193C49.098 12.2763 50.655 14.0409 50.655 16.5322Z" fill="white"/>
<path d="M0 2.51909L0.103801 2.10388H9.0307C10.2763 2.10388 11.2105 2.51909 11.5219 3.8685L13.4942 13.2106C11.5219 8.22815 6.95468 4.17991 0 2.51909Z" fill="#858585"/>
<path d="M26.0541 2.31141L17.0234 23.3831H10.8992L5.70911 5.73685C9.44595 8.12428 12.56 11.8611 13.7018 14.4561L14.3246 16.636L19.9299 2.20761H26.0541V2.31141Z" fill="white"/>
<path d="M28.4415 2.20761H34.1506L30.5175 23.3831H24.8085L28.4415 2.20761Z" fill="white"/>
</svg>
