<svg width="15" height="11" viewBox="0 0 15 11" fill="none" xmlns="http://www.w3.org/2000/svg">
<path d="M6.00684 5.5C6.00684 5.10218 6.16406 4.72064 6.44393 4.43934C6.7238 4.15804 7.10338 4 7.49918 4C7.89497 4 8.27455 4.15804 8.55442 4.43934C8.83429 4.72064 8.99151 5.10218 8.99151 5.5C8.99151 5.89782 8.83429 6.27936 8.55442 6.56066C8.27455 6.84196 7.89497 7 7.49918 7C7.10338 7 6.7238 6.84196 6.44393 6.56066C6.16406 6.27936 6.00684 5.89782 6.00684 5.5Z" fill="#004989"/>
<path fill-rule="evenodd" clip-rule="evenodd" d="M14.4638 5.5L14.9254 5.314V5.312L14.9234 5.308L14.9174 5.294C14.887 5.21881 14.8538 5.14476 14.8179 5.072C14.3986 4.19863 13.8594 3.38873 13.2162 2.666C12.0382 1.348 10.1728 0 7.4995 0C4.82722 0 2.9618 1.348 1.78185 2.666C1.13861 3.38876 0.599429 4.19865 0.180076 5.072C0.145772 5.14533 0.112934 5.21935 0.0815812 5.294L0.0766068 5.308L0.0746169 5.312V5.313C0.0746169 5.313 0.0736221 5.314 0.535252 5.5L0.0736221 5.314L0 5.5L0.0736221 5.686L0.535252 5.5L0.0736221 5.686V5.688L0.0766068 5.692L0.0815812 5.706C0.112173 5.78114 0.145356 5.85518 0.181071 5.928C0.600436 6.80134 1.13962 7.61123 1.78285 8.334C2.9608 9.652 4.82623 11 7.4995 11C10.1718 11 12.0372 9.652 13.2172 8.335C13.8605 7.61197 14.3997 6.80172 14.8189 5.928C14.8532 5.85465 14.886 5.78064 14.9174 5.706L14.9234 5.692L14.9244 5.688V5.687C14.9254 5.687 14.9254 5.686 14.4638 5.5L14.9254 5.686L15 5.5L14.9254 5.314L14.4638 5.5ZM7.4995 3C6.83985 3 6.20721 3.26339 5.74076 3.73223C5.27432 4.20107 5.01227 4.83696 5.01227 5.5C5.01227 6.16304 5.27432 6.79893 5.74076 7.26777C6.20721 7.73661 6.83985 8 7.4995 8C8.15916 8 8.79179 7.73661 9.25824 7.26777C9.72469 6.79893 9.98674 6.16304 9.98674 5.5C9.98674 4.83696 9.72469 4.20107 9.25824 3.73223C8.79179 3.26339 8.15916 3 7.4995 3Z" fill="#004989"/>
</svg>
