<svg width="20" height="20" viewBox="0 0 20 20" fill="none" xmlns="http://www.w3.org/2000/svg">
<path fill-rule="evenodd" clip-rule="evenodd" d="M6.66927 1.5C7.22156 1.5 7.66927 1.94772 7.66927 2.5V3.16667H12.3359V2.5C12.3359 1.94772 12.7837 1.5 13.3359 1.5C13.8882 1.5 14.3359 1.94772 14.3359 2.5V3.16667H15.0026C16.4754 3.16667 17.6693 4.36057 17.6693 5.83333V9.16667V15.8333C17.6693 17.3061 16.4754 18.5 15.0026 18.5H5.0026C3.52984 18.5 2.33594 17.3061 2.33594 15.8333V9.16667V5.83333C2.33594 4.36057 3.52984 3.16667 5.0026 3.16667H5.66927V2.5C5.66927 1.94772 6.11699 1.5 6.66927 1.5ZM5.66927 5.16667H5.0026C4.63441 5.16667 4.33594 5.46514 4.33594 5.83333V8.16667H15.6693V5.83333C15.6693 5.46514 15.3708 5.16667 15.0026 5.16667H14.3359V5.83333C14.3359 6.38562 13.8882 6.83333 13.3359 6.83333C12.7837 6.83333 12.3359 6.38562 12.3359 5.83333V5.16667H7.66927V5.83333C7.66927 6.38562 7.22156 6.83333 6.66927 6.83333C6.11699 6.83333 5.66927 6.38562 5.66927 5.83333V5.16667ZM15.6693 10.1667H4.33594V15.8333C4.33594 16.2015 4.63441 16.5 5.0026 16.5H15.0026C15.3708 16.5 15.6693 16.2015 15.6693 15.8333V10.1667ZM7.33594 13.3333C7.33594 12.781 7.78365 12.3333 8.33594 12.3333H11.6693C12.2216 12.3333 12.6693 12.781 12.6693 13.3333C12.6693 13.8856 12.2216 14.3333 11.6693 14.3333H8.33594C7.78365 14.3333 7.33594 13.8856 7.33594 13.3333Z" fill="#354052"/>
</svg>
