<svg width="120" height="120" viewBox="0 0 120 120" fill="none" xmlns="http://www.w3.org/2000/svg">
<rect width="120" height="120" rx="16" fill="none"/>
<path d="M103.625 60.4261C103.61 51.0926 100.639 42.0003 95.1339 34.4354C89.6287 26.8705 81.8675 21.2161 72.9483 18.2719C64.0292 15.3278 54.4035 15.243 45.4332 18.0297C36.4629 20.8163 28.602 26.3332 22.9625 33.8C17.3231 41.2668 14.1907 50.3053 14.0084 59.637C13.8262 68.9687 16.6033 78.1211 21.9469 85.7994C27.2905 93.4777 34.93 99.2932 43.7848 102.423C52.6396 105.553 62.2613 105.839 71.2887 103.241L76.2298 101.813L66.3338 88.9487L64.2054 89.3429C57.3424 90.6342 50.2407 89.4799 44.1504 86.0833C38.06 82.6867 33.3715 77.2655 30.9102 70.774C28.4489 64.2825 28.3725 57.1369 30.6945 50.595C33.0166 44.0531 37.5881 38.5343 43.6045 35.0101C49.6208 31.4859 56.6963 30.1822 63.5854 31.3285C70.4744 32.4749 76.7354 35.9977 81.2663 41.2769C85.7971 46.5562 88.3073 53.2534 88.355 60.1896C88.4026 67.1258 85.9847 73.8564 81.5269 79.1965H64.9582L85.2156 104.559H85.2978L85.6331 104.974H106L93.2023 88.9487C99.9297 80.9372 103.616 70.837 103.618 60.4057" fill="#004989"/>
</svg>
