<svg width="18" height="18" viewBox="0 0 18 18" fill="none" xmlns="http://www.w3.org/2000/svg">
<path d="M1.45597 0.100422L0.0993155 1.45708C-0.0212764 1.57767 -0.0212768 1.69827 0.099315 1.81886L7.19916 8.9187L0.461617 15.6562C0.341026 15.7768 0.341026 15.8974 0.461618 16.018L1.81828 17.3747C1.93887 17.4953 2.05946 17.4953 2.18005 17.3747L8.91759 10.6371L16.0174 17.737C16.138 17.8576 16.2586 17.8576 16.3792 17.737L17.7359 16.3803C17.8565 16.2597 17.8565 16.1391 17.7359 16.0185L10.636 8.9187L17.3746 2.1801C17.4952 2.05951 17.4952 1.93892 17.3746 1.81832L16.018 0.461665C15.8974 0.341074 15.7768 0.341072 15.6562 0.461665L8.91759 7.20026L1.81775 0.100422C1.69716 -0.0201698 1.57657 -0.0201701 1.45597 0.100422Z" fill="#2A2B2B" fill-opacity="0.85"/>
</svg>
