<svg width="102" height="53" viewBox="0 0 102 53" fill="none" xmlns="http://www.w3.org/2000/svg">
<g clip-path="url(#clip0_37_235)">
<path d="M7.30995 0H17.9426L17.0566 0.499169C18.5924 0.983656 19.6114 1.68837 20.1283 2.59861C20.6599 3.49418 20.8371 4.58061 20.6304 5.88726C20.5565 6.34238 20.4384 7.00305 20.2907 7.86925C20.1578 8.70609 20.0544 9.32271 19.9806 9.70443L12.7149 9.74848L13.409 5.66704L9.71708 5.71108L9.0673 9.71911C9.49556 9.71911 10.2635 9.85125 11.371 10.1008C12.4786 10.3504 13.6453 10.7028 14.9005 11.1285C16.1558 11.5543 17.2043 12.1269 18.046 12.8022C18.9173 13.4922 19.2865 14.2116 19.1536 14.9751L18.1494 19.9374C17.7359 21.7726 16.2591 23.1379 13.6896 24.0188L11.7698 23.1379L13.7339 24.7382H3.10118L3.94293 24.2391C0.974639 23.3729 -0.33968 21.9341 0.0295111 19.9227C0.0590464 19.8933 0.177187 19.3208 0.369167 18.205C0.575913 17.0598 0.753125 16.0175 0.900801 15.0778H8.16647L7.5167 18.7482H11.2086L11.8584 15.0778C11.9322 14.6961 11.6812 14.3438 11.0905 14.0061C10.4998 13.6537 9.73184 13.3748 8.78671 13.1693C7.87112 12.9343 6.89646 12.7729 5.86272 12.6701C4.85853 12.5379 3.92816 12.5233 3.05687 12.626C2.18559 12.6994 1.58011 12.8756 1.25522 13.1546C1.97884 8.92632 2.37756 6.50388 2.48094 5.85789C2.71722 4.63934 3.14548 3.62632 3.78049 2.8482C4.44503 2.0554 5.43446 1.40942 6.73401 0.895568L11.2677 3.22992L7.30995 0Z" fill="#F39422"/>
<path d="M33.0052 0L33.8617 0.528532L32.3111 9.35208L28.3977 9.39612L29.9335 0.528532L30.8196 0H22.0181L25.9758 3.2446L22.4463 1.40942L18.7544 24.1656L17.7207 24.7382H26.9357L25.9758 24.1656L27.4821 15.2393L35.1613 15.0778L31.2774 16.0321L29.9335 24.1656L28.8998 24.7382H37.5832L35.6191 23.1379L36.9629 23.7839L40.8468 0.528532L41.8067 0H33.0052Z" fill="#F39422"/>
<path d="M44.1847 5.5349L48.1719 6.4892L46.1045 18.7482H49.7964L51.982 5.65235L44.1847 5.5349ZM56.5156 0L55.6296 0.499169C57.1654 0.983656 58.1844 1.68837 58.7013 2.59861C59.2329 3.49418 59.4101 4.58061 59.2034 5.88726C58.081 12.9637 57.254 17.6471 56.7519 19.9374C56.3384 21.7726 54.8764 23.1379 52.3364 24.0188L50.4166 23.1379L52.3807 24.7382H41.7037L42.5455 24.2391C39.5772 23.3729 38.2629 21.9341 38.6321 19.9227C38.7354 19.4676 39.0751 17.4856 39.6658 14.0061C40.2565 10.5119 40.7291 7.81053 41.0835 5.87258C41.3198 4.65402 41.748 3.641 42.383 2.86288C43.018 2.07008 43.9927 1.4241 45.307 0.910249L49.7964 3.2446L45.8387 0H56.5156Z" fill="#F39422"/>
<path d="M60.5617 0.0439453L64.5194 3.2445L61.0638 1.45336L60.1777 6.56251L61.2558 5.79907H66.4835L70.4708 5.6963L66.4835 6.65059L63.53 24.1656L62.5701 24.7381H71.283L69.3189 23.1379L70.7071 23.7838L73.8526 5.79907H79.3166L80.114 6.56251L81.1182 0.572477L82.0781 0.0439453H60.5617Z" fill="#F39422"/>
<path d="M28.9592 28.291L32.9169 31.5063L29.4465 29.7004L28.5752 34.8243L29.6385 34.0608H34.8662L38.8682 33.9434L34.8662 34.8977L31.9127 52.4273L30.9528 52.9999H39.6657L37.7164 51.3996L39.0897 52.0456L42.25 34.0608H47.6993L48.4967 34.8243L49.5009 28.8342L50.4608 28.291H28.9592Z" fill="#F39422"/>
<path d="M50.6087 33.18L47.4189 52.4274L46.459 52.9999H55.1719L53.2078 51.3997L54.5959 52.0457L57.7562 33.18H50.6087ZM50.8007 28.2617L54.7584 31.5063L51.1846 29.6418L50.7268 32.4312H57.9039L58.4798 28.8049L59.3954 28.2764H50.8007V28.2617Z" fill="#F39422"/>
<path d="M76.9243 28.2617L80.882 31.5063L77.072 29.5096L74.842 31.3155L71.2683 37.834L69.9983 31.3155L67.9751 29.2894L68.0489 28.7903L69.0088 28.2617H60.4436L64.4309 31.5063L60.8571 29.6271L57.1061 52.3833L56.0576 52.9999H64.4752L62.5554 51.3997L64.1355 52.1191L65.8633 43.1781L67.0152 52.4274L66.0553 52.9999H71.8442L71.0025 52.4274L74.8863 43.2662L73.6163 52.4274L72.7007 52.9999H81.2955L79.3314 51.3997L80.69 52.0016L84.6034 28.8343L85.5633 28.2617H76.9243Z" fill="#F39422"/>
<path d="M85.7851 28.2911L89.7133 31.5063L86.169 29.6711L82.4919 51.6933L84.4412 50.9299L81.6797 52.9999H98.0422L97.1266 52.4274L98.8101 49.3002L98.1161 46.3933L97.038 47.1567H90.4074L90.8652 44.2498L87.8969 43.457H96.3587L97.1266 44.2204L98.9578 40.6969L98.1604 38.1864L99.076 37.6432H91.9727L92.6225 34.0168L99.1203 34.0609L100.11 34.6335L101.852 31.198L101.084 28.7903L102 28.2617L85.7851 28.2911Z" fill="#F39422"/>
</g>
<defs>
<clipPath id="clip0_37_235">
<rect width="102" height="53" fill="white"/>
</clipPath>
</defs>
</svg>
