<svg width="120" height="16" viewBox="0 0 120 16" fill="none" xmlns="http://www.w3.org/2000/svg">
<path fill-rule="evenodd" clip-rule="evenodd" d="M3.4569 0.315931C0.856196 0.941722 -0.543375 3.2791 0.197499 5.75894C1.05177 8.61829 2.5848 9.25942 8.57549 9.26197C12.2987 9.26389 12.6551 9.31596 13.0793 9.92354C13.5664 10.6212 13.4565 11.6719 12.8551 12.0641C12.6573 12.1932 10.0588 12.3705 7.08068 12.4583L1.66587 12.6181L1.56808 13.9757L1.46998 15.3333L7.14216 15.3327C11.9126 15.3324 12.9876 15.2436 13.9062 14.7737C15.5307 13.9431 16.2668 12.7468 16.2942 10.8931C16.3231 8.94285 15.5721 7.797 13.6039 6.78819C12.3528 6.14707 11.7336 6.06944 7.87316 6.06944C3.31325 6.06944 2.78068 5.91643 2.78068 4.60703C2.78068 3.3794 3.41708 3.21553 8.53631 3.12321L13.4511 3.03472V1.59722V0.159722L8.9918 0.108292C6.5392 0.0801805 4.04839 0.173458 3.4569 0.315931ZM17.114 1.59722V3.19444H19.9807H22.8474V9.26389V15.3333H24.5992H26.3511V9.33289V3.33244L24.669 1.66622L22.9865 0H20.0504H17.114V1.59722ZM26.6696 1.59722V3.19444H27.964C29.0282 3.19444 29.5385 2.95263 30.8307 1.83681C31.6952 1.08994 32.4026 0.371194 32.4029 0.239583C32.4029 0.107972 31.1129 0 29.5362 0H26.6696V1.59722ZM34.6966 7.42708C32.7297 11.5121 31.1221 14.9618 31.1244 15.0938C31.1269 15.2257 31.9191 15.3333 32.8848 15.3333H34.6408L35.3371 13.8958L36.0337 12.4583H40.2751H44.5168L45.0538 13.5876C45.5408 14.6117 45.6813 14.6973 46.5617 14.5053C48.0941 14.1712 49.0267 13.7559 48.912 13.4585C48.8541 13.3077 47.379 10.2181 45.6342 6.59238L42.4617 0H40.3675H38.2732L34.6966 7.42708ZM51.8325 6.55468V13.1094L52.7085 12.8918C53.1901 12.772 53.9427 12.5794 54.3807 12.4638L55.177 12.2533L55.2636 6.12663L55.3499 0H53.5914H51.8325V6.55468ZM61.3789 2.26678C61.0087 3.51325 60.7698 4.59744 60.8482 4.67603C60.9737 4.80189 63.7397 1.44325 64.3697 0.399306C64.5468 0.106056 64.2713 0 63.3314 0H62.0522L61.3789 2.26678ZM68.3955 7.66667V15.3333H70.1474H71.8992V7.66667V0H70.1474H68.3955V7.66667ZM77.7803 1.99653C76.7334 3.09478 75.1962 4.71724 74.3649 5.6021L72.8532 7.21114L76.2234 11.2722L79.5937 15.3333H81.8172C83.5108 15.3333 83.9838 15.2381 83.8019 14.934C83.6707 14.7146 82.3476 13.0972 80.8614 11.3403C79.3755 9.58333 77.952 7.89986 77.6985 7.59926C77.2095 7.01915 77.0159 7.26832 82.5466 1.35764L83.8169 0H81.7507H79.6844L77.7803 1.99653ZM86.8696 7.66667V15.3333H93.7177H100.566V13.8958V12.4583H95.4696H90.3733V11.0307V9.60314L94.2452 9.51337L98.1171 9.42361L98.6914 8.06597L99.2657 6.70833H94.8195H90.3733V4.95139V3.19444H95.1511H99.9288V1.59722V0H93.3992H86.8696V7.66667ZM103.671 0.184319C103.54 0.317208 103.433 3.77999 103.433 7.87974V15.3333H105.344H107.255V9.26389V3.19444H110.687C115.209 3.19444 116.443 3.98954 115.04 5.99821C114.6 6.62943 114.267 6.70833 112.049 6.70833H109.554L109.041 7.9925C108.318 9.80567 108.363 9.90278 109.933 9.90278C111.327 9.90278 111.355 9.92514 113.344 12.6181L115.349 15.3333H117.552C119.27 15.3333 119.686 15.2455 119.439 14.934C119.266 14.7146 118.251 13.3905 117.185 11.9923L115.247 9.44949L116.108 9.07446C119.887 7.429 120.014 2.65043 116.328 0.799889C115.236 0.251403 114.278 0.146944 109.484 0.0523887C106.419 -0.00798625 103.803 0.0514304 103.671 0.184319ZM41.8097 6.2691C42.5923 7.96024 43.2325 9.39774 43.2325 9.46354C43.2325 9.52935 41.9425 9.58333 40.3659 9.58333C38.7526 9.58333 37.4992 9.44981 37.4992 9.27762C37.4992 8.8994 40.0907 3.19444 40.2624 3.19444C40.3308 3.19444 41.0271 4.57796 41.8097 6.2691ZM62.9807 6.22917L62.1844 6.68565L63.369 6.69715C64.2933 6.70578 64.5131 6.60324 64.3701 6.22917C64.1468 5.64618 63.9977 5.64618 62.9807 6.22917ZM53.8714 13.7361L51.687 15.3333H58.13H64.5733V13.7361V12.1389H60.3147H56.0561L53.8714 13.7361Z" fill="black"/>
</svg>
