<svg width="22" height="22" viewBox="0 0 22 22" fill="none" xmlns="http://www.w3.org/2000/svg">
<path d="M14.0574 0.0398782C16.8844 0.358295 19.3027 1.89874 20.7484 4.29548C21.3423 5.28085 21.708 6.28774 21.9231 7.50117C22.035 8.15091 22.0221 9.65263 21.9016 10.3196C21.3853 13.1466 19.7157 15.4272 17.2243 16.718C15.8904 17.4065 14.6813 17.6991 13.1581 17.6948C11.3035 17.6948 9.78026 17.2344 8.2312 16.2103L7.71915 15.8704L4.72431 18.8523C2.70623 20.8661 1.67783 21.8644 1.56165 21.9203C1.32929 22.0279 0.84306 22.0279 0.636518 21.9203C0.120167 21.6492 -0.116495 21.0898 0.0556222 20.5563C0.128773 20.3368 0.287981 20.1647 3.14083 17.3075L6.14858 14.2912L5.81726 13.8007C4.22087 11.4427 3.86803 8.49084 4.862 5.75847C5.18472 4.86346 5.80435 3.82216 6.4756 3.04332C7.59437 1.75244 9.17785 0.749862 10.8001 0.315265C11.7897 0.0484839 13.1322 -0.0676964 14.0574 0.0398782ZM12.5212 2.23437C10.8861 2.41079 9.60814 3.01751 8.46356 4.16209C7.29747 5.32818 6.67784 6.65349 6.52294 8.30581C6.38524 9.78172 6.78111 11.2877 7.65461 12.6001C8.01606 13.1466 8.86804 13.9986 9.41451 14.36C11.6176 15.8273 14.3328 15.9048 16.5746 14.5623C18.1925 13.5984 19.3328 11.9719 19.7071 10.0915C19.8448 9.40306 19.8448 8.31012 19.7071 7.62165C19.3199 5.68102 18.128 4.0287 16.4068 3.05193C15.2579 2.39789 13.8078 2.09238 12.5212 2.23437Z" fill="#2A2B2B"/>
</svg>
