<?xml version="1.0" encoding="UTF-8"?><!DOCTYPE svg PUBLIC "-//W3C//DTD SVG 1.1//EN" "http://www.w3.org/Graphics/SVG/1.1/DTD/svg11.dtd"><svg xmlns="http://www.w3.org/2000/svg" xmlns:xlink="http://www.w3.org/1999/xlink"><defs>
        <clipPath id="a">
            <path transform="translate(.52 .899)" d="M0 0h17.835v17.835H0z"/>
        </clipPath>
    
        <clipPath id="a">
            <path transform="translate(.691)" d="M0 0h186.354v66.519H0z"/>
        </clipPath>
    
        <clipPath id="a">
            <path transform="translate(.834 .809)" d="M0 0h18.915v18.915H0z"/>
        </clipPath>
    
        <clipPath id="a">
            <path transform="translate(.375 .908)" d="M0 0h19.816v18.015H0z"/>
        </clipPath>
    
        <clipPath id="a">
            <path transform="translate(.917 .899)" d="M0 0h19.816v19.816H0z"/>
        </clipPath>
    
        <clipPath id="a">
            <path transform="translate(.83 .8)" d="M0 0h70.17v49.726H0z"/>
        </clipPath>
    </defs><symbol id="icon-arrow-next" viewBox="0 0 14 12">
    <path d="M13.53 5.47a.75.75 0 0 1 0 1.06l-4.773 4.773a.75.75 0 1 1-1.06-1.06L11.939 6 7.697 1.757a.75.75 0 0 1 1.06-1.06L13.53 5.47zM0 5.25h13v1.5H0v-1.5z"/>
</symbol><symbol id="icon-arrow-prev" viewBox="0 0 14 12">
    <path d="M.47 5.47a.75.75 0 0 0 0 1.06l4.773 4.773a.75.75 0 1 0 1.06-1.06L2.061 6l4.242-4.243a.75.75 0 0 0-1.06-1.06L.47 5.47zM14 5.25H1v1.5h13v-1.5z"/>
</symbol><symbol id="icon-arrow-right" viewBox="0 0 21 6">
    <path d="M21 3L16 .113v5.774L21 3zM0 3.5h16.5v-1H0v1z"/>
</symbol><symbol id="icon-bibacord" viewBox="0 0 136 59">
    <path d="M17.288 25.575a5.87 5.87 0 0 0-4.025 1.789h-.091l.128-2.385v-4.973h-3.106v19.366h2.436l.274-1.479h.091a5.701 5.701 0 0 0 3.861 1.79c3.045 0 5.859-2.672 5.859-7.299 0-4.12-1.986-6.809-5.427-6.809zm-1.077 11.502a4.358 4.358 0 0 1-2.911-1.193v-6.076c1.071-1.126 2.137-1.61 3.142-1.61 2.144 0 3.075 1.575 3.075 4.258 0 3.052-1.455 4.62-3.306 4.62z" fill-opacity=".5"/>
    <path d="M32.172 19.19a2.147 2.147 0 0 0-1.524.535 2.057 2.057 0 0 0-.693 1.432v.173c.03.557.277 1.081.69 1.465.413.384.96.598 1.53.598.569 0 1.117-.214 1.53-.598.413-.384.66-.908.69-1.465a2.05 2.05 0 0 0-.572-1.484 2.14 2.14 0 0 0-1.475-.656h-.176z" fill-opacity=".5"/>
    <path d="M25.083 28.414h5.73v10.959h3.125v-13.47h-8.855v2.51z" fill-opacity=".5"/>
    <path d="M47 25.575a5.87 5.87 0 0 0-4.025 1.789h-.091l.127-2.385v-4.973h-3.123v19.366h2.435l.274-1.479h.092a5.701 5.701 0 0 0 3.86 1.79c3.046 0 5.86-2.672 5.86-7.299.023-4.12-1.968-6.809-5.409-6.809zM45.93 37.077a4.377 4.377 0 0 1-2.918-1.193v-6.076c1.078-1.126 2.144-1.61 3.143-1.61 2.143 0 3.045 1.575 3.045 4.258.024 3.052-1.42 4.62-3.27 4.62z" fill-opacity=".5"/>
    <path d="M61.013 25.576c-2.166.07-4.272.72-6.09 1.878l1.164 2.099a9.203 9.203 0 0 1 4.33-1.431c2.167 0 3.044 1.132 3.16 2.64-6.552.472-9.171 1.974-9.171 4.997 0 2.332 1.827 3.947 4.445 3.947 1.779 0 3.563-.912 4.951-2.003h.092l.237 1.67h2.57v-7.966c.019-3.756-2.003-5.831-5.688-5.831zm2.582 10.005c-1.218.995-2.435 1.633-3.794 1.633-1.358 0-2.344-.513-2.344-1.7 0-1.454 1.37-2.45 6.138-2.766v2.833z" fill-opacity=".5"/>
    <path d="M76.956 37.118c-2.588 0-4.397-1.788-4.397-4.465 0-2.677 1.827-4.49 4.495-4.49a5.15 5.15 0 0 1 3.276 1.294l1.474-1.986a6.886 6.886 0 0 0-2.258-1.426 6.998 6.998 0 0 0-2.645-.47c-4.05 0-7.539 2.582-7.539 7.078 0 4.495 3.16 7.053 7.308 7.053a8.16 8.16 0 0 0 5.383-2.045l-1.309-2.027a6.032 6.032 0 0 1-3.788 1.484z" fill-opacity=".5"/>
    <path d="M90.342 25.576c-3.495 0-6.662 2.581-6.662 7.077s3.166 7.053 6.662 7.053 6.662-2.581 6.662-7.053c0-4.472-3.16-7.077-6.662-7.077zm0 11.543c-2.162 0-3.459-1.789-3.459-4.466 0-2.677 1.297-4.49 3.46-4.49 2.161 0 3.464 1.789 3.464 4.49 0 2.7-1.297 4.466-3.465 4.466z" fill-opacity=".5"/>
    <path d="M111.754 26.124a5.5 5.5 0 0 0-2.582-.548c-2.284 0-4.3 1.192-5.646 3.392h-.073l-.268-3.065h-2.576v13.47h3.124v-7.424c1.358-2.617 3.143-3.577 4.958-3.577h.609v2.558h2.435v-4.68h-.042l.061-.126z" fill-opacity=".5"/>
    <path d="M122.812 20.006v4.842l.153 2.271h-.055a4.954 4.954 0 0 0-1.657-1.167 5.034 5.034 0 0 0-1.997-.413c-3.008 0-5.834 2.683-5.834 7.078 0 4.394 2.253 7.053 5.663 7.053a5.892 5.892 0 0 0 4.001-1.908h.086l.243 1.574h2.54v-19.33h-3.143zm0 15.46a3.729 3.729 0 0 1-1.3 1.158 3.82 3.82 0 0 1-1.696.453c-2.009 0-3.221-1.539-3.221-4.46 0-2.814 1.54-4.418 3.392-4.418.528.004 1.05.111 1.536.316.485.205.924.503 1.289.876v6.076z" fill-opacity=".5"/>
</symbol><symbol id="icon-cadesign" viewBox="0 0 10 19">
    <title>
        facebook
    </title>
    <path d="M9.766.157v2.946H8.014c-.64 0-1.071.134-1.295.402-.223.268-.335.67-.335 1.205v2.11h3.27l-.435 3.303H6.384v8.471H2.97v-8.47H.123V6.82H2.97V4.387c0-1.384.387-2.457 1.161-3.22C4.904.404 5.934.023 7.222.023c1.093 0 1.941.045 2.544.134z" fill-rule="evenodd"/>
</symbol><symbol id="icon-camera" viewBox="0 0 40 33">
    <path d="M0 9.446c.143-.445.245-.911.449-1.336.846-1.72 2.213-2.672 4.12-2.703 2.01-.042 4.008-.031 6.017 0 .439.01.582-.124.684-.55.54-2.371 1.968-3.945 4.283-4.619.52-.155 1.071-.207 1.612-.217C19.052 0 20.938 0 22.825.01c2.937.01 5.293 1.936 5.915 4.868.092.414.235.538.653.528 2.01-.02 4.008-.02 6.017 0C37.98 5.438 40 7.51 40 10.109v17.93C40 30.773 37.858 33 35.156 33c-10.108.01-20.204.01-30.312 0C2.478 33 .49 31.26.071 28.898c-.01-.062-.05-.113-.071-.176V9.446zM20 30.95h14.921c1.846 0 3.05-1.232 3.05-3.107v-5.593-12.015c0-.933-.337-1.699-1.071-2.269-.52-.404-1.112-.528-1.755-.528-2.274.01-4.559.01-6.833 0-.775 0-1.112-.28-1.285-1.036-.082-.342-.153-.694-.235-1.036-.448-1.968-1.937-3.273-3.855-3.293-1.968-.021-3.937-.042-5.895.01-1.55.031-2.753.767-3.437 2.196-.296.632-.438 1.346-.612 2.03-.234.901-.5 1.14-1.407 1.14h-6.68c-.286 0-.582 0-.847.072-1.305.331-2.04 1.336-2.04 2.765v17.567c0 .26.01.529.062.788.316 1.418 1.438 2.31 2.916 2.31H20z" fill-opacity=".2"/>
    <path d="M19.98 27.77c-4.62-.011-8.404-3.812-8.394-8.515.01-4.899 3.926-8.566 8.445-8.545 4.467.02 8.342 3.646 8.373 8.535.03 4.713-3.784 8.535-8.424 8.524zm0-2.052c3.518.01 6.364-2.858 6.415-6.442.04-3.532-2.846-6.494-6.354-6.505-3.529-.02-6.415 2.88-6.436 6.463-.02 3.543 2.856 6.474 6.375 6.484z" fill-opacity=".2"/>
    <path d="M6.782 13.113a1.36 1.36 0 0 1-1.366-1.336c-.02-.736.58-1.378 1.315-1.388.755-.01 1.377.6 1.387 1.346 0 .756-.591 1.367-1.336 1.378z" fill-opacity=".2"/>
</symbol><symbol id="icon-chevron-down" viewBox="0 0 8 5">
    <path d="M1.61 1.4l2.055 2.055a.5.5 0 0 0 .705 0l2-2"/>
</symbol><symbol id="icon-chevron-right" viewBox="0 0 5 9">
    <path d="M1 8l2.802-3.022A.766.766 0 0 0 4 4.46a.766.766 0 0 0-.198-.519L1.075 1"/>
</symbol><symbol id="icon-close" viewBox="0 0 11 11">
    <path d="M1.16.293l-.867.867c-.077.077-.08.151-.008.223l4.204 4.203L.185 9.89c-.077.077-.08.15-.008.222l.803.804c.071.071.146.068.223-.009l4.303-4.303 4.204 4.204c.071.071.145.068.222-.009l.867-.866c.077-.077.08-.152.008-.223L6.604 5.506l4.304-4.304c.077-.077.08-.151.008-.222l-.803-.804C10.04.105 9.967.108 9.89.185L5.586 4.489 1.382.285C1.311.214 1.237.216 1.16.293z" fill-opacity=".85"/>
</symbol><symbol id="icon-fb" viewBox="0 0 19 19">
    <g clip-path="url(#a)">
        <path d="M12.408 3.86h1.628V1.025a21.024 21.024 0 0 0-2.372-.126c-2.347 0-3.956 1.476-3.956 4.19v2.498h-2.59v3.17h2.59v7.976h3.176v-7.975h2.486l.395-3.17h-2.881V5.404c0-.917.247-1.544 1.524-1.544z"/>
    </g>
    
</symbol><symbol id="icon-grimm-audio" viewBox="0 0 188 67">
    <g clip-path="url(#a)" fill-opacity=".5">
        <path d="M24.18 31.118h-2.763v1.362l2.795.285c.032 1.73.058 3.44.058 5.176v1.102a6.484 6.484 0 0 1-2.116.336c-3.81 0-6.425-2.94-6.425-8.603 0-5.664 2.802-8.584 6.354-8.584a5.865 5.865 0 0 1 2.699.633l.685 3.554h1.993l-.11-4.39a11.384 11.384 0 0 0-5.642-1.368c-6.173 0-10.017 4.143-10.017 10.136 0 6.113 3.967 10.174 9.79 10.174 2.255.018 4.471-.572 6.406-1.704V37.96c0-1.812 0-3.573.059-5.328l1.61-.184v-1.387H24.18v.057z"/>
        <path d="M40.291 26.107c-1.514 0-3.157 1.343-4.005 3.846l-.297-3.542-.46-.304-4.801 1.85v1.084l2.025.26c.058 1.165.084 1.9.084 3.509v1.571c0 1.267 0 3.117-.039 4.561l-1.837.355v1.191h7.706v-1.19l-2.336-.463c0-1.432-.038-3.231-.038-4.435v-2.053a7.247 7.247 0 0 1 2.18-3.674l.26.285c.22.306.51.558.847.737.337.18.71.28 1.093.296 1.146 0 1.825-.811 1.85-2.256a2.21 2.21 0 0 0-.829-1.19 2.291 2.291 0 0 0-1.403-.438z"/>
        <path d="M47.196 23.396a2.124 2.124 0 0 0 1.494-.633c.194-.197.346-.429.449-.683a2.039 2.039 0 0 0-.028-1.596 2.079 2.079 0 0 0-.474-.669 2.163 2.163 0 0 0-1.519-.582c-.562.003-1.1.222-1.496.612-.397.39-.62.917-.62 1.467a2.036 2.036 0 0 0 .59 1.463c.388.392.918.617 1.474.627l.13-.006z"/>
        <path d="M48.943 34.381v-3.858l.084-4.086-.46-.304-5.176 1.85v1.083l2.045.247c.058 1.166.09 2.071.09 3.674v1.394c0 1.267 0 3.104-.045 4.549l-1.877.38v1.19h7.118v-1.203l-1.734-.361a226.484 226.484 0 0 1-.045-4.555z"/>
        <path d="M74.936 34.38v-3.167c0-3.541-1.294-5.119-3.883-5.119-1.74 0-3.37.754-4.937 2.661a3.286 3.286 0 0 0-1.269-2 3.415 3.415 0 0 0-2.309-.66c-1.753 0-3.384.956-4.775 2.572l-.214-2.269-.46-.303-4.8 1.85v1.083l2.025.26c.065 1.165.084 1.9.084 3.522v1.57c0 1.268 0 3.111-.039 4.556l-1.85.361v1.191h7.085v-1.191l-1.695-.355c0-1.45-.046-3.307-.046-4.574v-4.371a4.842 4.842 0 0 1 3.126-1.47c1.488 0 2.031.811 2.031 3.168v2.667c0 1.299 0 3.123-.045 4.555l-1.786.38v1.191h6.982v-1.191l-1.695-.361c0-1.432-.046-3.263-.046-4.568v-3.047c.001-.423-.02-.846-.064-1.267a4.791 4.791 0 0 1 3.17-1.476c1.43 0 2.032.678 2.032 3.167v2.623c0 1.299 0 3.123-.045 4.555l-1.767.374v1.191h7.002v-1.191l-1.735-.367a124.738 124.738 0 0 1-.077-4.55z"/>
        <path d="M100.928 38.917c0-1.432-.039-3.256-.039-4.561v-3.168c0-3.541-1.294-5.119-3.921-5.119-1.74 0-3.371.754-4.93 2.661a3.286 3.286 0 0 0-1.272-2.003 3.416 3.416 0 0 0-2.313-.658c-1.754 0-3.385.957-4.776 2.572l-.207-2.268-.466-.304-4.794 1.85v1.084l2.018.26c.072 1.165.091 1.9.091 3.522v1.57c0 1.268 0 3.111-.045 4.556l-1.85.373v1.191h7.084v-1.178l-1.682-.342c0-1.45-.045-3.307-.045-4.574V30.01a4.841 4.841 0 0 1 3.112-1.483c1.495 0 2.032.811 2.032 3.168v2.667c0 1.299 0 3.123-.039 4.555l-1.825.38v1.191h7.015v-1.19l-1.696-.362c0-1.432-.038-3.263-.038-4.568v-3.047a7.8 7.8 0 0 0-.065-1.267 4.76 4.76 0 0 1 3.196-1.463c1.43 0 2.026.678 2.026 3.167v2.623c0 1.299 0 3.123-.04 4.555l-1.772.374v1.19h7.007v-1.203l-1.766-.38z"/>
        <path d="M126.532 26.779h-1.941l-7.901 12.157-1.63.24-.356 1.103h4.147l.356-1.102-1.397-.247 1.617-2.534h3.883l-.071 2.648-1.553.209-.33 1.058h5.933l.343-1.058-1.1-.146V26.779zm-6.373 8.394l3.3-5.233-.143 5.233h-3.157z"/>
        <path d="M144.035 27.894l.363-1.102h-4.594l-.33 1.102 1.695.158-2.09 6.405c-1.003 3.092-2.439 4.32-4.167 4.32-1.728 0-2.375-1.12-1.352-4.263l.517-1.577a296.459 296.459 0 0 1 1.624-4.878l1.637-.165.356-1.102h-6.276l-.356 1.102 1.339.146a307.042 307.042 0 0 1-1.559 4.897l-.751 2.242c-1.294 3.979.285 5.474 3.132 5.474 3.177 0 5.668-1.837 7.085-6.183l2.09-6.424 1.637-.152z"/>
        <path d="M150.908 26.779h-5.695l-.355 1.102 1.391.159a235.166 235.166 0 0 1-1.624 5.068l-.22.69a388.054 388.054 0 0 1-1.722 5.163l-1.494.159-.356 1.102h5.37c4.206 0 7.726-2.496 9.124-6.772 1.346-4.093-.291-6.671-4.419-6.671zm1.041 6.728c-1.158 3.554-3.177 5.562-5.377 5.562h-.647a324.85 324.85 0 0 1 1.676-5.258l.22-.678a350.006 350.006 0 0 1 1.721-5.176h.647c2.226 0 2.964 1.99 1.786 5.575l-.026-.025z"/>
        <path d="M164.185 27.894l.356-1.102h-6.205l-.356 1.102 1.391.158a274.187 274.187 0 0 1-1.624 5.068l-.246.76a261.492 261.492 0 0 1-1.695 5.069l-1.495.158-.362 1.102h6.231l.356-1.102-1.404-.158c.524-1.685 1.061-3.39 1.624-5.106l.246-.748a243.608 243.608 0 0 1 1.695-5.068l1.488-.133z"/>
        <path d="M171.781 26.424c-3.157 0-6.884 2.388-8.411 7.114-1.527 4.726.614 7.115 3.791 7.115 3.178 0 6.885-2.389 8.412-7.115 1.527-4.726-.634-7.114-3.792-7.114zm.382 7.114c-1.106 3.402-2.692 5.93-4.626 5.93-1.935 0-1.883-2.534-.77-5.93 1.113-3.395 2.698-5.942 4.633-5.942 1.934 0 1.863 2.553.763 5.942z"/>
        <path d="M109.857 12.709h-1.294v41.108h1.294V12.71z"/>
    </g>
    
</symbol><symbol id="icon-ig" viewBox="0 0 20 20">
    <g clip-path="url(#a)">
        <path d="M19.698 6.37c-.044-1.005-.207-1.696-.44-2.295a4.616 4.616 0 0 0-1.093-1.677 4.656 4.656 0 0 0-1.674-1.09c-.602-.233-1.29-.396-2.295-.44-1.012-.048-1.334-.06-3.902-.06S7.404.82 6.396.865C5.39.91 4.7 1.071 4.1 1.304c-.636.24-1.205.61-1.678 1.094a4.657 4.657 0 0 0-1.09 1.674c-.233.602-.395 1.29-.44 2.294C.847 7.38.835 7.7.835 10.268s.012 2.89.056 3.899c.044 1.005.207 1.696.44 2.295.24.635.613 1.204 1.093 1.677.473.48 1.046.854 1.674 1.09.603.233 1.29.396 2.295.44 1.009.044 1.33.055 3.898.055 2.569 0 2.89-.01 3.899-.055 1.005-.044 1.696-.207 2.294-.44a4.838 4.838 0 0 0 2.768-2.767c.233-.603.395-1.29.44-2.295.044-1.009.055-1.33.055-3.899 0-2.568-.003-2.89-.048-3.898zm-1.703 7.723c-.04.924-.196 1.422-.325 1.755a3.138 3.138 0 0 1-1.796 1.796c-.333.13-.835.285-1.756.325-.997.044-1.296.055-3.82.055s-2.827-.01-3.821-.055c-.924-.04-1.423-.196-1.755-.325a2.911 2.911 0 0 1-1.087-.706 2.94 2.94 0 0 1-.705-1.086c-.13-.333-.285-.835-.325-1.755-.045-.998-.056-1.297-.056-3.821s.011-2.827.056-3.821c.04-.924.195-1.423.325-1.755.151-.41.391-.783.71-1.087a2.936 2.936 0 0 1 1.085-.705c.333-.13.836-.285 1.756-.325.997-.045 1.297-.056 3.82-.056 2.528 0 2.827.011 3.821.056.924.04 1.423.195 1.755.325.41.151.784.391 1.087.705.314.307.554.677.706 1.087.129.332.284.835.325 1.755.044.998.055 1.297.055 3.82 0 2.525-.01 2.82-.055 3.818z"/>
        <path d="M10.294 5.41a4.86 4.86 0 0 0 0 9.717 4.86 4.86 0 0 0 0-9.718zm0 8.01a3.152 3.152 0 1 1 0-6.305 3.152 3.152 0 0 1 0 6.305z"/>
        <path d="M16.48 5.217a1.134 1.134 0 1 1-2.27 0 1.134 1.134 0 0 1 2.27 0z"/>
    </g>
    
</symbol><symbol id="icon-less-loss" viewBox="0 0 148 25">
    <path d="M4.927 1.729a3.298 3.298 0 0 0-2.29.938 3.161 3.161 0 0 0-.952 2.244v15.063c.003.841.346 1.648.953 2.244a3.3 3.3 0 0 0 2.289.94H142.66a3.296 3.296 0 0 0 2.286-.941 3.158 3.158 0 0 0 .95-2.243V4.91a3.156 3.156 0 0 0-.95-2.243 3.295 3.295 0 0 0-2.286-.94H4.927zM.271 4.91c0-1.21.49-2.371 1.363-3.228A4.72 4.72 0 0 1 4.927.34H142.66a4.719 4.719 0 0 1 3.289 1.345 4.525 4.525 0 0 1 1.361 3.226v15.063c0 1.209-.49 2.369-1.361 3.225a4.72 4.72 0 0 1-3.289 1.345H4.94a4.72 4.72 0 0 1-3.293-1.343 4.523 4.523 0 0 1-1.363-3.227L.271 4.91zm133.91 10.495c-.054 1.22-.433 1.983-1.232 2.475-1.24.706-2.728.843-4.881.848h-1.499c-2.262-.015-3.953-.353-4.77-.944-.241-.178-.288-.287-.207-.508.149-.36.355-.693.612-.988.215-.254.376-.094.41-.068.221.156.46.289.71.396.732.317 1.99.508 3.372.523h1.489c1.849-.013 3.322-.282 3.753-.69.285-.255.43-.697.446-1.342v-.673c-.078-.843-.662-1.102-2.488-1.102h-1.519c-5.029 0-6.783-.294-6.783-3.59-.007-.35.029-.698.109-1.039.059-.348.192-.68.392-.973.199-.294.46-.543.765-.73 1.227-.696 2.684-.836 4.803-.846h.867c1.831.02 3.358.266 4.302.703.203.1.392.224.563.368a.294.294 0 0 1 .05.333 3.261 3.261 0 0 1-.62 1.016.263.263 0 0 1-.4.081 5.069 5.069 0 0 0-.931-.48 9.905 9.905 0 0 0-3.097-.44h-.835c-1.846.019-3.257.283-3.69.689a1.605 1.605 0 0 0-.47 1.186v.574c.047.992.457 1.412 2.895 1.412h3.249c3.219 0 4.669.942 4.669 3.062l-.034.746zm-13.974 0c-.057 1.22-.436 1.983-1.237 2.475-1.232.706-2.724.843-4.876.848h-1.505c-2.259-.017-3.952-.353-4.764-.944-.259-.178-.293-.287-.21-.508.149-.36.356-.693.612-.988.218-.254.376-.094.402-.068.225.155.466.288.718.396.727.317 1.987.508 3.372.523h1.494c1.844-.013 3.32-.282 3.75-.69.286-.255.433-.702.446-1.342v-.673c-.077-.843-.658-1.107-2.484-1.107h-1.523c-5.026 0-6.782-.29-6.782-3.585-.008-.35.03-.7.112-1.041.057-.348.19-.68.39-.974.199-.293.461-.541.766-.728 1.225-.695 2.685-.835 4.799-.845h.876c1.816.02 3.354.266 4.293.703.204.1.394.223.568.368a.285.285 0 0 1 .041.333 3.111 3.111 0 0 1-.617 1.016.26.26 0 0 1-.394.076 5.815 5.815 0 0 0-.929-.475 10.028 10.028 0 0 0-3.112-.442h-.83c-1.844.02-3.253.285-3.688.691a1.577 1.577 0 0 0-.472 1.186v.574c.046.992.461 1.412 2.897 1.412h3.252c3.219 0 4.669.942 4.669 3.062l-.034.746zm-14.524 0c0 1.157-.402 1.967-1.243 2.478-1.216.698-2.668.84-4.764.848h-1.691c-2.098 0-3.55-.15-4.767-.843-.835-.508-1.24-1.326-1.24-2.483V9.483c0-1.158.405-1.97 1.237-2.484 1.22-.69 2.672-.832 4.77-.845h1.691c2.093.013 3.545.155 4.764.843.841.508 1.243 1.328 1.243 2.486v5.921zm-14.846 3.092c-.778.2-2.002.198-3.014.221-.404 0-1.086.015-1.32 0-1.701-.015-3.532.094-4.977-.675-.687-.43-1.037-1.27-1.037-2.654V6.378a.216.216 0 0 1 .067-.16.225.225 0 0 1 .163-.063h1.378a.233.233 0 0 1 .163.064.222.222 0 0 1 .067.16v8.742c0 .566.089 1.25.35 1.475.465.44 2.314.556 3.678.564h1.038a18.003 18.003 0 0 0 2.78-.231c.376-.076.475-.145.581.102.138.358.226.733.26 1.114 0 .145.015.31-.18.366l.003-.013zm-13.56-5.62l-.873.857a.524.524 0 0 1-.363.15.524.524 0 0 1-.366-.15l-.871-.856a.73.73 0 0 0-.52-.208.73.73 0 0 0-.518.208l-.874.856a.524.524 0 0 1-.731 0l-.87-.856a.508.508 0 0 1-.155-.358.485.485 0 0 1 .156-.356l.897-.853a.525.525 0 0 1 .732 0l.873.853a.716.716 0 0 0 .52.206.74.74 0 0 0 .518-.206l.871-.853a.499.499 0 0 1 .366-.15.524.524 0 0 1 .363.15l.874.853a.493.493 0 0 1 0 .714h-.028zm-3.462 3.419l-.874.853a.499.499 0 0 1-.365.15.525.525 0 0 1-.366-.15l-.869-.853a.716.716 0 0 0-.507-.206.729.729 0 0 0-.507.206l-.895.855a.524.524 0 0 1-.731 0l-.874-.853a.502.502 0 0 1 0-.713l.874-.856a.525.525 0 0 1 .731 0l.874.856a.731.731 0 0 0 1.014 0l.87-.856a.525.525 0 0 1 .73 0l.874.856a.503.503 0 0 1 .154.355.502.502 0 0 1-.153.358l.02-.002zm-9.277-.876c-.054 1.221-.436 1.983-1.232 2.476-1.237.705-2.723.843-4.878.848h-1.505c-2.261-.018-3.955-.353-4.77-.945-.243-.178-.287-.287-.204-.508a3.5 3.5 0 0 1 .612-.988c.215-.254.373-.094.404-.07.224.157.464.29.716.398.73.317 1.984.508 3.372.523h1.494c1.847-.013 3.32-.287 3.75-.69.283-.255.43-.701.449-1.341v-.689c-.08-.843-.656-1.107-2.485-1.107h-1.525c-5.026 0-6.785-.292-6.785-3.585-.004-.35.033-.7.11-1.041.06-.35.195-.683.396-.977.202-.294.465-.543.773-.73 1.227-.695 2.69-.835 4.803-.845h.87c1.815.023 3.355.269 4.3.706.202.098.392.222.562.368.12.099.073.254.052.333-.147.37-.357.714-.623 1.015-.085.092-.189.208-.394.076a5.553 5.553 0 0 0-.938-.474 9.985 9.985 0 0 0-3.097-.442h-.835c-1.847.02-3.26.284-3.694.688a1.628 1.628 0 0 0-.466 1.188v.574c.043.99.453 1.412 2.891 1.412h3.25c3.227 0 4.668.94 4.668 3.062l-.041.765zm-13.917 0c-.052 1.221-.433 1.983-1.23 2.476-1.24.705-2.728.843-4.883.848h-1.502c-2.259-.018-3.95-.353-4.762-.945-.26-.178-.293-.287-.21-.508.147-.36.353-.693.61-.988.215-.254.376-.094.407-.07.221.158.46.292.713.398.729.317 1.987.508 3.372.523h1.496c1.847-.013 3.317-.287 3.75-.69.283-.255.431-.701.447-1.341v-.689c-.076-.843-.657-1.107-2.485-1.107h-1.52c-5.031 0-6.785-.292-6.785-3.585-.003-.35.032-.699.104-1.041.062-.348.197-.68.398-.972.2-.293.462-.542.767-.73 1.224-.695 2.687-.835 4.8-.845h.87c1.828.023 3.355.269 4.3.706.203.097.392.221.562.368a.285.285 0 0 1 .05.333 3.316 3.316 0 0 1-.623 1.015c-.083.092-.184.209-.394.076a5.359 5.359 0 0 0-.929-.474 10.013 10.013 0 0 0-3.1-.442h-.837c-1.846.02-3.263.284-3.693.688a1.619 1.619 0 0 0-.467 1.188v.574c.039.99.449 1.412 2.89 1.412h3.246c3.224 0 4.669.94 4.669 3.063l-.031.759zm-14.48 2.988a.222.222 0 0 1-.15.105c-.766.203-2.005.2-3.014.223h-1.964c-2.3 0-3.815-.015-4.977-.675-.703-.435-1.037-1.27-1.037-2.652V9.485c0-1.374.327-2.217 1.037-2.649 1.165-.657 2.68-.667 4.98-.678h1.071l.778.013c1.009.02 2.244.018 3.011.221.195.053.19.218.182.36a4.491 4.491 0 0 1-.26 1.118c-.114.254-.202.193-.573.109-.093-.02-.446-.084-.5-.094a23.099 23.099 0 0 0-2.285-.142h-1.341c-.82 0-3.312 0-3.89.556-.26.229-.353.91-.353 1.478v1.755h8.087a.233.233 0 0 1 .163.064.221.221 0 0 1 .067.159v1.158c0 .06-.024.117-.067.16a.233.233 0 0 1-.163.066H26.85v1.983c0 .564.09 1.247.35 1.473.586.548 3.078.556 3.89.561h1.463c.519-.015.96-.028 1.367-.053.441-.027.88-.082 1.315-.165l.181-.038c.298-.069.394-.097.49.127.137.335.224.689.26 1.048v.064a.47.47 0 0 1-.034.254l.008.017zm-12.436.087c-.778.2-1.997.198-3.012.22-.41 0-1.089.016-1.32 0-1.704-.015-3.535.095-4.977-.675-.695-.429-1.037-1.27-1.037-2.653v-9.01c0-.059.024-.116.067-.158a.23.23 0 0 1 .161-.065h1.38a.233.233 0 0 1 .163.064.224.224 0 0 1 .068.16v8.742c0 .566.09 1.25.342 1.475.475.44 2.334.556 3.685.564h1.038a18.204 18.204 0 0 0 2.788-.231c.368-.076.467-.145.573.102.14.357.227.733.26 1.114 0 .145.012.31-.18.366v-.015zm44.114-9.749l.874-.855a.524.524 0 0 1 .731 0l.874.855a.717.717 0 0 0 .507.207.729.729 0 0 0 .507-.207l.87-.855a.538.538 0 0 1 .73 0l.875.855a.503.503 0 0 1 .153.358.503.503 0 0 1-.153.356l-.867.835a.525.525 0 0 1-.73 0l-.87-.858a.717.717 0 0 0-.507-.206.73.73 0 0 0-.507.206l-.884.866a.525.525 0 0 1-.356.137.525.525 0 0 1-.365-.145l-.874-.858a.502.502 0 0 1 0-.713l-.008.022zM99.855 7.73h-2.039c-1.787.026-3.166.29-3.587.686-.28.254-.404.85-.404 1.34v5.366c0 .493.124 1.097.402 1.34.423.397 1.802.664 3.595.689h2.033c1.79-.025 3.172-.292 3.592-.688.278-.254.402-.848.402-1.34V9.765c0-.49-.124-1.097-.402-1.339-.42-.398-1.815-.662-3.592-.688" fill-opacity=".5"/>
</symbol><symbol id="icon-like" viewBox="0 0 15 14">
    <path fill-rule="evenodd" clip-rule="evenodd" d="M7.5 1.556a4.253 4.253 0 0 0-.88-.792A4.47 4.47 0 0 0 4.126 0C1.815 0 0 1.846 0 4.196c0 .835.192 1.628.52 2.382 1.02 2.342 3.354 4.318 5.364 6.02.579.489 1.13.956 1.616 1.402.486-.446 1.037-.913 1.616-1.403 2.01-1.7 4.345-3.677 5.364-6.019.328-.754.52-1.547.52-2.382C15 1.846 13.185 0 10.875 0a4.47 4.47 0 0 0-2.496.764 4.253 4.253 0 0 0-.879.792zm0 10.398c.242-.208.49-.418.737-.627l.623-.53c.822-.704 1.626-1.419 2.338-2.168.881-.926 1.537-1.819 1.918-2.7.251-.58.384-1.156.384-1.733 0-1.462-1.116-2.64-2.625-2.64-.891 0-1.723.4-2.242 1.02L7.5 3.927 6.367 2.575c-.519-.62-1.35-1.02-2.242-1.02-1.509 0-2.625 1.179-2.625 2.641 0 .577.133 1.153.384 1.734.382.88 1.037 1.773 1.918 2.7.712.748 1.516 1.463 2.338 2.167l.623.53.737.627z"/>
</symbol><symbol id="icon-ok" viewBox="0 0 10 18">
    <path fill-rule="evenodd" clip-rule="evenodd" d="M3.356.201A4.817 4.817 0 0 0 1.92.926c-2.266 1.683-2.56 4.908-.635 6.95a4.65 4.65 0 0 0 7.172-.414c1.38-1.857 1.189-4.411-.456-6.08A4.704 4.704 0 0 0 4.096.038a4.564 4.564 0 0 0-.74.164zm1.967 2.586c.35.117.478.193.745.445.926.866.804 2.412-.246 3.114-.393.261-.705.343-1.235.32-.543-.024-.95-.197-1.312-.559-.36-.361-.535-.77-.558-1.312-.024-.53.057-.842.32-1.233a2.021 2.021 0 0 1 2.286-.775zM.786 10.012a1.325 1.325 0 0 0-.411 2.132c.204.213.603.424 1.266.67.168.063.319.121.408.159l.084.035c.01.01-.422.545-.96 1.19-.535.644-1.012 1.247-1.058 1.34-.134.276-.14.794-.015 1.087.069.162.17.306.295.426.272.263.652.412 1.03.377.555-.051.634-.12 1.997-1.756.679-.815 1.25-1.485 1.268-1.49.019-.004.546.61 1.172 1.369.354.425.7.836.956 1.13.198.227.341.387.391.432.132.117.28.203.439.256.256.086.544.086.845-.004.179-.053.364-.176.518-.334.141-.144.256-.318.312-.488.105-.317.08-.756-.06-1.025-.053-.104-.533-.712-1.067-1.35l-.97-1.162.414-.15c.618-.223 1.095-.456 1.293-.628a1.358 1.358 0 0 0 .304-1.584c-.151-.308-.332-.476-.69-.64-.217-.1-.429-.13-.688-.082a2.84 2.84 0 0 0-.669.226c-1.688.762-3.351.75-5.094-.039-.568-.256-.914-.283-1.31-.097z"/>
</symbol><symbol id="icon-play" viewBox="0 0 22 25">
    <path d="M21 10.768c1.333.77 1.333 2.694 0 3.464l-17.25 9.96c-1.333.77-3-.193-3-1.733V2.541C.75 1 2.417.039 3.75.809L21 10.768z"/>
</symbol><symbol id="icon-plus" viewBox="0 0 16 16">
    <path d="M7.037 15.71V8.813H.14V7.427h6.897V.53h1.386v6.897h6.897v1.386H8.423v6.897H7.037z"/>
</symbol><symbol id="icon-profile" viewBox="0 0 24 22">
    <path fill-rule="evenodd" clip-rule="evenodd" d="M12.5 14.5a6.5 6.5 0 1 0 0-13 6.5 6.5 0 0 0 0 13zm0 1.5a8 8 0 1 0 0-16 8 8 0 0 0 0 16z"/>
    <path fill-rule="evenodd" clip-rule="evenodd" d="M5.523 18.378c-1.837 1.2-3.223 2.64-3.923 3.572l-1.2-.9c.8-1.067 2.314-2.628 4.302-3.928 1.99-1.3 4.506-2.372 7.298-2.372s5.308 1.072 7.298 2.372c1.988 1.3 3.502 2.86 4.302 3.928l-1.2.9c-.7-.933-2.086-2.372-3.923-3.572-1.836-1.2-4.069-2.128-6.477-2.128-2.408 0-4.641.928-6.477 2.128z"/>
</symbol><symbol id="icon-star" viewBox="0 0 24 24">
    <path fill-rule="evenodd" clip-rule="evenodd" d="M20 28.3333L10 33.3333L12.5 23.3333L5 15L15.8333 14.1667L20 5L24.1667 14.1667L35 15L27.5 23.3333L30 33.3333L20 28.3333Z"/>
</symbol><symbol id="icon-search-reverse" viewBox="0 0 18 18">
    <path d="M11.121.037c2.235.252 4.147 1.47 5.29 3.365.47.78.759 1.575.93 2.535.088.513.077 1.7-.018 2.228-.408 2.235-1.728 4.038-3.698 5.059-1.055.544-2.01.775-3.215.772-1.466 0-2.67-.364-3.895-1.174l-.405-.268-2.368 2.357c-1.595 1.592-2.409 2.382-2.5 2.426-.184.085-.569.085-.732 0-.408-.215-.595-.657-.46-1.079.059-.173.185-.31 2.44-2.568l2.378-2.385-.262-.388C3.344 9.053 3.066 6.72 3.851 4.56c.255-.708.745-1.531 1.276-2.147C6.01 1.392 7.263.599 8.546.255c.782-.21 1.844-.303 2.575-.218zM9.907 1.772c-1.293.14-2.304.62-3.209 1.525-.921.922-1.411 1.97-1.534 3.276-.109 1.167.204 2.357.895 3.395.286.432.96 1.106 1.391 1.391 1.742 1.16 3.889 1.222 5.661.16a5.314 5.314 0 0 0 2.477-3.534 5.882 5.882 0 0 0 0-1.953 5.333 5.333 0 0 0-2.61-3.613c-.908-.517-2.054-.759-3.071-.647z"/>
</symbol><symbol id="icon-search" viewBox="0 0 24 22">
    <path fill-rule="evenodd" clip-rule="evenodd" d="M10 18.5a8.5 8.5 0 1 0 0-17 8.5 8.5 0 0 0 0 17zm0 1.5c5.523 0 10-4.477 10-10S15.523 0 10 0 0 4.477 0 10s4.477 10 10 10z"/>
    <path fill-rule="evenodd" clip-rule="evenodd" d="M23 22l-7-6 .976-1.139 7 6-.976 1.14z"/>
</symbol><symbol id="icon-tg" viewBox="0 0 21 19">
    <g clip-path="url(#a)">
        <path d="M10.136 4.944C4.957 6.933.673 8.59.623 8.624c-.128.085-.248.282-.248.417 0 .161.093.354.217.439.062.042 1.13.455 2.376.917 1.246.459 2.284.856 2.307.883.023.023.43 1.29.902 2.817.476 1.526.89 2.832.925 2.905.03.07.112.162.178.2.135.081.41.097.538.027.046-.023.638-.497 1.323-1.052 1.486-1.21 1.44-1.171 1.641-1.217.318-.07.38-.035 2.253 1.318 3.282 2.373 3.046 2.212 3.251 2.212.217 0 .368-.097.472-.293.1-.197 3.445-16.278 3.418-16.436-.047-.235-.294-.443-.534-.44-.05 0-4.327 1.63-9.506 3.623zm5.751-.03a.17.17 0 0 1 .047.107c0 .035-1.425 1.38-3.162 2.99-4.23 3.912-4.4 4.074-4.513 4.263-.147.254-.205.508-.34 1.514-.07.528-.144.964-.175 1.01-.058.092-.217.12-.317.054-.031-.02-.283-.821-.561-1.78-.535-1.858-.565-2.024-.438-2.316a.942.942 0 0 1 .19-.263c.155-.146 9.08-5.626 9.165-5.626.03 0 .077.02.104.046z"/>
    </g>
    
</symbol><symbol id="icon-triangle-down" viewBox="0 0 10 5">
    <path d="M5 5L9.33.5H.67L5 5z"/>
</symbol><symbol id="icon-vk" viewBox="0 0 21 21">
    <g clip-path="url(#a)">
        <path d="M20.557 15.239c-.053-.09-.383-.805-1.968-2.277-1.66-1.54-1.437-1.29.562-3.955 1.218-1.622 1.704-2.613 1.552-3.037-.145-.403-1.04-.297-1.04-.297l-2.978.017s-.22-.03-.385.069c-.16.096-.263.32-.263.32s-.472 1.255-1.101 2.323c-1.327 2.253-1.858 2.372-2.075 2.232-.504-.326-.378-1.31-.378-2.01 0-2.183.331-3.093-.645-3.329-.324-.078-.562-.13-1.39-.138-1.063-.012-1.964.003-2.473.252-.34.166-.6.537-.44.558.196.026.642.12.878.442.306.415.295 1.349.295 1.349s.176 2.57-.41 2.89c-.402.219-.953-.229-2.136-2.273C5.556 7.328 5.098 6.17 5.098 6.17s-.088-.216-.246-.33c-.19-.14-.458-.185-.458-.185l-2.831.017s-.425.012-.581.197c-.139.165-.011.504-.011.504s2.217 5.186 4.726 7.8c2.303 2.397 4.916 2.24 4.916 2.24h1.184s.358-.04.54-.236c.169-.181.163-.52.163-.52s-.024-1.59.714-1.824c.727-.23 1.661 1.536 2.65 2.216.749.514 1.317.401 1.317.401l2.647-.037s1.385-.085.729-1.174z"/>
    </g>
    
</symbol><symbol id="icon-way" viewBox="0 0 71 51">
    <g clip-path="url(#a)" fill-opacity=".5">
        <path d="M52.856 47.3h-4.182l14.49-42.044h4.18L52.855 47.3z"/>
        <path d="M43.885 5.235h4.204c-3.401 9.321-6.42 18.677-9.671 28.029h-4.056c.122-.625.112-1.297.381-1.832.753-1.478 1.051-3.086 1.696-4.62.644-1.532 1.078-3.212 1.614-4.824.536-1.612 1.027-3.121 1.573-4.668.547-1.546 1.174-3.179 1.751-4.773a302.611 302.611 0 0 0 1.615-4.65c.308-.903.603-1.805.893-2.662z"/>
        <path d="M18.981 33.267h-3.769c-.045-.14-.126-.26-.098-.343 3.083-9.117 6.173-18.249 9.272-27.394.032-.096.158-.165.294-.298h3.993c-3.149 9.386-6.354 18.762-9.692 28.035z"/>
        <path d="M50.131 22.996h-7.307c.49-1.372.957-2.712 1.437-4.084h3.993c.049-.912-1.163-4.774-1.913-6.235.683-1.975 1.342-3.872 2.137-6.173 2.34 6.372 4.178 12.47 6.55 18.81 0 1.238-.428 2.81-1.853 6.221-.557-.22-.455-.73-.634-1.145-.946-2.195-1.485-4.527-2.403-6.729a2.354 2.354 0 0 1-.007-.665z"/>
        <path d="M14.252 31.641C11.257 22.86 8.273 14.103 5.268 5.27H9.47c.452 1.372.928 2.86 1.447 4.349 1.205 3.446 2.336 6.934 3.555 10.363.595 1.688 1.19 3.392 1.856 5.059.2.445.213.949.035 1.402-.595 1.715-1.155 3.406-1.75 5.11-.004.041-.096.041-.362.09z"/>
        <path d="M33.822 31.641c-1.009-1.45-1.275-3.155-1.835-4.701a83.997 83.997 0 0 1-1.576-4.846c-.48-1.633-1.17-3.176-1.71-4.78-.54-1.606-1.16-3.183-1.695-4.644l2.249-6.149c.739 2.154 1.348 3.94 1.961 5.724l3.72 10.823c.26.75.55 1.502.778 2.246.262.864-.252 1.773-.582 2.634-.441 1.18-.85 2.387-1.31 3.693z"/>
        <path d="M15.237 46.189a3.61 3.61 0 0 1-1.083-2.572c0-.964.39-1.888 1.083-2.572.356-.35.78-.625 1.249-.81a3.802 3.802 0 0 1 1.473-.264c.63-.008 1.25.148 1.797.452a3.502 3.502 0 0 1 1.317 1.28l-.638.364a2.737 2.737 0 0 0-1.037-1.043 2.814 2.814 0 0 0-1.44-.367 2.988 2.988 0 0 0-1.193.201c-.38.148-.723.372-1.01.657a3.052 3.052 0 0 0-.843 2.09 3.051 3.051 0 0 0 .83 2.097c.286.285.63.508 1.01.655.379.147.785.215 1.193.199a2.814 2.814 0 0 0 1.439-.367c.436-.248.795-.609 1.037-1.042l.638.342a3.5 3.5 0 0 1-1.315 1.287 3.594 3.594 0 0 1-1.8.456c-.5.017-.998-.067-1.464-.246a3.662 3.662 0 0 1-1.243-.797z"/>
        <path d="M26.509 42.09h.68v5.035h-.68v-.988a2.28 2.28 0 0 1-.883.835c-.365.196-.778.29-1.195.273-.35.005-.697-.06-1.02-.192a2.574 2.574 0 0 1-.86-.573 2.672 2.672 0 0 1-.77-1.872c0-.698.275-1.37.77-1.873a2.56 2.56 0 0 1 .858-.575 2.607 2.607 0 0 1 1.022-.193c.417-.017.83.078 1.195.273.366.195.671.483.883.835v-.984zm-2.025 4.51a2.015 2.015 0 0 0 1.45-.555c.189-.187.338-.409.438-.653.1-.243.15-.504.147-.767a1.889 1.889 0 0 0-.585-1.427 2.047 2.047 0 0 0-1.43-.58 2.047 2.047 0 0 0-1.885 1.241 1.932 1.932 0 0 0-.15.783 1.916 1.916 0 0 0 .575 1.403 1.995 1.995 0 0 0 1.44.555z"/>
        <path d="M33.255 42.736c.5.5.78 1.172.78 1.872 0 .7-.28 1.372-.78 1.873a2.544 2.544 0 0 1-.854.572 2.59 2.59 0 0 1-1.016.192 2.355 2.355 0 0 1-1.194-.274 2.295 2.295 0 0 1-.883-.833v.987h-.68v-7.047h.68v2.997c.212-.35.517-.638.883-.833.365-.195.778-.29 1.194-.274a2.58 2.58 0 0 1 1.017.192c.322.132.612.328.853.576zM31.332 46.6a2.003 2.003 0 0 0 1.44-.556c.19-.186.34-.408.44-.651a1.93 1.93 0 0 0 .148-.769 1.878 1.878 0 0 0-.145-.764 2.033 2.033 0 0 0-1.102-1.076 2.066 2.066 0 0 0-2.21.43c-.19.184-.34.404-.44.646-.102.243-.15.503-.145.764a1.94 1.94 0 0 0 .142.767c.098.243.245.465.432.653a2.016 2.016 0 0 0 1.44.573V46.6z"/>
        <path d="M35.167 47.125v-7.352h.68v7.352h-.68z"/>
        <path d="M41.504 42.763a2.71 2.71 0 0 1 .7 1.866 2.32 2.32 0 0 1 0 .312h-4.507c.058.48.303.921.683 1.23.381.31.869.463 1.362.43.33.02.66-.05.951-.202.292-.151.537-.378.706-.656l.596.343c-.242.37-.578.671-.974.874a2.616 2.616 0 0 1-1.29.285 2.74 2.74 0 0 1-1.065-.173 2.698 2.698 0 0 1-.91-.57 2.746 2.746 0 0 1-.754-1.887c0-.7.27-1.373.754-1.886.251-.251.553-.448.885-.578.333-.13.69-.192 1.049-.18a2.35 2.35 0 0 1 .998.195c.314.137.593.341.816.597zm-3.807 1.52h3.818a1.871 1.871 0 0 0-.627-1.239 1.858 1.858 0 0 0-1.226-.445 1.945 1.945 0 0 0-1.32.464 1.867 1.867 0 0 0-.645 1.22z"/>
        <path d="M44.68 44.283c.866.212 1.945.442 1.945 1.53.001.199-.046.396-.137.575a1.276 1.276 0 0 1-.389.453 2.062 2.062 0 0 1-1.334.405c-.988 0-1.71-.474-1.986-1.16l.578-.343c.112.268.308.495.56.647.252.152.546.222.84.2.67 0 1.181-.25 1.181-.805 0-.453-.473-.686-1.05-.854-.866-.213-1.944-.446-1.944-1.533a1.27 1.27 0 0 1 .125-.57c.085-.179.212-.336.368-.459a1.95 1.95 0 0 1 1.265-.415c.37-.02.737.068 1.057.25.32.184.578.454.743.779l-.567.319c-.193-.474-.606-.707-1.233-.707-.627 0-1.079.285-1.079.796 0 .51.473.724 1.058.892z"/>
    </g>
    
</symbol><symbol id="icon-yg-acoustics" viewBox="0 0 202 49">
    <path d="M63.216 23.938a8.11 8.11 0 0 1-3.939-1.957c-.979-.782-1.9-1.517-3.382-1.517-1.738 0-3.012 1.077-4.026 2.745a55.345 55.345 0 0 1-1.975-6.37c-1.355-5.038-2.526-9.38-5.352-9.38-2.317 0-4.008 5.182-5.908 14.146-.26-1.32-.504-2.6-.736-3.799C35.431 4.881 34.325 0 32.442 0 30.41 0 28.8 6.428 25.607 21.095l-.156.736c-2.242-9.954-3.522-14.124-5.115-14.124-1.818 0-3.07 3.313-5.131 9.167-.707 2.01-1.535 4.343-2.404 6.317-.996-1.737-2.074-2.86-3.32-2.86-1.551 0-2.414.718-3.33 1.482-1.123.938-2.392 1.992-5.508 2.12H0v1.158h.643c3.116.127 4.385 1.187 5.508 2.125.916.758 1.779 1.482 3.33 1.482 1.246 0 2.318-1.117 3.32-2.895.869 1.974 1.697 4.314 2.403 6.323 2.063 5.855 3.314 9.167 5.132 9.167 1.593 0 2.897-4.175 5.115-14.124l.156.736C28.8 42.572 30.41 49 32.442 49c1.883 0 2.989-4.887 5.456-17.806.232-1.199.475-2.479.736-3.799 1.9 8.964 3.574 14.147 5.908 14.147 2.826 0 3.997-4.349 5.352-9.381a55.002 55.002 0 0 1 1.975-6.37c1.014 1.668 2.288 2.74 4.026 2.74 1.482 0 2.403-.736 3.382-1.512a8.029 8.029 0 0 1 3.939-1.957c.59.087 1.187.13 1.784.127v-1.436a11.2 11.2 0 0 0-1.784.185zM9.464 27.552c-1.129 0-1.737-.51-2.589-1.216a9.141 9.141 0 0 0-2.954-1.813 9.139 9.139 0 0 0 2.954-1.812c.846-.7 1.46-1.21 2.59-1.21.886 0 1.807 1.244 2.699 3.022-.875 1.778-1.796 3.029-2.7 3.029zM20.32 40.175c-1.083 0-2.792-4.852-4.054-8.396a77.244 77.244 0 0 0-2.81-7.256 76.648 76.648 0 0 0 2.839-7.273c1.25-3.538 2.96-8.39 3.996-8.396 1.118.504 2.989 8.471 4.57 15.634-1.581 7.239-3.446 15.19-4.524 15.687h-.017zm16.427-9.16c-1.32 6.948-3.134 16.392-4.298 16.867-1.442-.486-4.02-12.34-5.723-20.186-.243-1.111-.475-2.16-.695-3.173l.695-3.173c1.703-7.84 4.28-19.688 5.665-20.186 1.222.475 3.035 9.948 4.356 16.868.44 2.316.863 4.482 1.268 6.491-.394 2.015-.81 4.179-1.25 6.491h-.018zm12.007.885c-1.124 4.193-2.317 8.524-4.228 8.524-1.79 0-3.742-8.078-5.33-15.9 1.588-7.824 3.54-15.896 5.33-15.896 1.934 0 3.104 4.331 4.228 8.524a48.317 48.317 0 0 0 2.415 7.371A48.396 48.396 0 0 0 48.77 31.9h-.017zm9.783-5.738c-.886.706-1.581 1.262-2.659 1.262-1.436 0-2.53-1.158-3.423-2.895.892-1.737 1.987-2.895 3.423-2.895 1.078 0 1.773.579 2.659 1.262a10.652 10.652 0 0 0 2.566 1.639c-.92.422-1.778.97-2.549 1.627h-.017z" fill-opacity=".5"/>
    <path d="M77.64 25.463L73 18h3.385L79 22.873 81.772 18H85l-4.669 7.463V31h-2.72l.03-5.537z" fill-opacity=".5"/>
    <path d="M96 29.828a9.686 9.686 0 0 1-4.809 1.17c-3.583 0-6.191-2.532-6.191-6.496C85 20.538 87.608 18 91.191 18c1.81 0 3.415.439 4.565 1.59l-1.778 2.1a3.515 3.515 0 0 0-1.273-.92 3.292 3.292 0 0 0-1.514-.25c-2.168 0-3.567 1.678-3.567 3.988s1.41 3.982 3.567 3.982a4.646 4.646 0 0 0 2.38-.614V25.87h-2.06v-2.52H96v6.478z" fill-opacity=".5"/>
    <path d="M108.367 18h2.261L116 31h-3.089l-1.021-2.754h-4.827L106.018 31H103l5.367-13zm1.051 3.78l-1.51 4.045h3.036l-1.526-4.045z" fill-opacity=".5"/>
    <path d="M125.412 21.534c-.31-.336-.697-.601-1.133-.777a3.362 3.362 0 0 0-1.385-.24c-2.222 0-3.859 1.677-3.859 3.986 0 2.31 1.637 3.981 3.777 3.981a3.397 3.397 0 0 0 1.558-.334c.48-.232.889-.574 1.187-.993l2.443 1.69a5.743 5.743 0 0 1-2.126 1.62 6.193 6.193 0 0 1-2.69.53c-4.155 0-7.184-2.53-7.184-6.494 0-3.963 3.029-6.5 7.184-6.5a6.095 6.095 0 0 1 2.467.439 5.712 5.712 0 0 1 2.028 1.379l-2.267 1.713z" fill-opacity=".5"/>
    <path d="M135.5 18c3.76 0 6.5 2.532 6.5 6.503 0 3.97-2.74 6.497-6.5 6.497s-6.5-2.532-6.5-6.497S131.74 18 135.5 18zm0 10.485c2.279 0 3.743-1.678 3.743-3.982 0-2.304-1.476-3.988-3.743-3.988s-3.743 1.678-3.743 3.988 1.482 3.982 3.743 3.982z" fill-opacity=".5"/>
    <path d="M154 25.792c0 2.996-1.682 5.208-4.994 5.208-3.313 0-5.006-2.218-5.006-5.208V18h2.612v7.684c-.022.35.023.7.133 1.031.109.331.282.634.506.89.223.257.494.461.795.601a2.265 2.265 0 0 0 1.908 0c.301-.14.572-.344.795-.6.224-.257.397-.56.506-.89.11-.331.155-.682.133-1.032V18H154v7.792z" fill-opacity=".5"/>
    <path d="M163.101 21.318a2.66 2.66 0 0 0-1.994-.824c-.778 0-1.851.35-1.851 1.28 0 2.25 5.744.8 5.744 5.132 0 2.759-2.235 4.091-4.806 4.091A5.929 5.929 0 0 1 156 29.442l1.953-2.127c.285.362.648.655 1.064.857a3.09 3.09 0 0 0 1.335.312c.897 0 1.9-.421 1.9-1.292 0-2.273-5.851-1.052-5.851-5.173 0-2.636 2.312-4.015 4.76-4.015a5.674 5.674 0 0 1 3.821 1.292l-1.881 2.022z" fill-opacity=".5"/>
    <path d="M168.586 20.536H165V18h10v2.536h-3.586V31h-2.786l-.042-10.464z" fill-opacity=".5"/>
    <path d="M177 18h2v13h-2V18z" fill-opacity=".5"/>
    <path d="M189.617 21.534a2.888 2.888 0 0 0-1.039-.777 2.853 2.853 0 0 0-1.269-.24c-2.032 0-3.533 1.677-3.533 3.986 0 2.31 1.501 3.981 3.463 3.981.496.014.987-.101 1.428-.333a2.93 2.93 0 0 0 1.088-.994l2.245 1.69a5.339 5.339 0 0 1-1.948 1.62 5.271 5.271 0 0 1-2.467.53c-3.809 0-6.585-2.53-6.585-6.494 0-3.963 2.776-6.5 6.585-6.5a5.186 5.186 0 0 1 2.263.439 5.244 5.244 0 0 1 1.858 1.379l-2.089 1.713z" fill-opacity=".5"/>
    <path d="M200.102 21.318a2.658 2.658 0 0 0-1.992-.824c-.778 0-1.851.35-1.851 1.28 0 2.25 5.741.8 5.741 5.132 0 2.759-2.234 4.092-4.804 4.092A5.976 5.976 0 0 1 193 29.443l1.956-2.128a3.07 3.07 0 0 0 2.4 1.17c.895 0 1.897-.422 1.897-1.293 0-2.273-5.847-1.052-5.847-5.172 0-2.637 2.311-4.016 4.757-4.016a5.675 5.675 0 0 1 3.82 1.292l-1.881 2.022z" fill-opacity=".5"/>
</symbol></svg>