<svg width="60" height="60" fill="none" xmlns="http://www.w3.org/2000/svg" viewBox="0 0 60 60" class="big-icon" data-v-28081ec4=""><g clip-path="url(#clip0_2193_48)" fill="#004989" data-v-28081ec4=""><path d="M11.25 50.627a.936.936 0 01-.938-.937 6.572 6.572 0 016.565-6.564.936.936 0 110 1.875 4.695 4.695 0 00-4.69 4.689.936.936 0 01-.937.938zM48.75 50.627a.936.936 0 01-.937-.938 4.693 4.693 0 00-4.688-4.688.936.936 0 110-1.874 6.571 6.571 0 016.563 6.562.936.936 0 01-.938.938z" data-v-28081ec4=""></path><path d="M24.375 45.002L16.877 45a.938.938 0 010-1.875h7.498a.937.937 0 110 1.876zM43.125 45.002l-7.5-.001a.937.937 0 110-1.875h7.5a.937.937 0 110 1.876zM11.25 59.063a.938.938 0 01-.937-.938V49.69a.937.937 0 111.874 0l.001 8.435a.937.937 0 01-.937.938z" data-v-28081ec4=""></path><path d="M12.188 60a1.877 1.877 0 01-1.876-1.875.936.936 0 111.876 0v.002a.936.936 0 110 1.873zM47.813 60a.937.937 0 110-1.875h.001a.936.936 0 111.873 0c0 1.034-.84 1.875-1.874 1.875z" data-v-28081ec4=""></path><path d="M48.75 59.063a.937.937 0 01-.938-.938V49.69a.937.937 0 111.876 0v8.436a.937.937 0 01-.938.938z" data-v-28081ec4=""></path><path d="M47.812 60H12.188a.937.937 0 110-1.875h35.624a.936.936 0 110 1.875zM24.375 45.002a.936.936 0 01-.938-.938v-4.922a.937.937 0 111.875 0v4.922a.936.936 0 01-.937.938zM35.625 45a.936.936 0 01-.938-.937v-4.92a.937.937 0 111.876 0v4.92a.936.936 0 01-.938.938z" data-v-28081ec4=""></path><path d="M30 41.25c-8.27 0-15-6.73-15-15a.937.937 0 111.875 0c0 7.237 5.887 13.126 13.125 13.126s13.125-5.888 13.125-13.126a.937.937 0 111.876 0c0 8.27-6.73 15-15 15z" data-v-28081ec4=""></path><path d="M44.063 27.188a.937.937 0 01-.938-.938v-7.5a.937.937 0 111.875 0v7.5a.936.936 0 01-.938.938zM13.123 21.563a.937.937 0 01-.938-.938c0-9.822 7.99-17.813 17.813-17.813 3.98 0 7.745 1.284 10.885 3.712a.937.937 0 11-1.146 1.483 15.785 15.785 0 00-9.739-3.32c-8.788 0-15.937 7.15-15.937 15.938a.937.937 0 01-.938.938zM14.06 27.188a.937.937 0 110-1.875c1.035 0 1.876-.841 1.876-1.875a.937.937 0 111.875 0 3.754 3.754 0 01-3.75 3.75z" data-v-28081ec4=""></path><path d="M13.123 27.188a.937.937 0 01-.938-.938v-5.625a.937.937 0 111.876 0v5.625a.936.936 0 01-.938.938z" data-v-28081ec4=""></path><path d="M14.06 27.188h-.937a.937.937 0 110-1.875h.938a.937.937 0 110 1.875zM16.875 24.375a.937.937 0 01-.938-.937v-1.875a.937.937 0 111.876 0v1.875a.936.936 0 01-.938.937z" data-v-28081ec4=""></path><path d="M16.875 22.5a.937.937 0 01-.938-.937 3.754 3.754 0 013.75-3.75.937.937 0 110 1.875 1.877 1.877 0 00-1.875 1.875.937.937 0 01-.937.937z" data-v-28081ec4=""></path><path d="M40.313 19.688H19.687a.937.937 0 110-1.875h20.626a.937.937 0 110 1.875z" data-v-28081ec4=""></path><path d="M40.313 19.688a.937.937 0 01-.938-.938V7.267a.937.937 0 111.875 0V18.75a.937.937 0 01-.938.938z" data-v-28081ec4=""></path><path d="M44.063 11.955a.937.937 0 01-.937-.937 2.817 2.817 0 00-2.813-2.814.937.937 0 110-1.875A4.694 4.694 0 0145 11.018a.936.936 0 01-.938.937zM40.313 19.688a.937.937 0 110-1.875 2.818 2.818 0 002.813-2.814.937.937 0 111.875 0 4.694 4.694 0 01-4.688 4.689z" data-v-28081ec4=""></path><path d="M44.063 19.688a.937.937 0 01-.938-.938V11.02a.937.937 0 111.875 0v7.731a.937.937 0 01-.938.938zM15.938 27.188A.937.937 0 0115 26.25v-.716a.937.937 0 111.875 0v.716a.936.936 0 01-.938.938zM32.813 4.688a.937.937 0 01-.938-.938c0-1.034-.84-1.875-1.875-1.875-1.034 0-1.875.84-1.875 1.875a.937.937 0 11-1.875 0A3.754 3.754 0 0130 0a3.754 3.754 0 013.75 3.75.937.937 0 01-.937.938z" data-v-28081ec4=""></path><path d="M27.188 4.92a.937.937 0 01-.938-.937V3.75a.937.937 0 111.875 0v.233a.937.937 0 01-.938.938zM32.813 4.92a.937.937 0 01-.938-.937V3.75a.937.937 0 111.875 0v.233a.937.937 0 01-.938.938zM30 55.313c-4.652 0-8.436-3.785-8.436-8.436a.937.937 0 111.875 0A6.57 6.57 0 0030 53.437a6.57 6.57 0 006.561-6.56.937.937 0 111.875 0c0 4.651-3.784 8.435-8.436 8.435z" data-v-28081ec4=""></path><path d="M22.502 47.814a.937.937 0 01-.938-.937v-2.813a.937.937 0 111.875 0v2.813a.936.936 0 01-.937.937zM37.5 47.814a.936.936 0 01-.938-.937v-2.813a.937.937 0 111.876 0v2.813a.936.936 0 01-.938.937zM44.063 35.625a.937.937 0 110-1.875 3.754 3.754 0 003.75-3.75 3.754 3.754 0 00-3.75-3.75.937.937 0 110-1.875A5.63 5.63 0 0149.688 30a5.63 5.63 0 01-5.626 5.625z" data-v-28081ec4=""></path><path d="M44.063 35.625H31.875a.937.937 0 110-1.875h12.188a.936.936 0 110 1.875zM44.063 54.375h-5.626a.937.937 0 110-1.875h5.626a.936.936 0 110 1.875z" data-v-28081ec4=""></path><path d="M41.25 54.375a.937.937 0 01-.938-.938V52.5a.936.936 0 111.876 0v.937a.937.937 0 01-.938.938zM38.438 57.187a.937.937 0 01-.938-.937v-2.813a.936.936 0 111.875 0v2.813a.937.937 0 01-.938.937zM44.063 57.187a.937.937 0 01-.938-.937v-2.813a.936.936 0 111.875 0v2.813a.937.937 0 01-.938.937z" data-v-28081ec4=""></path><path d="M44.063 57.188h-5.626a.937.937 0 110-1.876h5.626a.936.936 0 110 1.876z" data-v-28081ec4=""></path></g><defs data-v-28081ec4=""><clipPath id="clip0_2193_48" data-v-28081ec4=""><path fill="#fff" d="M0 0h60v60H0z" data-v-28081ec4=""></path></clipPath></defs></svg>