<svg width="60" height="60" fill="none" xmlns="http://www.w3.org/2000/svg" viewBox="0 0 60 60" class="big-icon" data-v-28081ec4=""><g clip-path="url(#clip0_2193_23)" fill="#004989" data-v-28081ec4=""><path d="M30 57.656c-12.412 0-23.24-8.383-26.332-20.387a.939.939 0 01.676-1.142.943.943 0 011.141.675C8.363 47.977 18.444 55.782 30 55.782c13.957 0 25.313-11.356 25.313-25.313a.936.936 0 111.875 0c0 14.99-12.197 27.187-27.188 27.187zM3.75 30.469a.937.937 0 01-.938-.938C2.813 14.542 15.01 2.345 30 2.345c12.411 0 23.238 8.383 26.33 20.387a.939.939 0 01-.675 1.143.94.94 0 01-1.142-.676C51.636 12.023 41.555 4.22 30 4.22c-13.958 0-25.313 11.355-25.313 25.313 0 .518-.419.937-.937.937z" data-v-28081ec4=""></path><path d="M3.75 30.47a.933.933 0 01-.663-.276L.276 27.382a.936.936 0 010-1.326.936.936 0 011.325 0l2.813 2.813a.936.936 0 01-.663 1.6z" data-v-28081ec4=""></path><path d="M3.75 30.47a.936.936 0 01-.663-1.6L5.9 26.056a.936.936 0 011.325 0 .936.936 0 010 1.325l-2.812 2.812a.933.933 0 01-.663.275zM59.063 33.282a.933.933 0 01-.663-.275l-2.813-2.813a.936.936 0 010-1.325.936.936 0 011.326 0l2.812 2.813a.936.936 0 01-.662 1.6z" data-v-28081ec4=""></path><path d="M53.438 33.282a.936.936 0 01-.663-1.6l2.813-2.813a.936.936 0 011.325 0 .936.936 0 010 1.325L54.1 33.007a.933.933 0 01-.662.275zM13.123 51.511a.937.937 0 01-.938-.938V26.71a.937.937 0 111.875 0v23.864a.937.937 0 01-.937.937zM46.877 51.513a.936.936 0 01-.938-.938V26.71a.936.936 0 111.875 0v23.865c0 .519-.419.938-.937.938z" data-v-28081ec4=""></path><path d="M46.877 27.647H13.123a.937.937 0 110-1.875h33.754a.937.937 0 110 1.875z" data-v-28081ec4=""></path><path d="M13.123 27.647a.937.937 0 01-.803-1.42l2.812-4.69a.938.938 0 011.608.965l-2.813 4.69a.935.935 0 01-.804.455zM46.878 27.647a.936.936 0 01-.805-.454l-2.812-4.69a.937.937 0 111.608-.965l2.812 4.69a.937.937 0 01-.803 1.42z" data-v-28081ec4=""></path><path d="M44.064 22.958H15.935a.937.937 0 110-1.875h28.13a.937.937 0 110 1.875z" data-v-28081ec4=""></path><path d="M26.249 27.647a.937.937 0 01-.92-1.122l.938-4.69c.1-.507.59-.84 1.103-.734a.937.937 0 01.735 1.103l-.937 4.69a.938.938 0 01-.92.753zM33.749 27.647a.936.936 0 01-.918-.754l-.938-4.69a.938.938 0 011.84-.368l.937 4.69a.938.938 0 01-.921 1.122z" data-v-28081ec4=""></path><path d="M26.248 33.272a.937.937 0 01-.938-.937V26.71a.937.937 0 111.876 0v5.625a.936.936 0 01-.938.937zM33.75 33.272a.936.936 0 01-.938-.937V26.71a.936.936 0 111.876 0v5.625c0 .518-.42.937-.938.937z" data-v-28081ec4=""></path><path d="M33.751 33.272a.951.951 0 01-.228-.028l-3.75-.938a.938.938 0 01.454-1.819l3.75.938a.938.938 0 01-.226 1.847z" data-v-28081ec4=""></path><path d="M26.247 33.272a.938.938 0 01-.225-1.847l3.752-.937a.935.935 0 011.136.682.936.936 0 01-.683 1.137l-3.752.937a.952.952 0 01-.228.028zM38.441 44.524H21.56a.937.937 0 110-1.875H38.44a.937.937 0 110 1.875zM38.441 40.782H21.56a.937.937 0 110-1.875H38.44a.937.937 0 110 1.875zM33.752 48.276h-7.504a.937.937 0 110-1.876h7.504a.937.937 0 110 1.876z" data-v-28081ec4=""></path></g><defs data-v-28081ec4=""><clipPath id="clip0_2193_23" data-v-28081ec4=""><path fill="#fff" d="M0 0h60v60H0z" data-v-28081ec4=""></path></clipPath></defs></svg>