<svg width="60" height="60" fill="none" xmlns="http://www.w3.org/2000/svg" viewBox="0 0 60 60" class="big-icon" data-v-28081ec4=""><g clip-path="url(#clip0_2193_92)" fill="#004989" data-v-28081ec4=""><path d="M34.22 47.813H1.408a.937.937 0 01-.937-.938V6.563c0-.518.419-.937.937-.937h45c.518 0 .937.419.937.937v25.312a.937.937 0 11-1.875 0V7.501H2.346v38.437H34.22a.936.936 0 110 1.875z" data-v-28081ec4=""></path><path d="M46.406 57.188c-7.237 0-13.125-5.888-13.125-13.125 0-7.238 5.888-13.125 13.125-13.125 7.238 0 13.125 5.887 13.125 13.125 0 7.237-5.887 13.125-13.125 13.125zm0-24.375c-6.203 0-11.25 5.046-11.25 11.25 0 6.203 5.047 11.25 11.25 11.25 6.204 0 11.25-5.047 11.25-11.25 0-6.204-5.046-11.25-11.25-11.25z" data-v-28081ec4=""></path><path d="M46.406 60c-7.237 0-13.125-5.888-13.125-13.125a.937.937 0 111.875 0c0 6.203 5.047 11.25 11.25 11.25 6.204 0 11.25-5.047 11.25-11.25a.937.937 0 111.875 0C59.53 54.112 53.644 60 46.406 60zM1.406 7.5a.94.94 0 01-.6-.216.941.941 0 01-.12-1.322L5.372.337a.939.939 0 011.441 1.2L2.126 7.164a.933.933 0 01-.72.338zM46.408 7.5a.939.939 0 01-.722-.336L41 1.539a.938.938 0 111.44-1.2l4.688 5.624a.938.938 0 01-.719 1.538z" data-v-28081ec4=""></path><path d="M41.718 1.876H6.094a.937.937 0 110-1.875h35.624a.936.936 0 110 1.875z" data-v-28081ec4=""></path><path d="M20.157 7.5a.94.94 0 01-.928-1.078l.85-5.625A.944.944 0 0121.145.01a.94.94 0 01.788 1.068l-.85 5.625a.94.94 0 01-.927.798zM27.655 7.5a.938.938 0 01-.923-.783l-.938-5.625a.936.936 0 111.85-.307l.937 5.625a.937.937 0 01-.926 1.09z" data-v-28081ec4=""></path><path d="M20.156 15.938a.937.937 0 01-.937-.937V6.563a.937.937 0 111.875 0v8.438a.937.937 0 01-.938.937zM27.656 15.938a.937.937 0 01-.937-.937V6.563a.937.937 0 111.875 0v8.438a.937.937 0 01-.938.937z" data-v-28081ec4=""></path><path d="M27.655 15.938a.942.942 0 01-.418-.098l-3.75-1.875a.938.938 0 11.84-1.677l3.75 1.875a.938.938 0 01-.422 1.775z" data-v-28081ec4=""></path><path d="M20.158 15.938a.939.939 0 01-.42-1.776l3.75-1.875a.938.938 0 01.838 1.677l-3.75 1.875a.933.933 0 01-.418.1zM8.906 43.125H6.094a.937.937 0 01-.938-.937v-2.813c0-.518.42-.937.938-.937h2.812c.519 0 .938.419.938.937v2.813a.937.937 0 01-.938.937zM7.031 41.25h.938v-.937H7.03v.937zM14.531 43.125H11.72a.937.937 0 01-.938-.937v-2.813c0-.518.42-.937.938-.937h2.812c.519 0 .938.419.938.937v2.813a.937.937 0 01-.938.937zm-1.875-1.875h.938v-.937h-.938v.937zM20.156 43.125h-2.812a.937.937 0 01-.938-.937v-2.813c0-.518.42-.937.938-.937h2.812c.519 0 .938.419.938.937v2.813a.937.937 0 01-.938.937zm-1.875-1.875h.938v-.937h-.938v.937zM19.219 31.875H6.094a.937.937 0 110-1.875h13.125a.936.936 0 110 1.875zM12.656 34.688H6.094a.937.937 0 110-1.875h6.562a.936.936 0 110 1.875zM34.219 47.813a.937.937 0 01-.938-.938v-2.812a.937.937 0 111.875 0v2.812a.937.937 0 01-.937.938zM58.594 47.813a.937.937 0 01-.938-.938v-2.812a.937.937 0 111.875 0v2.812a.937.937 0 01-.937.938zM46.406 45a.937.937 0 01-.937-.938V37.5a.937.937 0 111.875 0v6.562a.937.937 0 01-.938.938z" data-v-28081ec4=""></path><path d="M51.047 49.64a.933.933 0 01-.663-.275l-4.64-4.64a.936.936 0 111.325-1.325l4.64 4.64a.937.937 0 01-.663 1.6z" data-v-28081ec4=""></path></g><defs data-v-28081ec4=""><clipPath id="clip0_2193_92" data-v-28081ec4=""><path fill="#fff" d="M0 0h60v60H0z" data-v-28081ec4=""></path></clipPath></defs></svg>