<svg width="562" height="542" viewBox="0 0 562 542" fill="none" xmlns="http://www.w3.org/2000/svg" data-v-108c6e42=""><g filter="url(#filter0_b_164:3)" data-v-108c6e42=""><path d="M547.473 271C547.473 121.574 424.662 0 273.716 0C122.769 0 0 121.615 0 271C0 420.385 122.811 542 273.757 542C299.764 542 325.478 538.405 350.233 531.256L380.372 522.578L320.01 444.352L307.027 446.749C296.132 448.774 284.945 449.766 273.757 449.766C174.156 449.766 93.131 369.557 93.131 270.959C93.131 172.361 174.156 92.1516 273.757 92.1516C373.359 92.1516 454.384 172.361 454.384 270.959C454.384 312.737 439.398 353.151 412.723 385.053H311.619L435.182 539.355L435.724 539.438L437.77 541.959H562L483.939 444.518C524.681 396.169 547.473 334.845 547.473 271Z" fill="#004989" fill-opacity="0.28" data-v-108c6e42=""></path></g> <defs data-v-108c6e42=""><filter id="filter0_b_164:3" x="-4" y="-4" width="570" height="550" filterUnits="userSpaceOnUse" color-interpolation-filters="sRGB" data-v-108c6e42=""><feFlood flood-opacity="0" result="BackgroundImageFix" data-v-108c6e42=""></feFlood> <feGaussianBlur in="BackgroundImage" stdDeviation="2" data-v-108c6e42=""></feGaussianBlur> <feComposite in2="SourceAlpha" operator="in" result="effect1_backgroundBlur_164:3" data-v-108c6e42=""></feComposite> <feBlend mode="normal" in="SourceGraphic" in2="effect1_backgroundBlur_164:3" result="shape" data-v-108c6e42=""></feBlend></filter></defs></svg>