<svg width="647" height="625" viewBox="0 0 647 625" fill="none" xmlns="http://www.w3.org/2000/svg">
<path d="M630.276 312.5C630.276 140.191 488.89 0 315.114 0C141.338 0 0 140.239 0 312.5C0 484.761 141.386 625 315.162 625C345.102 625 374.705 620.854 403.204 612.61L437.901 602.604L368.41 512.399L353.464 515.163C340.921 517.498 328.041 518.641 315.162 518.641C200.496 518.641 107.217 426.149 107.217 312.452C107.217 198.755 200.496 106.263 315.162 106.263C429.828 106.263 523.107 198.755 523.107 312.452C523.107 360.628 505.855 407.232 475.146 444.019H358.75L501.001 621.95L501.626 622.046L503.98 624.952H647L557.132 512.59C604.036 456.837 630.276 386.122 630.276 312.5Z" fill="black" fill-opacity="0.02"/>
</svg>
