<svg width="20" height="20" viewBox="0 0 20 20" fill="none" xmlns="http://www.w3.org/2000/svg">
<path fill-rule="evenodd" clip-rule="evenodd" d="M10 1.5C10.5523 1.5 11 1.94772 11 2.5V5C11 5.55228 10.5523 6 10 6C9.44772 6 9 5.55228 9 5V2.5C9 1.94772 9.44772 1.5 10 1.5ZM3.95954 3.95954C4.35006 3.56902 4.98323 3.56902 5.37375 3.95954L7.20709 5.79287C7.59761 6.1834 7.59761 6.81656 7.20709 7.20709C6.81656 7.59761 6.1834 7.59761 5.79287 7.20709L3.95954 5.37375C3.56902 4.98323 3.56902 4.35006 3.95954 3.95954ZM16.0404 3.95954C16.4309 4.35006 16.4309 4.98323 16.0404 5.37375L14.2071 7.20709C13.8165 7.59761 13.1834 7.59761 12.7929 7.20709C12.4023 6.81656 12.4023 6.1834 12.7929 5.79287L14.6262 3.95954C15.0167 3.56902 15.6499 3.56902 16.0404 3.95954ZM9.29289 9.29289C9.56073 9.02506 9.95689 8.93154 10.3162 9.05132L17.8162 11.5513C18.1999 11.6792 18.4688 12.0257 18.4975 12.4291C18.5262 12.8326 18.309 13.2135 17.9472 13.3944L14.912 14.912L13.3944 17.9472C13.2135 18.309 12.8326 18.5262 12.4291 18.4975C12.0257 18.4688 11.6792 18.1999 11.5513 17.8162L9.05132 10.3162C8.93154 9.95689 9.02506 9.56073 9.29289 9.29289ZM1.5 10C1.5 9.44772 1.94772 9 2.5 9H5C5.55228 9 6 9.44772 6 10C6 10.5523 5.55228 11 5 11H2.5C1.94772 11 1.5 10.5523 1.5 10ZM11.5811 11.5811L12.6852 14.8934L13.2722 13.7195C13.369 13.5259 13.5259 13.369 13.7195 13.2722L14.8934 12.6852L11.5811 11.5811ZM7.20709 12.7929C7.59761 13.1834 7.59761 13.8165 7.20709 14.2071L5.37375 16.0404C4.98323 16.4309 4.35006 16.4309 3.95954 16.0404C3.56902 15.6499 3.56902 15.0167 3.95954 14.6262L5.79287 12.7929C6.1834 12.4023 6.81656 12.4023 7.20709 12.7929Z" fill="#EC6624"/>
</svg>
