<svg width="20" height="20" viewBox="0 0 20 20" fill="none" xmlns="http://www.w3.org/2000/svg">
<path fill-rule="evenodd" clip-rule="evenodd" d="M3.6574 5.40317L10 9.63156L16.3426 5.40317C16.2203 5.25856 16.0375 5.16675 15.8333 5.16675H4.16667C3.96246 5.16675 3.77969 5.25856 3.6574 5.40317ZM16.5 7.70193L10.5547 11.6655C10.2188 11.8894 9.7812 11.8894 9.4453 11.6655L3.5 7.70193V14.1667C3.5 14.5349 3.79848 14.8334 4.16667 14.8334H15.8333C16.2015 14.8334 16.5 14.5349 16.5 14.1667V7.70193ZM1.5 5.83341C1.5 4.36066 2.69391 3.16675 4.16667 3.16675H15.8333C17.3061 3.16675 18.5 4.36066 18.5 5.83341V14.1667C18.5 15.6395 17.3061 16.8334 15.8333 16.8334H4.16667C2.69391 16.8334 1.5 15.6395 1.5 14.1667V5.83341Z" fill="#EC6624"/>
</svg>
