<svg width="129" height="56" viewBox="0 0 129 56" fill="none" xmlns="http://www.w3.org/2000/svg">
<path d="M83.0428 3H74.5425V23.3933C74.5425 28.1934 70.2737 31.4043 65.4829 31.5348H64.5975C59.8114 31.4043 55.5379 28.1934 55.5379 23.3933L55.5472 17.2231H48.692H37.0133V3H28.513V17.1812L9.25678 17.2092V3H4V36.3815H9.25678V22.0745H28.513V36.3815H37.0133V21.9719H47.0376V22.5358C47.0376 27.9837 49.7172 36.4001 64.178 36.3815C64.3178 36.3815 65.8464 36.3815 65.893 36.3815C80.3538 36.4001 83.0335 28.3612 83.0335 22.9133V7.87464H100.137V36.3815H108.637V7.87464H126.318V3H83.0335H83.0428Z" fill="#EB6623"/>
<path d="M55.5472 3H47.0469V11.5003H55.5472V3Z" fill="#EB6623"/>
<path d="M95.8304 27.8809H87.3301V36.3812H95.8304V27.8809Z" fill="#EB6623"/>
<path d="M8.77186 48.1064V52.8599H7.82116V50.8886H5.37452V52.8599H4.42383V48.1064H5.37452V50.1104H7.82116V48.1064H8.77186Z" fill="#41484C"/>
<path d="M10.9956 52.8599H10.0449V48.1064H10.9956V52.8599Z" fill="#41484C"/>
<path d="M16.0469 48.1064V48.8894H14.4158V52.8599H13.4651V48.8894H11.834V48.1064H16.0422H16.0469Z" fill="#41484C"/>
<path d="M20.8047 48.1064V48.8894H19.1736V52.8599H18.2229V48.8894H16.5918V48.1064H20.8H20.8047Z" fill="#41484C"/>
<path d="M22.5991 52.8599H21.6484V48.1064H22.5991V52.8599Z" fill="#41484C"/>
<path d="M27.2638 51.3679V48.1104H28.2145V52.8638H27.1985L24.8544 49.6063H24.8218V52.8638H23.8711V48.1104H24.8917L27.2358 51.3679H27.2684H27.2638Z" fill="#41484C"/>
<path d="M33.3916 48.4463L32.9862 49.0941C32.9862 49.0941 32.4969 48.7865 31.8677 48.7865C30.8471 48.7865 30.1714 49.4669 30.1714 50.4828C30.1714 51.4987 30.8518 52.1791 31.8677 52.1791C32.3431 52.1791 32.6833 52.0114 32.6833 52.0114V50.8929H31.7V50.11H33.634V52.4075C33.634 52.4075 32.8883 52.9994 31.8025 52.9994C30.2739 52.9994 29.2207 51.9461 29.2207 50.4875C29.2207 49.0288 30.2739 47.9756 31.8025 47.9756C32.7858 47.9756 33.3963 48.4509 33.3963 48.4509L33.3916 48.4463Z" fill="#41484C"/>
<path d="M44.6992 50.9585V48.1064H45.6499V50.9585C45.6499 51.7042 46.1253 52.1795 46.8709 52.1795C47.6165 52.1795 48.0919 51.7042 48.0919 50.9585V48.1064H49.0426V50.9585C49.0426 52.1469 48.1944 52.9951 46.8709 52.9951C45.5474 52.9951 44.6992 52.1469 44.6992 50.9585Z" fill="#41484C"/>
<path d="M50.2871 48.1064H51.2378V52.077H53.9221V52.8599H50.2871V48.1064Z" fill="#41484C"/>
<path d="M58.0039 48.1064V48.8894H56.3728V52.8599H55.4221V48.8894H53.791V48.1064H57.9992H58.0039Z" fill="#41484C"/>
<path d="M59.7944 52.8599H58.8438V48.1064H59.7944V52.8599Z" fill="#41484C"/>
<path d="M63.4619 52.1844L62.2735 49.6399H62.2409L61.8681 52.8648H60.8848L61.4626 48.1113H62.5159L63.872 51.0659H63.9046L65.2608 48.1113H66.314L66.8918 52.8648H65.9085L65.5357 49.6399H65.5031L64.3147 52.1844H63.4666H63.4619Z" fill="#41484C"/>
<path d="M72.6185 52.8599H71.5979L71.2251 51.9092H68.8809L68.5081 52.8599H67.4922L69.4588 48.1064H70.6472L72.6185 52.8599ZM69.2258 51.0937H70.8895L70.074 49.127H70.0413L69.2258 51.0937Z" fill="#41484C"/>
<path d="M76.7715 48.1064V48.8894H75.1404V52.8599H74.1897V48.8894H72.5586V48.1064H76.7668H76.7715Z" fill="#41484C"/>
<path d="M77.6152 48.1064H81.418V48.8894H78.5659V50.1104H80.5326V50.8933H78.5659V52.0816H81.4833V52.8646H77.6152V48.1111V48.1064Z" fill="#41484C"/>
<path d="M96.1465 48.1064V48.8894H94.5154V52.8599H93.5647V48.8894H91.9336V48.1064H96.1418H96.1465Z" fill="#41484C"/>
<path d="M101.628 52.8599H100.612L100.239 51.9092H97.8954L97.5225 52.8599H96.502L98.4732 48.1064H99.6616L101.628 52.8599ZM98.2356 51.0937H99.8993L99.0837 49.127H99.0511L98.2356 51.0937Z" fill="#41484C"/>
<path d="M104.582 48.1062C105.873 48.1062 106.554 48.7866 106.554 49.6674C106.554 50.6834 105.673 51.0236 105.673 51.0236V51.0562L106.931 52.855H105.813L104.694 51.2239H103.371V52.855H102.42V48.1016H104.592L104.582 48.1062ZM104.582 48.8891H103.361V50.4503H104.582C105.225 50.4503 105.566 50.0449 105.566 49.6674C105.566 49.2247 105.225 48.8845 104.582 48.8845V48.8891Z" fill="#41484C"/>
<path d="M111.642 48.4463L111.236 49.0941C111.236 49.0941 110.747 48.7865 110.118 48.7865C109.102 48.7865 108.421 49.4669 108.421 50.4828C108.421 51.4987 109.102 52.1791 110.118 52.1791C110.593 52.1791 110.933 52.0114 110.933 52.0114V50.8929H109.95V50.11H111.884V52.4075C111.884 52.4075 111.138 52.9994 110.052 52.9994C108.524 52.9994 107.471 51.9461 107.471 50.4875C107.471 49.0288 108.524 47.9756 110.052 47.9756C111.036 47.9756 111.646 48.4509 111.646 48.4509L111.642 48.4463Z" fill="#41484C"/>
<path d="M113.004 48.1064H116.807V48.8894H113.955V50.1104H115.926V50.8933H113.955V52.0816H116.877V52.8646H113.004V48.1111V48.1064Z" fill="#41484C"/>
<path d="M121.559 48.1064V48.8894H119.927V52.8599H118.977V48.8894H117.346V48.1064H121.554H121.559Z" fill="#41484C"/>
<path d="M125.837 48.5488L125.464 49.1919C125.464 49.1919 124.918 48.7865 124.205 48.7865C123.562 48.7865 123.255 49.0941 123.255 49.3317C123.255 50.2824 125.934 49.8071 125.934 51.4708C125.934 52.2863 125.221 52.9994 123.865 52.9994C122.765 52.9994 122.066 52.3562 122.066 52.3562L122.472 51.7085C122.472 51.7085 123.022 52.2164 123.795 52.2164C124.569 52.2164 124.951 51.8436 124.951 51.4708C124.951 50.6226 122.267 51.0653 122.267 49.3317C122.267 48.6513 122.947 47.9756 124.136 47.9756C125.152 47.9756 125.832 48.5535 125.832 48.5535L125.837 48.5488Z" fill="#41484C"/>
</svg>
