<svg width="66" height="24" viewBox="0 0 66 24" fill="none" xmlns="http://www.w3.org/2000/svg">
<path d="M28.1155 3.01029H24.4859V7.313H28.1155V3.01029Z" fill="#EC6624"/>
<path d="M47.3996 16.4743H43.7699V20.777H47.3996V16.4743Z" fill="#EC6624"/>
<path d="M52.5426 3.00343L40.3592 3L37.4371 3.00343V14.2406C37.4371 16.8311 35.3209 18.6599 32.9603 18.708C30.3365 18.7629 28.1092 17.0953 28.1092 14.1685V10.7819H19.1652V3.00343H15.0057V10.7854H12.7245V10.7991H5.57311V3.00343H3V20.777H5.57311V13.3038H14.9994V20.777H19.1588V13.3004H24.5843C24.5145 17.2497 26.5641 20.9897 33.2015 21C40.2831 21.0103 41.5934 16.5978 41.5934 13.6778V5.51849H50.1852V20.777H54.3447V5.50819H63V3.00343H52.5394H52.5426Z" fill="#EC6624"/>
</svg>
