<svg width="129" height="56" viewBox="0 0 129 56" fill="none" xmlns="http://www.w3.org/2000/svg">
<path d="M55.0683 3.01944H47.688V11.1468H55.0683V3.01944Z" fill="#EC6624"/>
<path d="M94.2791 28.4514H86.8988V36.5787H94.2791V28.4514Z" fill="#EC6624"/>
<path d="M104.737 3.00648L79.9637 3L74.0221 3.00648V24.2322C74.0221 29.1254 69.7191 32.5798 64.9194 32.6706C59.5842 32.7743 55.0554 29.6244 55.0554 24.0961V17.6992H36.8692V3.00648H28.4116V17.7057H23.7731V17.7316H9.23198V3.00648H4V36.5787H9.23198V22.4628H28.3987V36.5787H36.8563V22.4563H47.888C47.7461 29.9161 51.9136 36.9805 65.4097 37C79.8089 37.0194 82.4733 28.6847 82.4733 23.1693V7.75714H99.9433V36.5787H108.401V7.7377H126V3.00648H104.73H104.737Z" fill="#EC6624"/>
<path class="letter" d="M9.28021 47.1646V52.8291H8.12476V50.481H5.15545V52.8291H4V47.1646H5.15545V49.5506H8.12476V47.1646H9.28021Z" fill="white"/>
<path class="letter" d="M11.0037 50.5696V47.1709H12.1592V50.5696C12.1592 51.462 12.7337 52.0253 13.6438 52.0253C14.554 52.0253 15.1285 51.4557 15.1285 50.5696V47.1709H16.2839V50.5696C16.2839 51.9873 15.2511 53 13.6438 53C12.0365 53 11.0037 51.9873 11.0037 50.5696Z" fill="white"/>
<path class="letter" d="M22.1322 51.0506V47.1646H23.2876V52.8291H22.0483L19.2016 48.943H19.1629V52.8291H18.0074V47.1646H19.2468L22.0934 51.0506H22.1322Z" fill="white"/>
<path class="letter" d="M29.6394 47.1646V48.0949H27.6577V52.8291H26.5022V48.0949H24.5205V47.1646H29.6394Z" fill="white"/>
<path class="letter" d="M39.2638 50.5696V47.1709H40.4193V50.5696C40.4193 51.462 40.9938 52.0253 41.9039 52.0253C42.8141 52.0253 43.3886 51.4557 43.3886 50.5696V47.1709H44.544V50.5696C44.544 51.9873 43.5112 53 41.9039 53C40.2966 53 39.2638 51.9873 39.2638 50.5696Z" fill="white"/>
<path class="letter" d="M48.9076 47.1646C50.4762 47.1646 51.3024 47.9747 51.3024 49.0253C51.3024 50.2405 50.2309 50.6456 50.2309 50.6456V50.6835L51.7607 52.8291H50.3987L49.0367 50.8861H47.4294V52.8291H46.274V47.1646H48.9141H48.9076ZM48.9076 48.0949H47.423V49.9557H48.9076C49.6887 49.9557 50.1018 49.4684 50.1018 49.0253C50.1018 48.5 49.6887 48.0949 48.9076 48.0949Z" fill="white"/>
<path class="letter" d="M52.9614 47.1646H55.5176C57.0474 47.1646 57.7058 47.8101 57.7058 48.7025C57.7058 49.5949 56.7569 49.8101 56.7569 49.8101V49.8481C56.7569 49.8481 58.1189 50.0759 58.1189 51.2089C58.1189 52.057 57.3314 52.8291 55.8403 52.8291H52.9614V47.1646ZM56.5116 48.7848C56.5116 48.4177 56.1824 48.0949 55.524 48.0949H54.1233V49.4684H55.524C56.1824 49.4684 56.5116 49.1456 56.5116 48.7785V48.7848ZM54.1168 50.4051V51.9051H55.8532C56.5956 51.9051 56.9248 51.5823 56.9248 51.1772C56.9248 50.7342 56.5956 50.4114 55.8532 50.4114H54.1168V50.4051Z" fill="white"/>
<path class="letter" d="M63.8639 52.8354L63.4121 51.7025H60.5654L60.1135 52.8354H58.8742L61.269 47.1709H62.7149L65.1097 52.8354H63.8639ZM60.9721 50.7278H62.9925L62.0049 48.3797H61.9661L60.9785 50.7278H60.9721Z" fill="white"/>
<path class="letter" d="M70.3899 51.0506V47.1646H71.5454V52.8291H70.306L67.4594 48.943H67.4206V52.8291H66.2652V47.1646H67.5046L70.3512 51.0506H70.3899Z" fill="white"/>
<path class="letter" d="M86.3209 47.1646V48.0949H84.3393V52.8291H83.1838V48.0949H81.2021V47.1646H86.3209Z" fill="white"/>
<path class="letter" d="M91.4592 52.8354L91.0073 51.7025H88.1606L87.7088 52.8354H86.4694L88.8642 47.1709H90.3102L92.705 52.8354H91.4592ZM88.5673 50.7278H90.5877L89.6001 48.3797H89.5614L88.5738 50.7278H88.5673Z" fill="white"/>
<path class="letter" d="M98.4822 47.5696L97.9852 48.3354C97.9852 48.3354 97.3913 47.9684 96.6232 47.9684C95.3838 47.9684 94.5576 48.7785 94.5576 49.9937C94.5576 51.2089 95.3838 52.019 96.6232 52.019C97.4494 52.019 98.0691 51.5759 98.0691 51.5759L98.5661 52.3418C98.5661 52.3418 97.7851 52.9873 96.5457 52.9873C94.6479 52.9873 93.3698 51.7342 93.3698 49.9937C93.3698 48.2532 94.6479 47 96.5457 47C97.7463 47 98.4887 47.5696 98.4887 47.5696H98.4822Z" fill="white"/>
<path class="letter" d="M104.466 47.1646V48.0949H102.484V52.8291H101.329V48.0949H99.3472V47.1646H104.466Z" fill="white"/>
<path class="letter" d="M106.854 52.8354H105.699V47.1709H106.854V52.8354Z" fill="white"/>
<path class="letter" d="M113.393 47.5696L112.896 48.3354C112.896 48.3354 112.302 47.9684 111.534 47.9684C110.295 47.9684 109.469 48.7785 109.469 49.9937C109.469 51.2089 110.295 52.019 111.534 52.019C112.361 52.019 112.98 51.5759 112.98 51.5759L113.477 52.3418C113.477 52.3418 112.696 52.9873 111.457 52.9873C109.559 52.9873 108.281 51.7342 108.281 49.9937C108.281 48.2532 109.559 47 111.457 47C112.657 47 113.4 47.5696 113.4 47.5696H113.393Z" fill="white"/>
<path class="letter" d="M119.183 52.8354L118.732 51.7025H115.885L115.433 52.8354H114.194L116.589 47.1709H118.035L120.429 52.8354H119.183ZM116.292 50.7278H118.312L117.324 48.3797H117.286L116.298 50.7278H116.292Z" fill="white"/>
<path class="letter" d="M121.585 47.1646H122.74V51.8987H126V52.8291H121.585V47.1646Z" fill="white"/>
</svg>
