<svg width="20" height="20" viewBox="0 0 20 20" fill="none" xmlns="http://www.w3.org/2000/svg">
<path fill-rule="evenodd" clip-rule="evenodd" d="M9.99968 3.5C8.87893 3.5 7.78335 3.83234 6.85148 4.45499C5.91961 5.07763 5.19329 5.96263 4.76439 6.99806C4.33548 8.03349 4.22325 9.17285 4.44187 10.2721C4.66049 11.3712 5.20012 12.3809 5.99253 13.1734C5.99257 13.1734 5.9926 13.1735 5.99264 13.1735L9.52893 16.709C9.65393 16.8338 9.8234 16.904 10.0001 16.904C10.1768 16.904 10.3463 16.8338 10.4713 16.709L14.0067 13.1735C14.0067 13.1735 14.0067 13.1735 14.0067 13.1735C14.7992 12.381 15.3389 11.3713 15.5575 10.2721C15.7761 9.17285 15.6639 8.03349 15.235 6.99806C14.8061 5.96263 14.0798 5.07763 13.1479 4.45499C12.216 3.83234 11.1204 3.5 9.99968 3.5ZM5.74035 2.79204C7.00112 1.94963 8.48337 1.5 9.99968 1.5C11.516 1.5 12.9982 1.94963 14.259 2.79204C15.5198 3.63445 16.5024 4.83179 17.0827 6.23267C17.663 7.63355 17.8148 9.17504 17.5191 10.6622C17.2233 12.1494 16.4931 13.5155 15.421 14.5877L15.421 14.5877L11.8851 18.1235L11.8848 18.1239C11.3847 18.6234 10.7069 18.904 10.0001 18.904C9.29332 18.904 8.61545 18.6234 8.11543 18.1239L8.11515 18.1236L4.57849 14.5878L4.57839 14.5877C3.50622 13.5155 2.77608 12.1494 2.4803 10.6622C2.18451 9.17504 2.33636 7.63355 2.91664 6.23267C3.49692 4.83179 4.47958 3.63445 5.74035 2.79204ZM9.99968 7.66643C9.17125 7.66643 8.49968 8.338 8.49968 9.16643C8.49968 9.99485 9.17125 10.6664 9.99968 10.6664C10.8281 10.6664 11.4997 9.99485 11.4997 9.16643C11.4997 8.338 10.8281 7.66643 9.99968 7.66643ZM6.49968 9.16643C6.49968 7.23343 8.06668 5.66643 9.99968 5.66643C11.9327 5.66643 13.4997 7.23343 13.4997 9.16643C13.4997 11.0994 11.9327 12.6664 9.99968 12.6664C8.06668 12.6664 6.49968 11.0994 6.49968 9.16643Z" fill="#EC6624"/>
</svg>
