<svg width="192" height="192" viewBox="0 0 192 192" fill="none" xmlns="http://www.w3.org/2000/svg">
<path d="M67.0516 85.9084V37.6655C67.0516 29.9886 70.1012 22.6261 75.5296 17.1977C80.958 11.7694 88.3204 8.71973 95.9973 8.71973C103.674 8.71973 111.037 11.7694 116.465 17.1977C121.893 22.6261 124.943 29.9886 124.943 37.6655V85.9084M41.2995 56.9627H150.705C153.487 56.9623 156.237 57.5637 158.765 58.7255C161.293 59.8872 163.54 61.582 165.352 63.6935C167.164 65.8051 168.498 68.2835 169.262 70.9588C170.026 73.6341 170.203 76.443 169.78 79.193L157.671 157.848C156.62 164.684 153.156 170.917 147.907 175.419C142.657 179.922 135.969 182.396 129.053 182.394H62.9413C56.0271 182.394 49.3414 179.919 44.094 175.416C38.8466 170.914 35.3842 164.682 34.3332 157.848L22.2242 79.193C21.8013 76.443 21.9781 73.6341 22.7424 70.9588C23.5067 68.2835 24.8405 65.8051 26.6524 63.6935C28.4643 61.582 30.7113 59.8872 33.2395 58.7255C35.7676 57.5637 38.5171 56.9623 41.2995 56.9627Z" stroke="#E0E4EB" stroke-width="4.41816" stroke-linecap="round" stroke-linejoin="round"/>
<path d="M95.6611 87.8027L66.7658 127.649L66.625 127.838L78.5258 140.805L78.4319 128.364L76.5071 130.996L73.5495 127.396L95.5672 97.0644L95.6611 96.896L117.796 127.396L114.815 130.996L112.914 128.364L112.82 140.805L124.556 128.028L124.721 127.838L95.6611 87.8027Z" fill="#E0E4EB"/>
<path d="M103.25 116.43V132.301H88.1098V116.43L82.6875 123.208V145.583L88.1098 151.392V137.289H103.25V151.392L108.672 145.583V123.208L103.25 116.43Z" fill="#E0E4EB"/>
</svg>
