<svg width="192" height="192" viewBox="0 0 192 192" fill="none" xmlns="http://www.w3.org/2000/svg">
<path d="M52.7233 52.8499C48.6837 56.8976 45.481 61.7013 43.2979 66.9868C41.1149 72.2722 39.9942 77.9359 40 83.6545C40.0117 95.2036 44.6107 106.275 52.7855 114.433C60.9602 122.591 72.0409 127.168 83.59 127.156C95.1392 127.145 106.211 122.546 114.369 114.371M124.222 99.2303C127.257 91.3707 127.947 82.7995 126.208 74.5558C124.469 66.312 120.376 58.7498 114.424 52.786C108.473 46.8223 100.92 42.7131 92.6795 40.9567C84.4394 39.2003 75.8668 39.8722 68.0009 42.8908M40.0395 40.0228L152.009 151.993" stroke="#F0F2F5" stroke-width="6" stroke-linecap="round" stroke-linejoin="round"/>
</svg>
