<svg width="20" height="20" viewBox="0 0 20 20" fill="none" xmlns="http://www.w3.org/2000/svg">
<path fill-rule="evenodd" clip-rule="evenodd" d="M4.16667 4.33325C3.98986 4.33325 3.82029 4.40349 3.69526 4.52851C3.57593 4.64785 3.50651 4.80776 3.50044 4.97582C3.69125 7.96906 4.96637 10.7907 7.0878 12.9121C9.20922 15.0335 12.0309 16.3087 15.0241 16.4995C15.1922 16.4934 15.3521 16.424 15.4714 16.3047C15.5964 16.1796 15.6667 16.0101 15.6667 15.8333V13.177L12.9193 12.078L12.1075 13.4311C11.8397 13.8773 11.2744 14.0436 10.8077 13.8134C8.80066 12.8236 7.1763 11.1993 6.18647 9.19223C5.95628 8.72548 6.12257 8.16019 6.56884 7.89243L7.9219 7.08059L6.82297 4.33325H4.16667ZM2.28105 3.1143C2.78115 2.6142 3.45942 2.33325 4.16667 2.33325H7.5C7.9089 2.33325 8.27661 2.5822 8.42848 2.96186L10.0951 7.12853C10.2774 7.58424 10.102 8.10489 9.68116 8.35741L8.43195 9.10694C9.06586 10.0945 9.90541 10.9341 10.893 11.568L11.6425 10.3188C11.895 9.89788 12.4157 9.72249 12.8714 9.90478L17.0381 11.5714C17.4177 11.7233 17.6667 12.091 17.6667 12.4999V15.8333C17.6667 16.5405 17.3857 17.2188 16.8856 17.7189C16.3855 18.219 15.7072 18.4999 15 18.4999C14.9798 18.4999 14.9595 18.4993 14.9393 18.4981C11.4449 18.2857 8.14906 16.8018 5.67358 14.3263C3.19811 11.8509 1.7142 8.55499 1.50184 5.06058C1.50061 5.04038 1.5 5.02015 1.5 4.99992C1.5 4.29267 1.78095 3.6144 2.28105 3.1143Z" fill="#EC6624"/>
</svg>
