<svg width="20" height="20" viewBox="0 0 20 20" fill="none" xmlns="http://www.w3.org/2000/svg">
<path fill-rule="evenodd" clip-rule="evenodd" d="M8.59096 4.5131C10.8339 3.93679 13.1314 4.76322 14.4833 6.50047L8.59096 4.5131ZM14.4833 6.50047H12.5018C11.9495 6.50047 11.5018 6.94818 11.5018 7.50047C11.5018 8.05275 11.9495 8.50047 12.5018 8.50047H16.1736C16.1887 8.50081 16.2038 8.50082 16.219 8.50047H16.6685C17.2207 8.50047 17.6685 8.05275 17.6685 7.50047V3.3338C17.6685 2.78152 17.2207 2.3338 16.6685 2.3338C16.1162 2.3338 15.6685 2.78152 15.6685 3.3338V4.80568C13.8017 2.76913 10.906 1.85316 8.09294 2.5761L8.09273 2.57615C6.74483 2.92286 5.51674 3.62995 4.54016 4.62158C3.56358 5.61321 2.87536 6.85197 2.5493 8.20501C2.22324 9.55805 2.27165 10.9743 2.68933 12.3019C3.10701 13.6296 3.87821 14.8184 4.92021 15.7411C5.96222 16.6637 7.23572 17.2853 8.60415 17.5392C9.97257 17.793 11.3843 17.6696 12.6879 17.1821C13.9915 16.6947 15.1378 15.8615 16.0039 14.7721C16.87 13.6826 17.4232 12.3779 17.6042 10.998C17.676 10.4504 17.2903 9.94826 16.7427 9.87645C16.1951 9.80464 15.693 10.1903 15.6212 10.7379C15.4874 11.7579 15.0785 12.7222 14.4384 13.5275C13.7982 14.3327 12.9509 14.9485 11.9874 15.3088C11.0238 15.6691 9.98041 15.7604 8.96896 15.5727C7.95752 15.3851 7.01623 14.9256 6.24605 14.2437C5.47588 13.5618 4.90586 12.683 4.59714 11.7017C4.28842 10.7204 4.25264 9.67363 4.49364 8.67356C4.73464 7.67349 5.24333 6.75788 5.96515 6.02494C6.68691 5.29205 7.59456 4.76944 8.59074 4.51316" fill="white"/>
</svg>
