<svg width="20" height="20" viewBox="0 0 20 20" fill="none" xmlns="http://www.w3.org/2000/svg">
<path fill-rule="evenodd" clip-rule="evenodd" d="M8.33333 3.5C5.66396 3.5 3.5 5.66396 3.5 8.33333C3.5 11.0027 5.66396 13.1667 8.33333 13.1667C11.0027 13.1667 13.1667 11.0027 13.1667 8.33333C13.1667 5.66396 11.0027 3.5 8.33333 3.5ZM1.5 8.33333C1.5 4.55939 4.55939 1.5 8.33333 1.5C12.1073 1.5 15.1667 4.55939 15.1667 8.33333C15.1667 9.85959 14.6663 11.269 13.8206 12.4064L18.2071 16.7929C18.5976 17.1834 18.5976 17.8166 18.2071 18.2071C17.8166 18.5976 17.1834 18.5976 16.7929 18.2071L12.4064 13.8206C11.269 14.6663 9.85959 15.1667 8.33333 15.1667C4.55939 15.1667 1.5 12.1073 1.5 8.33333Z" fill="#354052"/>
</svg>
