<svg width="72" height="30" viewBox="0 0 72 30" fill="none" xmlns="http://www.w3.org/2000/svg">
<path fill-rule="evenodd" clip-rule="evenodd" d="M4.11088 11.6557L4.11203 11.6565C4.07027 11.7224 4.02983 11.7897 3.99072 11.8582C3.60978 12.5624 3.41692 13.3582 3.41692 14.2243C3.41692 15.0905 3.60977 15.9003 3.98834 16.581C4.38357 17.2641 4.91927 17.8086 5.57878 18.2007C6.25019 18.6044 7.0097 18.8086 7.83349 18.8086C8.65727 18.8086 9.43345 18.6044 10.0906 18.1983C10.7501 17.8086 11.2739 17.2641 11.6501 16.5857C12.031 15.905 12.2239 15.1092 12.2239 14.2243C12.2239 14.0916 12.2195 13.9613 12.2109 13.8332V9.65085H8.46658H7.44832C6.66745 9.65085 6.03443 9.01787 6.03443 8.23705C6.03443 7.45622 6.66745 6.82324 7.44832 6.82324H7.83349H8.26688H12.7318H13.4759C14.4623 6.82324 15.2619 7.6228 15.2619 8.6091V14.2243V14.4131V20.1562C15.2619 20.6139 15.1143 20.9895 14.8262 21.2759C14.5357 21.5599 14.1548 21.7054 13.6905 21.7054C13.2262 21.7054 12.8691 21.5622 12.5548 21.2759C12.2667 20.9895 12.1191 20.6139 12.1191 20.1562V19.6325C11.5905 20.163 10.9691 20.5973 10.2691 20.9282C9.36677 21.3742 8.37157 21.5996 7.31206 21.5996C6.0002 21.5996 4.80498 21.2662 3.75978 20.609C2.72171 19.9752 1.88363 19.0879 1.27174 17.9683C0.6789 16.8744 0.378906 15.6139 0.378906 14.2243C0.378906 12.8347 0.707472 11.5601 1.35507 10.4428C1.45612 10.2733 1.56271 10.1088 1.67476 9.94933L1.67152 9.94702L1.66357 9.95819C1.66618 9.95447 1.66888 9.95073 1.67152 9.94702C2.14839 9.27695 3.07813 9.12033 3.74825 9.59717C4.41229 10.0697 4.57212 10.987 4.11088 11.6557Z" fill="white"/>
<path d="M31.3262 1.42956C31.0357 1.14553 30.6547 1 30.1905 1C29.7262 1 29.3691 1.14319 29.0548 1.42956C28.7667 1.71593 28.6191 2.09149 28.6191 2.54922V8.89636C28.0905 8.36587 27.4691 7.93161 26.7691 7.60064C25.8668 7.15465 24.8716 6.92931 23.8121 6.92931C22.5002 6.92931 21.305 7.26263 20.2598 7.91988C19.2217 8.55365 18.3836 9.44093 17.7717 10.5606C17.1789 11.6544 16.8789 12.915 16.8789 14.3046C16.8789 15.6942 17.2075 16.9688 17.8551 18.0861C18.517 19.1964 19.4169 20.093 20.5288 20.7479C21.6597 21.3841 22.9407 21.7056 24.3335 21.7056C25.7263 21.7056 27.0001 21.3841 28.1167 20.7456C29.2262 20.093 30.1167 19.1964 30.7619 18.0861C31.4262 16.9711 31.7619 15.6989 31.7619 14.3046V2.54922C31.7619 2.09149 31.6143 1.71593 31.3262 1.42956ZM24.3335 18.917C23.5097 18.917 22.7502 18.7199 22.0812 18.3326C21.424 17.9288 20.8883 17.3678 20.4907 16.6707C20.1098 15.9665 19.9169 15.1707 19.9169 14.3046C19.9169 13.4384 20.1098 12.6286 20.4883 11.9479C20.8836 11.2648 21.4193 10.7202 22.0788 10.3282C22.7502 9.92449 23.5097 9.72027 24.3335 9.72027C25.1573 9.72027 25.9334 9.92448 26.5906 10.3306C27.2501 10.7202 27.7739 11.2648 28.15 11.9432C28.531 12.6239 28.7238 13.4196 28.7238 14.3046C28.7238 15.1895 28.531 15.9712 28.15 16.6707C27.7715 17.3678 27.2453 17.9265 26.5906 18.3302C25.9358 18.7199 25.1763 18.917 24.3335 18.917Z" fill="white"/>
<path d="M53.7641 12.6879V20.1396C53.7641 20.5833 53.6203 20.9629 53.3373 21.2665C53.0473 21.5607 52.6677 21.7054 52.2079 21.7054C51.7482 21.7054 51.3898 21.5607 51.0903 21.2784C50.7956 20.9629 50.6518 20.5833 50.6518 20.1396V12.6879C50.6518 11.6677 50.4066 10.9109 49.9185 10.4364C49.4234 9.93823 48.7938 9.69624 47.9875 9.69624C47.1811 9.69624 46.4761 9.97856 45.9315 10.5598C45.4009 11.1434 45.1416 11.8741 45.1416 12.7923V20.1396C45.1416 20.5833 44.9978 20.9629 44.7148 21.2665C44.4248 21.5607 44.0452 21.7054 43.5855 21.7054C43.1257 21.7054 42.7673 21.5607 42.4678 21.2784C42.1731 20.9629 42.0293 20.5833 42.0293 20.1396V12.6879C42.0293 11.6677 41.7817 10.9085 41.296 10.4364C40.8009 9.93823 40.1714 9.69624 39.365 9.69624C38.5586 9.69624 37.8536 9.97856 37.309 10.5598C36.7596 11.1434 36.4932 11.8741 36.4932 12.7923V20.1396C36.4932 20.5833 36.3493 20.9629 36.0664 21.2665C35.7764 21.5607 35.3968 21.7054 34.937 21.7054C34.4772 21.7054 34.1188 21.5607 33.8194 21.2784C33.5247 20.9629 33.3809 20.5833 33.3809 20.1396V8.54563C33.3809 8.08064 33.527 7.70104 33.8147 7.41398C34.1188 7.12454 34.4938 6.97982 34.937 6.97982C35.3803 6.97982 35.7764 7.12691 36.0617 7.41635C36.2338 7.58716 36.3541 7.7912 36.4224 8.03081C36.6158 7.87186 36.8209 7.7224 37.0402 7.58955C37.8701 7.08185 38.825 6.82324 39.8813 6.82324C40.9376 6.82324 41.8195 7.05337 42.614 7.5065C43.1469 7.81017 43.6019 8.21823 43.9745 8.71881C44.3706 8.27043 44.8445 7.89084 45.3868 7.5848C46.3016 7.07947 47.3485 6.82324 48.5038 6.82324C49.5224 6.82324 50.4419 7.05337 51.2365 7.5065C52.0358 7.962 52.6583 8.64527 53.0897 9.53255C53.5377 10.3985 53.7641 11.4613 53.7641 12.6879Z" fill="white"/>
<path d="M71.8226 6.60342C71.6245 6.99614 71.3237 7.24841 70.9 7.37325L67.9593 8.29133C67.8039 8.34595 67.6886 8.46558 67.6384 8.62683C67.6109 8.71266 67.6034 8.79589 67.6209 8.87911C67.6359 8.96234 67.6736 9.03776 67.7237 9.08978L69.5888 11.6099C69.8496 11.9637 69.9474 12.359 69.8872 12.8193C69.827 13.2771 69.6214 13.6334 69.2604 13.9039C68.8944 14.1769 68.5008 14.2784 68.0621 14.2185C67.6209 14.1327 67.29 13.9117 67.0493 13.5371L65.3095 10.8869L65.2844 10.8557C65.1841 10.7517 65.0412 10.6945 64.8708 10.6945C64.7003 10.6945 64.5574 10.7777 64.4897 10.9051L62.7674 13.5319C62.5042 13.9091 62.1582 14.1327 61.722 14.2159C61.2758 14.2784 60.8822 14.1769 60.5212 13.9064C60.1777 13.6334 59.9697 13.2745 59.8894 12.8167C59.8293 12.3616 59.9371 11.9715 60.2229 11.6099L62.1031 9.07157L62.1231 9.03516C62.1808 8.91552 62.1858 8.77508 62.1382 8.62683C62.0905 8.47859 62.0053 8.36935 61.8775 8.30173L58.9142 7.37325H58.9067C58.463 7.24581 58.1521 6.99613 57.9541 6.60601C57.751 6.18468 57.7109 5.76336 57.8312 5.32903C57.9716 4.88949 58.2374 4.57479 58.641 4.36673C59.0446 4.15606 59.4457 4.12486 59.8644 4.2705L62.7674 5.37324C62.8502 5.40185 62.9329 5.40705 63.0106 5.39144C63.0883 5.37584 63.161 5.33683 63.2061 5.29001C63.3465 5.18858 63.4243 5.03774 63.4243 4.86609L63.354 1.67231C63.334 1.19116 63.4694 0.808845 63.7727 0.494149C64.071 0.161248 64.432 0 64.8708 0C65.3345 0 65.7056 0.161249 66.0114 0.499352C66.3123 0.811448 66.4577 1.19897 66.4577 1.67751L66.3875 4.87129C66.3875 5.02474 66.4401 5.15998 66.5529 5.27441L66.5855 5.30042C66.7284 5.39925 66.8914 5.42526 67.0518 5.36804L69.9448 4.2705C70.346 4.12746 70.7345 4.15867 71.1357 4.36673C71.5368 4.57479 71.7875 4.88689 71.9128 5.33163C72.0532 5.77116 72.0231 6.18729 71.8226 6.60342Z" fill="white"/>
</svg>
