<svg width="25" height="25" viewBox="0 0 25 25" fill="none" xmlns="http://www.w3.org/2000/svg">
<path fill-rule="evenodd" clip-rule="evenodd" d="M12.5 25C19.4036 25 25 19.4036 25 12.5C25 5.59644 19.4036 0 12.5 0C5.59644 0 0 5.59644 0 12.5C0 19.4036 5.59644 25 12.5 25ZM16.7957 6V7.55224V17.7065H17.6266C17.7256 17.7065 17.8206 17.7446 17.8906 17.8125C17.9607 17.8805 18 17.9726 18 18.0687V18.6378C18 18.7339 17.9607 18.826 17.8906 18.8939C17.8206 18.9618 17.7256 19 17.6266 19H13.332C13.3322 18.9973 13.3323 18.9945 13.3323 18.9918C13.3322 18.9902 13.3322 18.9886 13.332 18.9871V15.9712C13.332 15.8751 13.2927 15.783 13.2227 15.7151C13.1526 15.6472 13.0576 15.609 12.9586 15.609H11.0401C10.991 15.6089 10.9424 15.6182 10.8971 15.6364C10.8517 15.6546 10.8105 15.6812 10.7758 15.7149C10.7411 15.7485 10.7136 15.7885 10.6949 15.8325C10.6761 15.8765 10.6665 15.9236 10.6666 15.9712V19H6.37344C6.32437 19.0001 6.27577 18.9908 6.23043 18.9726C6.18508 18.9544 6.14388 18.9278 6.10918 18.8941C6.07449 18.8605 6.04698 18.8205 6.02825 18.7765C6.00951 18.7325 5.99991 18.6854 6 18.6378V18.0687C6 17.9726 6.03934 17.8805 6.10938 17.8125C6.17941 17.7446 6.2744 17.7065 6.37344 17.7065H7.205V7.55224C7.205 7.14056 7.21912 6 7.21912 6H8.80545H15.1952H16.7957ZM11.0704 14.16C11.025 14.1782 10.9764 14.1875 10.9274 14.1874L8.84946 14.1861C8.75042 14.1861 8.65543 14.148 8.5854 14.08C8.51537 14.0121 8.47602 13.92 8.47602 13.8239V13.2548C8.47602 13.1587 8.51537 13.0666 8.5854 12.9987C8.65543 12.9307 8.75042 12.8926 8.84946 12.8926H10.9274C11.0264 12.8926 11.1214 12.9307 11.1914 12.9987C11.2615 13.0666 11.3008 13.1587 11.3008 13.2548V13.8252C11.3009 13.8728 11.2913 13.9199 11.2726 13.9639C11.2538 14.0079 11.2263 14.0479 11.1916 14.0815C11.1569 14.1152 11.1157 14.1418 11.0704 14.16ZM15.4133 14.0813C15.4833 14.0134 15.5226 13.9213 15.5226 13.8252L15.524 13.2548C15.524 13.1587 15.4846 13.0666 15.4146 12.9987C15.3446 12.9307 15.2496 12.8926 15.1505 12.8926H13.0713C12.9723 12.8926 12.8773 12.9307 12.8072 12.9987C12.7372 13.0666 12.6979 13.1587 12.6979 13.2548V13.8252C12.6979 13.9213 12.7372 14.0134 12.8072 14.0813C12.8773 14.1493 12.9723 14.1874 13.0713 14.1874H15.1492C15.2483 14.1874 15.3432 14.1493 15.4133 14.0813ZM11.1914 11.5408C11.1214 11.6088 11.0264 11.6469 10.9274 11.6469H8.84946C8.75042 11.6469 8.65543 11.6088 8.5854 11.5408C8.51537 11.4729 8.47602 11.3808 8.47602 11.2847V10.7156C8.47602 10.6195 8.51537 10.5274 8.5854 10.4595C8.65543 10.3915 8.75042 10.3534 8.84946 10.3534H10.9274C11.0264 10.3534 11.1214 10.3915 11.1914 10.4595C11.2615 10.5274 11.3008 10.6195 11.3008 10.7156V11.2847C11.3008 11.3808 11.2615 11.4729 11.1914 11.5408ZM15.4133 11.5408C15.4833 11.4729 15.5226 11.3808 15.5226 11.2847L15.524 10.7156C15.524 10.6195 15.4846 10.5274 15.4146 10.4595C15.3446 10.3915 15.2496 10.3534 15.1505 10.3534H13.0713C12.9723 10.3534 12.8773 10.3915 12.8072 10.4595C12.7372 10.5274 12.6979 10.6195 12.6979 10.7156V11.2847C12.6979 11.3808 12.7372 11.4729 12.8072 11.5408C12.8773 11.6088 12.9723 11.6469 13.0713 11.6469H15.1492C15.2483 11.6469 15.3432 11.6088 15.4133 11.5408ZM11.1928 9.00033C11.1227 9.06826 11.0277 9.10642 10.9287 9.10642H8.84946C8.75042 9.10642 8.65543 9.06826 8.5854 9.00033C8.51537 8.93241 8.47602 8.84029 8.47602 8.74423V8.17507C8.47602 8.07902 8.51537 7.98689 8.5854 7.91897C8.65543 7.85104 8.75042 7.81289 8.84946 7.81289H10.9287C11.0277 7.81289 11.1227 7.85104 11.1928 7.91897C11.2628 7.98689 11.3021 8.07902 11.3021 8.17507V8.74423C11.3021 8.84029 11.2628 8.93241 11.1928 9.00033ZM15.4146 9.00033C15.4846 8.93241 15.524 8.84029 15.524 8.74423V8.17507C15.524 8.07902 15.4846 7.98689 15.4146 7.91897C15.3446 7.85104 15.2496 7.81289 15.1505 7.81289H13.0713C12.9723 7.81289 12.8773 7.85104 12.8072 7.91897C12.7372 7.98689 12.6979 8.07902 12.6979 8.17507V8.74423C12.6979 8.84029 12.7372 8.93241 12.8072 9.00033C12.8773 9.06826 12.9723 9.10642 13.0713 9.10642H15.1505C15.2496 9.10642 15.3446 9.06826 15.4146 9.00033Z" fill="#EC6624"/>
</svg>
