<svg width="40" height="40" viewBox="0 0 40 40" fill="none" xmlns="http://www.w3.org/2000/svg">
<rect width="40" height="40" rx="20" fill="#EC6624"/>
<path fill-rule="evenodd" clip-rule="evenodd" d="M23.0793 10.7535C22.0146 10.4586 20.8961 10.4139 19.8112 10.6229C18.7263 10.8318 17.7044 11.2888 16.8254 11.958C15.9464 12.6273 15.2339 13.4907 14.7438 14.4809C14.2537 15.471 13.9991 16.5611 14 17.6659C14.0004 18.2182 13.5531 18.6662 13.0008 18.6667C12.4485 18.6671 12.0004 18.2197 12 17.6675C11.9989 16.2543 12.3245 14.8601 12.9514 13.5936C13.5783 12.3271 14.4895 11.2228 15.6139 10.3667C16.7382 9.51073 18.0453 8.92626 19.4329 8.65898C20.8205 8.39171 22.2512 8.44887 23.6131 8.82601C24.9749 9.20314 26.2312 9.89004 27.2837 10.833C28.3361 11.776 29.1563 12.9496 29.6802 14.262C30.2041 15.5745 30.4174 16.9903 30.3035 18.3988C30.1897 19.8073 29.7517 21.1705 29.0238 22.3817C29.0062 22.411 28.9872 22.4394 28.9667 22.4667C28.2583 23.4112 27.4214 24.252 26.4803 24.9646C25.5759 25.8275 24.877 26.8829 24.4357 28.0529C24.4208 28.0922 24.4035 28.1306 24.3839 28.1677C23.9529 28.9822 23.3471 29.6913 22.61 30.2442C21.8728 30.7972 21.0225 31.1803 20.12 31.3661C19.2174 31.5519 18.285 31.5358 17.3893 31.3191C16.4937 31.1023 15.6571 30.6902 14.9394 30.1122C14.5093 29.7658 14.4414 29.1362 14.7878 28.7061C15.1342 28.276 15.7638 28.2081 16.1939 28.5545C16.6819 28.9475 17.2508 29.2278 17.8598 29.3752C18.4689 29.5226 19.1029 29.5335 19.7167 29.4072C20.3304 29.2808 20.9086 29.0203 21.4099 28.6443C21.8956 28.2799 22.2975 27.8159 22.5886 27.2835C23.1449 25.8375 24.0194 24.5348 25.1477 23.4721C25.1749 23.4465 25.2035 23.4224 25.2333 23.4C26.0281 22.8039 26.7357 22.0998 27.3355 21.308C27.889 20.372 28.2224 19.322 28.31 18.2377C28.3991 17.1364 28.2323 16.0295 27.8227 15.0035C27.4131 13.9774 26.7719 13.0598 25.949 12.3226C25.1262 11.5853 24.144 11.0483 23.0793 10.7535ZM22.1732 15.3365C21.7904 15.1681 21.3714 15.0984 20.9546 15.1338C20.5378 15.1692 20.1366 15.3087 19.7877 15.5393C19.4388 15.77 19.1533 16.0845 18.9574 16.4541C18.7616 16.8237 18.6616 17.2365 18.6666 17.6547C18.6732 18.2069 18.2308 18.66 17.6786 18.6666C17.1263 18.6732 16.6733 18.2309 16.6667 17.6786C16.6577 16.9258 16.8377 16.1827 17.1903 15.5175C17.5429 14.8523 18.0567 14.2861 18.6848 13.8709C19.3128 13.4557 20.035 13.2048 20.7852 13.141C21.5354 13.0772 22.2896 13.2027 22.9787 13.5059C23.6678 13.8091 24.2699 14.2804 24.7297 14.8766C25.1895 15.4727 25.4924 16.1747 25.6106 16.9183C25.7288 17.6618 25.6585 18.4232 25.4063 19.1325C25.154 19.8419 24.7278 20.4766 24.1667 20.9786C23.7551 21.3469 23.1229 21.3117 22.7547 20.9001C22.3864 20.4885 22.4216 19.8563 22.8332 19.488C23.145 19.2092 23.3817 18.8565 23.5219 18.4624C23.662 18.0683 23.701 17.6454 23.6354 17.2323C23.5697 16.8192 23.4014 16.4292 23.146 16.098C22.8905 15.7668 22.5561 15.505 22.1732 15.3365Z" fill="white"/>
</svg>
