<svg width="40" height="40" viewBox="0 0 40 40" fill="none" xmlns="http://www.w3.org/2000/svg">
<path fill-rule="evenodd" clip-rule="evenodd" d="M12 13C12 12.4477 12.4477 12 13 12H27C27.4045 12 27.7691 12.2436 27.9239 12.6173C28.0787 12.991 27.9931 13.4211 27.7071 13.7071L23.9142 17.5L27.7071 21.2929C27.9931 21.5789 28.0787 22.009 27.9239 22.3827C27.7691 22.7564 27.4045 23 27 23H14V29C14 29.5523 13.5523 30 13 30C12.4477 30 12 29.5523 12 29V22V13ZM14 21H24.5858L21.7929 18.2071C21.4024 17.8166 21.4024 17.1834 21.7929 16.7929L24.5858 14H14V21Z" fill="white"/>
</svg>
