<svg width="20" height="20" viewBox="0 0 20 20" fill="none" xmlns="http://www.w3.org/2000/svg">
<path fill-rule="evenodd" clip-rule="evenodd" d="M4.25199 3.22334C4.35834 3.18604 4.47023 3.16699 4.58293 3.16699H15.4163C15.529 3.16699 15.6409 3.18604 15.7472 3.22334C16.0112 3.31594 16.2506 3.46775 16.4469 3.66713C16.6432 3.86651 16.7913 4.10818 16.8797 4.37362C16.9682 4.63905 16.9948 4.92122 16.9573 5.19851C16.9199 5.4758 16.8195 5.74085 16.6639 5.97334C16.6365 6.01431 16.606 6.05319 16.5729 6.08966L12.6663 10.3869V15.8337C12.6663 16.2124 12.4523 16.5587 12.1135 16.7281C11.7747 16.8975 11.3693 16.8609 11.0663 16.6337L7.73293 14.1337C7.48113 13.9448 7.33293 13.6484 7.33293 13.3337V10.3869L3.42633 6.08966C3.39317 6.05319 3.36275 6.01431 3.33532 5.97334C3.17965 5.74084 3.07927 5.4758 3.04186 5.19851C3.00444 4.92123 3.03099 4.63906 3.11947 4.37362C3.20795 4.10817 3.35601 3.86651 3.55232 3.66713C3.74862 3.46775 3.98795 3.31594 4.25199 3.22334ZM5.29046 5.16699L9.07287 9.32765C9.24021 9.51172 9.33293 9.75156 9.33293 10.0003V12.8337L10.6663 13.8337V10.0003C10.6663 9.75156 10.759 9.51172 10.9263 9.32765L14.7087 5.16699H5.29046Z" fill="#354052"/>
</svg>
