<svg width="25" height="25" viewBox="0 0 25 25" fill="none" xmlns="http://www.w3.org/2000/svg">
<path fill-rule="evenodd" clip-rule="evenodd" d="M12.5 25C19.4036 25 25 19.4036 25 12.5C25 5.59644 19.4036 0 12.5 0C5.59644 0 0 5.59644 0 12.5C0 19.4036 5.59644 25 12.5 25ZM11.1778 17.0066H12.4647L13.7248 15.3228H12.6798L13.9646 13.6641L12.5788 11.9553H14.2576L11.3438 8.21358H12.5542L10.283 5L8.01181 8.21358H9.2224L6.3086 11.9553H7.98744L4 17.0066H9.47778V17.7995V19.4387H11.1778V17.7995V17.0066ZM18.4066 14.5745L21 17.755H17.7889V20H16.0889V17.755H12.8268L15.4202 14.5745H14.3283L16.2234 12.1424H15.4361L16.9132 10.0523L18.3905 12.1424H17.6032L19.4985 14.5745H18.4066Z" fill="#EC6624"/>
</svg>
