<svg width="24" height="24" viewBox="0 0 24 24" fill="none" xmlns="http://www.w3.org/2000/svg">
<path fill-rule="evenodd" clip-rule="evenodd" d="M13.2933 4.29278C14.1438 3.4422 15.2975 2.96436 16.5004 2.96436C17.7033 2.96436 18.8569 3.4422 19.7075 4.29278C20.5581 5.14336 21.0359 6.29699 21.0359 7.49989C21.0359 8.70279 20.5581 9.85642 19.7075 10.707L15.7109 14.7036C15.2927 15.1294 14.7939 15.4678 14.2436 15.699C13.6917 15.9309 13.099 16.0504 12.5004 16.0504C11.9017 16.0504 11.309 15.9309 10.7571 15.699C10.2052 15.4671 9.70507 15.1274 9.28608 14.6997C8.89956 14.3053 8.90602 13.6721 9.30051 13.2856C9.695 12.8991 10.3281 12.9055 10.7147 13.3C10.9474 13.5376 11.2253 13.7263 11.5319 13.8552C11.8385 13.984 12.1678 14.0504 12.5004 14.0504C12.833 14.0504 13.1622 13.984 13.4688 13.8552C13.7755 13.7263 14.0533 13.5376 14.2861 13.3L14.2932 13.2927L14.2933 13.2928L18.2933 9.29278C18.7688 8.81728 19.0359 8.17235 19.0359 7.49989C19.0359 6.82742 18.7688 6.1825 18.2933 5.707C17.8178 5.23149 17.1728 4.96436 16.5004 4.96436C15.8279 4.96436 15.183 5.23149 14.7075 5.707L14.2075 6.207C13.8169 6.59752 13.1838 6.59752 12.7933 6.207C12.4027 5.81647 12.4027 5.18331 12.7933 4.79278L13.2933 4.29278ZM9.75711 8.30085C10.309 8.06892 10.9017 7.94946 11.5004 7.94946C12.0991 7.94946 12.6917 8.06892 13.2436 8.30085C13.7956 8.53277 14.2957 8.87249 14.7147 9.30012C15.1012 9.69461 15.0947 10.3277 14.7002 10.7143C14.3057 11.1008 13.6726 11.0943 13.2861 10.6998C13.0533 10.4623 12.7755 10.2735 12.4689 10.1447C12.1622 10.0158 11.833 9.94946 11.5004 9.94946C11.1678 9.94946 10.8385 10.0158 10.5319 10.1447C10.2253 10.2735 9.94743 10.4623 9.71466 10.6998L9.70752 10.7071L9.70748 10.7071L5.70748 14.7071C5.23198 15.1826 4.96484 15.8275 4.96484 16.5C4.96484 17.1724 5.23198 17.8174 5.70748 18.2929C6.18299 18.7684 6.82791 19.0355 7.50038 19.0355C8.17284 19.0355 8.81777 18.7684 9.29327 18.2929L9.79327 17.7929C10.1838 17.4023 10.817 17.4023 11.2075 17.7929C11.598 18.1834 11.598 18.8166 11.2075 19.2071L10.7075 19.7071C9.85691 20.5577 8.70328 21.0355 7.50038 21.0355C6.29748 21.0355 5.14385 20.5577 4.29327 19.7071C3.44269 18.8565 2.96484 17.7029 2.96484 16.5C2.96484 15.2971 3.44269 14.1434 4.29327 13.2929L8.28985 9.29629C8.70807 8.87046 9.20683 8.53208 9.75711 8.30085Z" fill="#9B9EA9"/>
</svg>
