<svg width="28" height="28" viewBox="0 0 28 28" fill="none" xmlns="http://www.w3.org/2000/svg">
<path fill-rule="evenodd" clip-rule="evenodd" d="M1.33398 5.83325C1.33398 5.28097 1.7817 4.83325 2.33398 4.83325H15.1673C15.7196 4.83325 16.1673 5.28097 16.1673 5.83325V5.99992H21.0007C21.3519 5.99992 21.6774 6.18422 21.8581 6.48542L25.3581 12.3188C25.4514 12.4742 25.5007 12.652 25.5007 12.8333V19.8333C25.5007 20.3855 25.0529 20.8333 24.5007 20.8333H23.0147C22.59 22.1856 21.3265 23.1666 19.834 23.1666C18.3414 23.1666 17.078 22.1856 16.6533 20.8333H15.1673H11.348C10.9233 22.1856 9.65986 23.1666 8.16732 23.1666C6.67477 23.1666 5.41134 22.1856 4.98659 20.8333H3.50065C2.94837 20.8333 2.50065 20.3855 2.50065 19.8333V15.1666C2.50065 14.6143 2.94837 14.1666 3.50065 14.1666C4.05294 14.1666 4.50065 14.6143 4.50065 15.1666V18.8333H4.98658C5.41134 17.4809 6.67477 16.4999 8.16732 16.4999C9.65986 16.4999 10.9233 17.4809 11.3481 18.8333H14.1673V12.8333V6.99992V6.83325H2.33398C1.7817 6.83325 1.33398 6.38554 1.33398 5.83325ZM16.1673 7.99992V11.8333H22.7345L20.4345 7.99992H16.1673ZM23.5007 13.8333H16.1673V18.8333H16.6533C17.078 17.4809 18.3414 16.4999 19.834 16.4999C21.3265 16.4999 22.59 17.4809 23.0147 18.8333H23.5007V13.8333ZM2.50065 10.4999C2.50065 9.94763 2.94837 9.49992 3.50065 9.49992H8.16732C8.7196 9.49992 9.16732 9.94763 9.16732 10.4999C9.16732 11.0522 8.7196 11.4999 8.16732 11.4999H3.50065C2.94837 11.4999 2.50065 11.0522 2.50065 10.4999ZM8.16732 18.4999C7.43094 18.4999 6.83398 19.0969 6.83398 19.8333C6.83398 20.5696 7.43094 21.1666 8.16732 21.1666C8.9037 21.1666 9.50065 20.5696 9.50065 19.8333C9.50065 19.0969 8.9037 18.4999 8.16732 18.4999ZM19.834 18.4999C19.0976 18.4999 18.5007 19.0969 18.5007 19.8333C18.5007 20.5696 19.0976 21.1666 19.834 21.1666C20.5704 21.1666 21.1673 20.5696 21.1673 19.8333C21.1673 19.0969 20.5704 18.4999 19.834 18.4999Z" fill="#354052"/>
</svg>
