<svg width="40" height="40" viewBox="0 0 40 40" fill="none" xmlns="http://www.w3.org/2000/svg">
<rect width="40" height="40" rx="20" fill="#EC6624"/>
<path fill-rule="evenodd" clip-rule="evenodd" d="M19.9993 8.5C20.3379 8.50004 20.6534 8.67135 20.8378 8.95523L26.901 18.2886C26.9106 18.3034 26.9199 18.3185 26.9287 18.3339C27.6299 19.5501 27.9987 20.9294 27.998 22.3333C27.9974 23.7372 27.6273 25.1162 26.925 26.3317C26.2227 27.5473 25.2129 28.5567 23.997 29.2584C22.7811 29.9602 21.4019 30.3296 19.998 30.3296C18.5942 30.3296 17.215 29.9602 15.9991 29.2584C14.7832 28.5567 13.7734 27.5473 13.0711 26.3317C12.3688 25.1162 11.9987 23.7372 11.998 22.3333C11.9974 20.9458 12.3576 19.5822 13.043 18.3765C13.0584 18.3464 13.0755 18.317 13.0941 18.2883L19.1608 8.95501C19.3453 8.67118 19.6608 8.49996 19.9993 8.5ZM14.7959 19.34C14.2727 20.2504 13.9976 21.2822 13.998 22.3324C13.9985 23.3853 14.2761 24.4195 14.8028 25.3312C15.3296 26.2429 16.0869 26.9999 16.9988 27.5262C17.9108 28.0525 18.9451 28.3296 19.998 28.3296C21.051 28.3296 22.0853 28.0525 22.9972 27.5262C23.9092 26.9999 24.6665 26.2429 25.1933 25.3312C25.72 24.4195 25.9976 23.3853 25.998 22.3324C25.9985 21.288 25.7264 20.2617 25.2088 19.355L19.999 11.3353L14.7959 19.34Z" fill="white"/>
</svg>
