<svg width="51" height="50" viewBox="0 0 51 50" fill="none" xmlns="http://www.w3.org/2000/svg">
<path fill-rule="evenodd" clip-rule="evenodd" d="M17.9125 9.92202C16.6971 9.79237 15.4679 9.91578 14.3026 10.2845C13.1372 10.6532 12.0607 11.2592 11.141 12.0643C10.2214 12.8695 9.47834 13.8563 8.95879 14.9628C8.43924 16.0692 8.1544 17.2712 8.12221 18.4931C8.09002 19.715 8.31119 20.9303 8.77177 22.0626C9.23236 23.1948 9.92238 24.2194 10.7984 25.0719L10.8083 25.0815L10.8082 25.0815L25.3337 39.4675L28.352 36.4782L25.2704 33.3967C24.6602 32.7865 24.6602 31.7971 25.2704 31.187C25.8806 30.5768 26.8699 30.5768 27.4801 31.187L30.5724 34.2792L33.5854 31.295L30.4787 28.1883C29.8686 27.5781 29.8686 26.5888 30.4787 25.9786C31.0889 25.3684 32.0783 25.3684 32.6885 25.9786L35.8058 29.096L38.8189 26.1118L35.1662 22.4592L36.271 21.3543L35.1662 22.4592C34.216 21.509 32.9273 20.9752 31.5835 20.9752C30.2398 20.9752 28.9511 21.509 28.0009 22.4592L25.9176 24.5425C23.8699 26.5902 20.5472 26.5902 18.4995 24.5425L17.3683 23.4112L17.3681 23.4111C16.6846 22.7274 16.3006 21.8002 16.3006 20.8335C16.3006 19.8667 16.6846 18.9396 17.3681 18.2559L17.3683 18.2557L23.1962 12.4277C22.6501 11.8881 22.0347 11.4205 21.3647 11.0378C20.3034 10.4316 19.1279 10.0517 17.9125 9.92202ZM26.3147 13.7287L19.5781 20.4652C19.4805 20.5629 19.4256 20.6954 19.4256 20.8335C19.4256 20.9715 19.4804 21.1039 19.578 21.2015C19.578 21.2016 19.5781 21.2016 19.5781 21.2017L20.7092 22.3328C21.5365 23.1601 22.8805 23.1601 23.7079 22.3328L25.7912 20.2495L26.896 21.3543L25.7912 20.2494C27.3274 18.7132 29.411 17.8502 31.5835 17.8502C33.7561 17.8502 35.8397 18.7132 37.3759 20.2494L36.3853 21.24L37.3759 20.2495L40.9391 23.8127C41.3125 23.2734 41.6258 22.6929 41.8722 22.0812C42.3275 20.951 42.5446 19.7389 42.51 18.5209C42.4753 17.3029 42.1897 16.1051 41.6708 15.0026C41.152 13.9001 40.4111 12.9165 39.4947 12.1134C38.5782 11.3104 37.5059 10.7051 36.3448 10.3356C35.1837 9.96599 33.9587 9.84007 32.7467 9.96568C31.5347 10.0913 30.3616 10.4657 29.301 11.0655C28.2403 11.6653 27.3149 12.4776 26.5826 13.4515C26.5042 13.5558 26.414 13.6486 26.3147 13.7287ZM41.9329 27.4259C41.9745 27.3927 42.0148 27.357 42.0536 27.3189C43.2298 26.1637 44.1548 24.7781 44.7708 23.249C45.3868 21.7198 45.6806 20.08 45.6337 18.432C45.5869 16.7841 45.2003 15.1636 44.4984 13.672C43.7964 12.1803 42.7941 10.8496 41.5542 9.7631C40.3143 8.67661 38.8635 7.85774 37.2926 7.35775C35.7216 6.85775 34.0644 6.68739 32.4246 6.85733C30.7848 7.02726 29.1977 7.53383 27.7627 8.34534C26.8799 8.84456 26.0664 9.45258 25.3403 10.1534C24.6145 9.44498 23.7998 8.82984 22.9147 8.32428C21.4787 7.50407 19.8884 6.99007 18.244 6.81465C16.5996 6.63924 14.9366 6.8062 13.3599 7.30503C11.7832 7.80386 10.3269 8.62376 9.08259 9.71308C7.83831 10.8024 6.83306 12.1376 6.13013 13.6345C5.42721 15.1314 5.04184 16.7576 4.99829 18.4108C4.95475 20.064 5.25397 21.7082 5.87711 23.2401C6.49937 24.7698 7.43118 26.1542 8.61399 27.3066L24.2342 42.7768C24.8432 43.3799 25.8243 43.3799 26.4332 42.7768L41.9329 27.4259Z" fill="#EC6624"/>
</svg>
