<svg width="50" height="50" viewBox="0 0 50 50" fill="none" xmlns="http://www.w3.org/2000/svg">
<path fill-rule="evenodd" clip-rule="evenodd" d="M22.9167 7.8125C21.4785 7.8125 20.3126 8.97843 20.3126 10.4167C20.3126 11.8549 21.4785 13.0208 22.9167 13.0208H27.0834C28.5217 13.0208 29.6876 11.8549 29.6876 10.4167C29.6876 8.97843 28.5217 7.8125 27.0834 7.8125H22.9167ZM17.4032 8.85417C18.0834 6.44947 20.2943 4.6875 22.9167 4.6875H27.0834C29.7059 4.6875 31.9168 6.44947 32.5969 8.85417H35.4167C36.9362 8.85417 38.3935 9.45777 39.4679 10.5322C40.5423 11.6066 41.1459 13.0639 41.1459 14.5833V39.5833C41.1459 41.1028 40.5423 42.56 39.4679 43.6345C38.3935 44.7089 36.9362 45.3125 35.4167 45.3125H14.5834C13.0639 45.3125 11.6067 44.7089 10.5323 43.6345C9.45785 42.56 8.85425 41.1028 8.85425 39.5833V14.5833C8.85425 13.0639 9.45785 11.6066 10.5323 10.5322C11.6067 9.45777 13.0639 8.85417 14.5834 8.85417H17.4032ZM17.4032 11.9792H14.5834C13.8927 11.9792 13.2304 12.2535 12.742 12.7419C12.2536 13.2303 11.9792 13.8927 11.9792 14.5833V39.5833C11.9792 40.274 12.2536 40.9364 12.742 41.4248C13.2304 41.9131 13.8927 42.1875 14.5834 42.1875H35.4167C36.1074 42.1875 36.7698 41.9131 37.2582 41.4248C37.7465 40.9364 38.0209 40.274 38.0209 39.5833V14.5833C38.0209 13.8927 37.7465 13.2303 37.2582 12.7419C36.7698 12.2535 36.1074 11.9792 35.4167 11.9792H32.5969C31.9168 14.3839 29.7059 16.1458 27.0834 16.1458H22.9167C20.2943 16.1458 18.0834 14.3839 17.4032 11.9792ZM17.1876 29.1667C17.1876 28.3037 17.8871 27.6042 18.7501 27.6042H18.7709C19.6339 27.6042 20.3334 28.3037 20.3334 29.1667C20.3334 30.0296 19.6339 30.7292 18.7709 30.7292H18.7501C17.8871 30.7292 17.1876 30.0296 17.1876 29.1667ZM32.2286 28.0618C32.8388 27.4516 33.8281 27.4516 34.4383 28.0618C35.0485 28.672 35.0485 29.6613 34.4383 30.2715L28.1883 36.5215C27.5781 37.1317 26.5888 37.1317 25.9786 36.5215L23.8952 34.4382C23.285 33.828 23.285 32.8387 23.8952 32.2285C24.5054 31.6183 25.4947 31.6183 26.1049 32.2285L27.0834 33.207L32.2286 28.0618ZM17.1876 35.4167C17.1876 34.5537 17.8871 33.8542 18.7501 33.8542H18.7709C19.6339 33.8542 20.3334 34.5537 20.3334 35.4167C20.3334 36.2796 19.6339 36.9792 18.7709 36.9792H18.7501C17.8871 36.9792 17.1876 36.2796 17.1876 35.4167Z" fill="#EC6624"/>
</svg>
