<svg width="50" height="50" viewBox="0 0 50 50" fill="none" xmlns="http://www.w3.org/2000/svg">
<path fill-rule="evenodd" clip-rule="evenodd" d="M25.0208 7.83569C24.6227 7.83569 24.2285 7.91439 23.8609 8.06727C23.4933 8.22014 23.1595 8.44418 22.8788 8.72649L22.8757 8.72959L21.4173 10.1879L21.4142 10.191C20.2635 11.3353 18.707 11.978 17.0842 11.9789L17.0833 11.9789H15C14.1988 11.9789 13.4304 12.2972 12.8639 12.8637C12.2974 13.4302 11.9792 14.1986 11.9792 14.9997V17.0831L11.9792 17.084C11.9782 18.7067 11.3355 20.2633 10.1913 21.414L10.1882 21.4171L8.72984 22.8754L8.72673 22.8785C8.44442 23.1593 8.22039 23.493 8.06751 23.8606C7.91464 24.2282 7.83594 24.6224 7.83594 25.0206C7.83594 25.4187 7.91464 25.8129 8.06751 26.1805C8.22039 26.5481 8.44442 26.8819 8.72673 27.1626L8.72984 27.1657L10.1882 28.6241L10.1913 28.6272C11.3355 29.7779 11.9782 31.3344 11.9792 32.9572L11.9792 32.9581V35.0414C11.9792 35.8426 12.2974 36.6109 12.8639 37.1775C13.4304 37.744 14.1988 38.0622 15 38.0622H17.0833H17.0842C18.707 38.0632 20.2635 38.7059 21.4142 39.8501L21.4173 39.8532L22.8757 41.3116L22.8788 41.3147C23.1595 41.597 23.4933 41.821 23.8609 41.9739C24.2285 42.1268 24.6227 42.2055 25.0208 42.2055C25.4189 42.2055 25.8131 42.1268 26.1808 41.9739C26.5484 41.821 26.8821 41.597 27.1629 41.3147L27.166 41.3116L28.6243 39.8532L28.6274 39.8501C29.7781 38.7059 31.3346 38.0632 32.9574 38.0622H32.9583H35.0417C35.8428 38.0622 36.6112 37.744 37.1777 37.1775C37.7442 36.6109 38.0625 35.8426 38.0625 35.0414V32.9581V32.9572C38.0634 31.3344 38.7061 29.7779 39.8504 28.6272L39.8535 28.6241L41.3118 27.1657L41.3149 27.1626C41.5972 26.8819 41.8212 26.5481 41.9741 26.1805C42.127 25.8129 42.2057 25.4187 42.2057 25.0206C42.2057 24.6224 42.127 24.2282 41.9741 23.8606C41.8212 23.493 41.5972 23.1593 41.3149 22.8785L41.3118 22.8754L39.8535 21.4171L39.8508 21.4144C38.7051 20.2632 38.0625 18.7043 38.0625 17.0831V14.9997C38.0625 14.1986 37.7442 13.4302 37.1777 12.8637C36.6112 12.2972 35.8428 11.9789 35.0417 11.9789H32.9583C31.337 11.9789 29.7782 11.3363 28.627 10.1906L28.6243 10.1879L27.166 8.72959L27.1629 8.72649C26.8821 8.44418 26.5484 8.22014 26.1808 8.06727C25.8131 7.91439 25.4189 7.83569 25.0208 7.83569ZM22.6609 5.18183C23.4088 4.87081 24.2108 4.71069 25.0208 4.71069C25.8308 4.71069 26.6328 4.87081 27.3807 5.18183C28.1278 5.4925 28.8061 5.94761 29.3768 6.52105C29.3775 6.5217 29.3781 6.52235 29.3788 6.52299L30.8313 7.97553C30.8317 7.97596 30.8322 7.97638 30.8326 7.9768C31.3979 8.53869 32.1635 8.85391 32.9583 8.85391H35.0417C36.6716 8.85391 38.2348 9.50141 39.3874 10.654C40.54 11.8065 41.1875 13.3698 41.1875 14.9997V17.0831C41.1875 17.8779 41.5027 18.6435 42.0646 19.2088C42.065 19.2093 42.0654 19.2097 42.0659 19.2101L43.5184 20.6626C43.5188 20.663 43.5191 20.6633 43.5195 20.6637C44.0933 21.2346 44.5487 21.9133 44.8596 22.6607C45.1706 23.4086 45.3307 24.2106 45.3307 25.0206C45.3307 25.8306 45.1706 26.6326 44.8596 27.3805C44.5489 28.1275 44.0937 28.8059 43.5202 29.3767C43.5196 29.3773 43.519 29.3779 43.5184 29.3785L42.0663 30.8307C42.066 30.831 42.0656 30.8313 42.0653 30.8316C41.5035 31.3971 41.1879 32.1618 41.1875 32.959V35.0414C41.1875 36.6714 40.54 38.2346 39.3874 39.3872C38.2348 40.5397 36.6716 41.1872 35.0417 41.1872H32.9592C32.162 41.1877 31.3973 41.5032 30.8318 42.0651C30.8315 42.0654 30.8312 42.0657 30.8309 42.066L29.3788 43.5182C29.3782 43.5188 29.3776 43.5194 29.3769 43.52C28.8062 44.0935 28.1278 44.5486 27.3807 44.8593C26.6328 45.1703 25.8308 45.3305 25.0208 45.3305C24.2108 45.3305 23.4088 45.1703 22.6609 44.8593C21.9135 44.5485 21.2348 44.0931 20.6639 43.5192C20.6636 43.5189 20.6632 43.5185 20.6629 43.5182L19.2107 42.066C19.2103 42.0656 19.2098 42.0651 19.2094 42.0647C18.6439 41.5031 17.8794 41.1877 17.0824 41.1872H15C13.37 41.1872 11.8068 40.5397 10.6542 39.3872C9.50166 38.2346 8.85415 36.6714 8.85415 35.0414L8.85415 32.959C8.85415 32.9588 8.85415 32.9587 8.85415 32.9586C8.8536 32.1617 8.53816 31.3973 7.97659 30.8319C7.97618 30.8315 7.97577 30.8311 7.97536 30.8307L6.52324 29.3785C6.52259 29.3779 6.52194 29.3772 6.5213 29.3766C5.94785 28.8059 5.49274 28.1275 5.18207 27.3805C4.87105 26.6326 4.71094 25.8306 4.71094 25.0206C4.71094 24.2106 4.87105 23.4086 5.18207 22.6607C5.4928 21.9135 5.94804 21.235 6.52165 20.6642C6.52218 20.6637 6.52271 20.6631 6.52324 20.6626L7.97536 19.2105C7.97583 19.21 7.9763 19.2096 7.97676 19.2091C8.53823 18.6437 8.8536 17.8794 8.85415 17.0826C8.85415 17.0824 8.85415 17.0823 8.85415 17.0822L8.85415 14.9997C8.85415 13.3698 9.50166 11.8065 10.6542 10.654C11.8068 9.50141 13.37 8.85391 15 8.85391L17.0824 8.85391C17.0825 8.85391 17.0827 8.85391 17.0828 8.85391C17.8796 8.85335 18.644 8.53798 19.2093 7.97652C19.2098 7.97605 19.2103 7.97559 19.2107 7.97512L20.6629 6.52299C20.6634 6.52247 20.6639 6.52194 20.6644 6.52141C21.2352 5.9478 21.9137 5.49256 22.6609 5.18183ZM32.3549 19.7283C32.9651 20.3385 32.9651 21.3278 32.3549 21.938L24.0216 30.2713C23.4114 30.8815 22.422 30.8815 21.8119 30.2713L17.6452 26.1047C17.035 25.4945 17.035 24.5051 17.6452 23.8949C18.2554 23.2847 19.2447 23.2847 19.8549 23.8949L22.9167 26.9568L30.1452 19.7283C30.7554 19.1181 31.7447 19.1181 32.3549 19.7283Z" fill="#EC6624"/>
</svg>
