<svg width="51" height="50" viewBox="0 0 51 50" fill="none" xmlns="http://www.w3.org/2000/svg">
<path fill-rule="evenodd" clip-rule="evenodd" d="M3.271 10.4167C3.271 9.5538 3.97055 8.85425 4.8335 8.85425H27.7502C28.6131 8.85425 29.3127 9.5538 29.3127 10.4167V10.9376H38.1668C38.7157 10.9376 39.2243 11.2255 39.5067 11.6962L45.7567 22.1128C45.9024 22.3557 45.9793 22.6336 45.9793 22.9167V35.4167C45.9793 36.2797 45.2798 36.9792 44.4168 36.9792H41.597C40.9169 39.3839 38.706 41.1459 36.0835 41.1459C33.461 41.1459 31.2501 39.3839 30.57 36.9792H27.7502H20.7637C20.0835 39.3839 17.8726 41.1459 15.2502 41.1459C12.6277 41.1459 10.4168 39.3839 9.73666 36.9792H6.91683C6.05388 36.9792 5.35433 36.2797 5.35433 35.4167V27.0834C5.35433 26.2205 6.05388 25.5209 6.91683 25.5209C7.77977 25.5209 8.47933 26.2205 8.47933 27.0834V33.8542H9.73666C10.4168 31.4496 12.6277 29.6876 15.2502 29.6876C17.8726 29.6876 20.0835 31.4496 20.7637 33.8542H26.1877V22.9167V12.5001V11.9792H4.8335C3.97055 11.9792 3.271 11.2797 3.271 10.4167ZM29.3127 14.0626V21.3542H41.6572L37.2822 14.0626H29.3127ZM42.8543 24.4792H29.3127V33.8542H30.57C31.2501 31.4496 33.461 29.6876 36.0835 29.6876C38.706 29.6876 40.9169 31.4496 41.597 33.8542H42.8543V24.4792ZM5.35433 18.7501C5.35433 17.8871 6.05388 17.1876 6.91683 17.1876H15.2502C16.1131 17.1876 16.8127 17.8871 16.8127 18.7501C16.8127 19.613 16.1131 20.3126 15.2502 20.3126H6.91683C6.05388 20.3126 5.35433 19.613 5.35433 18.7501ZM15.2502 32.8126C13.8119 32.8126 12.646 33.9785 12.646 35.4167C12.646 36.855 13.8119 38.0209 15.2502 38.0209C16.6884 38.0209 17.8543 36.855 17.8543 35.4167C17.8543 33.9785 16.6884 32.8126 15.2502 32.8126ZM36.0835 32.8126C34.6453 32.8126 33.4793 33.9785 33.4793 35.4167C33.4793 36.855 34.6453 38.0209 36.0835 38.0209C37.5217 38.0209 38.6877 36.855 38.6877 35.4167C38.6877 33.9785 37.5217 32.8126 36.0835 32.8126Z" fill="#EC6624"/>
</svg>
