<svg width="51" height="50" viewBox="0 0 51 50" fill="none" xmlns="http://www.w3.org/2000/svg">
<path fill-rule="evenodd" clip-rule="evenodd" d="M5.35425 10.4167C5.35425 9.5538 6.0538 8.85425 6.91675 8.85425H44.4167C45.2797 8.85425 45.9792 9.5538 45.9792 10.4167C45.9792 11.2797 45.2797 11.9792 44.4167 11.9792H6.91675C6.0538 11.9792 5.35425 11.2797 5.35425 10.4167ZM8.50598 17.2678C9.32464 16.9949 10.2095 17.4373 10.4824 18.256L14.2084 29.434L17.9344 18.256C18.2073 17.4373 19.0922 16.9949 19.9109 17.2678C20.7295 17.5407 21.172 18.4255 20.8991 19.2442L16.7324 31.7442C16.5197 32.3822 15.9226 32.8126 15.2501 32.8126H13.1667C12.4942 32.8126 11.8971 32.3822 11.6844 31.7442L7.51776 19.2442C7.24488 18.4255 7.68731 17.5407 8.50598 17.2678ZM25.6667 17.1876C26.5297 17.1876 27.2292 17.8871 27.2292 18.7501V31.2501C27.2292 32.113 26.5297 32.8126 25.6667 32.8126C24.8038 32.8126 24.1042 32.113 24.1042 31.2501V18.7501C24.1042 17.8871 24.8038 17.1876 25.6667 17.1876ZM32.4376 18.7501C32.4376 17.8871 33.1371 17.1876 34.0001 17.1876H38.1667C39.6862 17.1876 41.1435 17.7912 42.2179 18.8656C43.2923 19.94 43.8959 21.3973 43.8959 22.9167C43.8959 24.4362 43.2923 25.8935 42.2179 26.9679C41.1435 28.0423 39.6862 28.6459 38.1667 28.6459H35.5626V31.2501C35.5626 32.113 34.863 32.8126 34.0001 32.8126C33.1371 32.8126 32.4376 32.113 32.4376 31.2501V27.0834V18.7501ZM35.5626 25.5209H38.1667C38.8574 25.5209 39.5198 25.2465 40.0082 24.7582C40.4965 24.2698 40.7709 23.6074 40.7709 22.9167C40.7709 22.2261 40.4965 21.5637 40.0082 21.0753C39.5198 20.5869 38.8574 20.3126 38.1667 20.3126H35.5626V25.5209ZM5.35425 39.5834C5.35425 38.7205 6.0538 38.0209 6.91675 38.0209H44.4167C45.2797 38.0209 45.9792 38.7205 45.9792 39.5834C45.9792 40.4464 45.2797 41.1459 44.4167 41.1459H6.91675C6.0538 41.1459 5.35425 40.4464 5.35425 39.5834Z" fill="#EC6624"/>
</svg>
