<svg width="51" height="50" viewBox="0 0 51 50" fill="none" xmlns="http://www.w3.org/2000/svg">
<path fill-rule="evenodd" clip-rule="evenodd" d="M24.5674 4.88816C25.043 4.62061 25.6238 4.62061 26.0994 4.88816L42.7661 14.2632C43.2581 14.5399 43.5626 15.0605 43.5626 15.625V34.375C43.5626 34.9395 43.2581 35.4601 42.7661 35.7368L26.0994 45.1118C25.6238 45.3794 25.043 45.3794 24.5674 45.1118L7.90071 35.7368C7.40872 35.4601 7.10425 34.9395 7.10425 34.375V15.625C7.10425 15.0605 7.40872 14.5399 7.90071 14.2632L24.5674 4.88816ZM10.2292 18.2966L23.7709 25.9138V41.0784L10.2292 33.4612V18.2966ZM26.8959 41.0784L40.4376 33.4612V18.2966L26.8959 25.9138V41.0784ZM25.3334 23.2073L38.813 15.625L33.3904 12.5748L20.4045 20.4347L25.3334 23.2073ZM17.2764 18.6752L30.2624 10.8153L25.3334 8.04273L11.8538 15.625L17.2764 18.6752Z" fill="#EC6624"/>
</svg>
