<svg width="40" height="40" viewBox="0 0 40 40" fill="none" xmlns="http://www.w3.org/2000/svg">
<path fill-rule="evenodd" clip-rule="evenodd" d="M18 12C14.6863 12 12 14.6863 12 18C12 21.3137 14.6863 24 18 24C21.3137 24 24 21.3137 24 18C24 14.6863 21.3137 12 18 12ZM10 18C10 13.5817 13.5817 10 18 10C22.4183 10 26 13.5817 26 18C26 19.8487 25.3729 21.551 24.3199 22.9056L29.7071 28.2929C30.0976 28.6834 30.0976 29.3166 29.7071 29.7071C29.3166 30.0976 28.6834 30.0976 28.2929 29.7071L22.9056 24.3199C21.551 25.3729 19.8487 26 18 26C13.5817 26 10 22.4183 10 18Z" fill="white"/>
</svg>
