<svg width="20" height="20" viewBox="0 0 20 20" fill="none" xmlns="http://www.w3.org/2000/svg">
<path fill-rule="evenodd" clip-rule="evenodd" d="M5.12623 3.45989C5.51675 3.06936 6.14992 3.06936 6.54044 3.45989L9.87377 6.79322C10.2643 7.18374 10.2643 7.81691 9.87377 8.20743C9.48325 8.59796 8.85008 8.59796 8.45956 8.20743L6.83333 6.58121V15.8337C6.83333 16.3859 6.38562 16.8337 5.83333 16.8337C5.28105 16.8337 4.83333 16.3859 4.83333 15.8337V6.58121L3.20711 8.20743C2.81658 8.59796 2.18342 8.59796 1.79289 8.20743C1.40237 7.81691 1.40237 7.18374 1.79289 6.79322L5.12623 3.45989ZM13.1667 4.16699C13.1667 3.61471 13.6144 3.16699 14.1667 3.16699C14.719 3.16699 15.1667 3.61471 15.1667 4.16699V13.4194L16.7929 11.7932C17.1834 11.4027 17.8166 11.4027 18.2071 11.7932C18.5976 12.1837 18.5976 12.8169 18.2071 13.2074L14.8738 16.5408C14.4832 16.9313 13.8501 16.9313 13.4596 16.5408L10.1262 13.2074C9.7357 12.8169 9.7357 12.1837 10.1262 11.7932C10.5168 11.4027 11.1499 11.4027 11.5404 11.7932L13.1667 13.4194V4.16699Z" fill="#354052"/>
</svg>
