<svg width="40" height="40" viewBox="0 0 40 40" fill="none" xmlns="http://www.w3.org/2000/svg">
<rect width="40" height="40" rx="20" fill="#EC6624"/>
<path fill-rule="evenodd" clip-rule="evenodd" d="M19.2929 8.79289C19.6834 8.40237 20.3166 8.40237 20.7071 8.79289L24.2071 12.2929C24.5976 12.6834 24.5976 13.3166 24.2071 13.7071C23.8166 14.0976 23.1834 14.0976 22.7929 13.7071L21 11.9142V16.5C21 17.0523 20.5523 17.5 20 17.5C19.4477 17.5 19 17.0523 19 16.5V11.9142L17.2071 13.7071C16.8166 14.0976 16.1834 14.0976 15.7929 13.7071C15.4024 13.3166 15.4024 12.6834 15.7929 12.2929L19.2929 8.79289ZM19 28.0858V23.5C19 22.9477 19.4477 22.5 20 22.5C20.5523 22.5 21 22.9477 21 23.5V28.0858L22.7929 26.2929C23.1834 25.9024 23.8166 25.9024 24.2071 26.2929C24.5976 26.6834 24.5976 27.3166 24.2071 27.7071L20.7071 31.2071C20.3166 31.5976 19.6834 31.5976 19.2929 31.2071L15.7929 27.7071C15.4024 27.3166 15.4024 26.6834 15.7929 26.2929C16.1834 25.9024 16.8166 25.9024 17.2071 26.2929L19 28.0858Z" fill="white"/>
</svg>
