<svg width="40" height="40" viewBox="0 0 40 40" fill="none" xmlns="http://www.w3.org/2000/svg">
<rect width="40" height="40" rx="20" fill="#EC6624"/>
<path fill-rule="evenodd" clip-rule="evenodd" d="M19.338 8.75105C19.7163 8.41632 20.2849 8.41632 20.6632 8.75105C23.1937 10.9898 26.4964 12.1555 29.8716 12.001C30.3318 11.98 30.7468 12.276 30.8767 12.718C31.4437 14.6467 31.6172 16.6698 31.3869 18.6669C31.1565 20.6641 30.5271 22.5946 29.5359 24.3436C28.5448 26.0927 27.2122 27.6247 25.6173 28.8486C24.0223 30.0724 22.1977 30.9632 20.2517 31.468C20.087 31.5107 19.9142 31.5107 19.7495 31.468C17.8036 30.9632 15.9789 30.0724 14.384 28.8486C12.7891 27.6247 11.4564 26.0927 10.4653 24.3436C9.47415 22.5946 8.84472 20.6641 8.61439 18.6669C8.38407 16.6698 8.55756 14.6467 9.12455 12.718C9.25447 12.276 9.66949 11.98 10.1297 12.001C13.5048 12.1555 16.8075 10.9898 19.338 8.75105ZM10.8511 14.0141C10.5157 15.4617 10.4306 16.958 10.6012 18.4378C10.7048 19.3356 10.9014 20.2178 11.1865 21.0706L19.6495 17.897C19.8759 17.8121 20.1253 17.8121 20.3517 17.897L28.8147 21.0706C29.0999 20.2178 29.2965 19.3356 29.4 18.4378C29.5707 16.958 29.4855 15.4617 29.1501 14.0141C25.8287 13.9861 22.6099 12.8557 20.0006 10.8021C17.3913 12.8557 14.1725 13.9861 10.8511 14.0141ZM28.0358 22.9145L20.0006 19.9013L11.9655 22.9145C12.0425 23.0636 12.1225 23.2113 12.2053 23.3576C13.0643 24.8735 14.2193 26.2012 15.6015 27.2619C16.915 28.2698 18.4082 29.017 20.0006 29.4642C21.593 29.017 23.0863 28.2698 24.3997 27.2619C25.782 26.2012 26.9369 24.8735 27.7959 23.3576C27.8788 23.2113 27.9587 23.0636 28.0358 22.9145Z" fill="white"/>
</svg>
