<svg width="25" height="25" viewBox="0 0 25 25" fill="none" xmlns="http://www.w3.org/2000/svg">
<path fill-rule="evenodd" clip-rule="evenodd" d="M12.5 25C19.4036 25 25 19.4036 25 12.5C25 5.59644 19.4036 0 12.5 0C5.59644 0 0 5.59644 0 12.5C0 19.4036 5.59644 25 12.5 25ZM11.7583 7.51666V3.06086C11.7583 2.90475 11.8203 2.75504 11.9307 2.64465C12.0411 2.53426 12.1908 2.47225 12.3469 2.47225C12.503 2.47225 12.6527 2.53426 12.7631 2.64465C12.8735 2.75504 12.9355 2.90475 12.9355 3.06086V7.51666C12.9355 7.67277 12.8735 7.82249 12.7631 7.93287C12.6527 8.04326 12.503 8.10528 12.3469 8.10528C12.1908 8.10528 12.0411 8.04326 11.9307 7.93287C11.8203 7.82249 11.7583 7.67277 11.7583 7.51666ZM12.9355 21.6335V17.1777C12.9355 17.0216 12.8735 16.8719 12.7631 16.7615C12.6527 16.6511 12.503 16.5891 12.3469 16.5891C12.1908 16.5891 12.0411 16.6511 11.9307 16.7615C11.8203 16.8719 11.7583 17.0216 11.7583 17.1777V21.6335C11.7583 21.7108 11.7735 21.7873 11.8031 21.8587C11.8327 21.9301 11.876 21.995 11.9307 22.0497C11.9854 22.1044 12.0502 22.1477 12.1217 22.1773C12.1931 22.2069 12.2696 22.2221 12.3469 22.2221C12.4242 22.2221 12.5008 22.2069 12.5722 22.1773C12.6436 22.1477 12.7085 22.1044 12.7631 22.0497C12.8178 21.995 12.8611 21.9301 12.8907 21.8587C12.9203 21.7873 12.9355 21.7108 12.9355 21.6335ZM19.1652 11.4298C19.0377 11.3442 18.9488 11.2123 18.9173 11.062C18.6702 9.74195 18.0339 8.52596 17.0902 7.57039C16.1466 6.61482 14.9386 5.96336 13.6218 5.69976C13.4685 5.66984 13.3334 5.58027 13.2462 5.45075C13.159 5.32123 13.1268 5.16237 13.1567 5.00912C13.1867 4.85587 13.2762 4.72079 13.4058 4.63358C13.5353 4.54638 13.6941 4.51419 13.8474 4.54412C15.396 4.85415 16.8165 5.62029 17.9263 6.74403C19.036 7.86777 19.7843 9.29774 20.0749 10.8501C20.0987 11.0018 20.0623 11.1567 19.9734 11.2819C19.8846 11.4071 19.7504 11.4926 19.5994 11.5202C19.4484 11.5479 19.2926 11.5154 19.1652 11.4298ZM5.06409 11.5369C5.21759 11.5649 5.37595 11.5309 5.50435 11.4422C5.63276 11.3535 5.7207 11.2175 5.74884 11.064C5.99536 9.73902 6.63426 8.51864 7.58269 7.56111C8.53113 6.60358 9.74536 5.95306 11.0679 5.69391C11.1463 5.68212 11.2214 5.65465 11.2889 5.61313C11.3563 5.57162 11.4147 5.51692 11.4605 5.4523C11.5063 5.38769 11.5386 5.31449 11.5555 5.2371C11.5723 5.1597 11.5734 5.0797 11.5586 5.00189C11.5438 4.92408 11.5135 4.85005 11.4694 4.78424C11.4253 4.71844 11.3684 4.66221 11.3021 4.61892C11.2357 4.57563 11.1613 4.54617 11.0833 4.53231C11.0054 4.51846 10.9254 4.52048 10.8482 4.53826C9.29243 4.84245 7.86393 5.60701 6.74791 6.73282C5.6319 7.85863 4.87985 9.29375 4.58928 10.8521C4.57541 10.9283 4.5767 11.0064 4.59307 11.082C4.60943 11.1577 4.64056 11.2294 4.68466 11.293C4.72877 11.3566 4.78498 11.4109 4.85009 11.4527C4.91519 11.4946 4.98792 11.5232 5.06409 11.5369ZM10.9574 20.009C10.9199 20.0093 10.8824 20.006 10.8455 19.9992C9.31337 19.7086 7.90251 18.9681 6.79299 17.8722C5.68347 16.7763 4.92559 15.3747 4.61606 13.8462C4.58484 13.6932 4.61567 13.5341 4.70177 13.4039C4.78787 13.2736 4.92219 13.1829 5.07518 13.1517C5.22816 13.1204 5.38729 13.1513 5.51755 13.2374C5.6478 13.3235 5.73852 13.4578 5.76974 13.6108C6.03287 14.9105 6.67737 16.1022 7.62094 17.0339C8.56452 17.9656 9.76436 18.5949 11.0673 18.8416C11.2119 18.8683 11.3412 18.9482 11.4299 19.0655C11.5186 19.1829 11.5601 19.3291 11.5463 19.4756C11.5325 19.622 11.4644 19.7579 11.3554 19.8566C11.2464 19.9554 11.1044 20.0097 10.9574 20.009ZM19.5928 13.1612C19.517 13.1458 19.439 13.1454 19.3631 13.1601C19.2872 13.1748 19.2149 13.2043 19.1504 13.2469C19.0859 13.2895 19.0304 13.3445 18.9871 13.4086C18.9439 13.4726 18.9137 13.5446 18.8982 13.6204C18.6357 14.9158 17.9942 16.104 17.0552 17.0342C16.1162 17.9645 14.9221 18.5948 13.6242 18.8453C13.5447 18.8559 13.4682 18.8826 13.3994 18.9238C13.3305 18.9651 13.2709 19.0199 13.224 19.0851C13.1772 19.1502 13.1442 19.2242 13.127 19.3026C13.1098 19.381 13.1088 19.462 13.124 19.5408C13.1393 19.6195 13.1705 19.6944 13.2158 19.7606C13.261 19.8269 13.3193 19.8832 13.3871 19.9261C13.4549 19.969 13.5307 19.9976 13.61 20.0101C13.6892 20.0227 13.7702 20.0189 13.8479 19.999C15.3738 19.7041 16.7777 18.9629 17.8818 17.8692C18.986 16.7756 19.7405 15.3788 20.0499 13.8558C20.0812 13.7031 20.0507 13.5442 19.965 13.414C19.8793 13.2838 19.7454 13.1929 19.5928 13.1612ZM17.1768 11.7585H21.6326C21.7887 11.7585 21.9385 11.8206 22.0488 11.9309C22.1592 12.0413 22.2212 12.191 22.2212 12.3472C22.2212 12.5033 22.1592 12.653 22.0488 12.7634C21.9385 12.8738 21.7887 12.9358 21.6326 12.9358H17.1768C17.0207 12.9358 16.871 12.8738 16.7606 12.7634C16.6502 12.653 16.5882 12.5033 16.5882 12.3472C16.5882 12.191 16.6502 12.0413 16.7606 11.9309C16.871 11.8206 17.0207 11.7585 17.1768 11.7585ZM7.51642 12.9358C7.59372 12.9358 7.67026 12.9205 7.74167 12.891C7.81309 12.8614 7.87797 12.818 7.93263 12.7634C7.98729 12.7087 8.03065 12.6438 8.06023 12.5724C8.08981 12.501 8.10503 12.4245 8.10503 12.3472C8.10503 12.2699 8.08981 12.1933 8.06023 12.1219C8.03065 12.0505 7.98729 11.9856 7.93263 11.9309C7.87797 11.8763 7.81309 11.8329 7.74167 11.8034C7.67026 11.7738 7.59372 11.7585 7.51642 11.7585H3.06062C2.98332 11.7585 2.90678 11.7738 2.83537 11.8034C2.76395 11.8329 2.69906 11.8763 2.64441 11.9309C2.58975 11.9856 2.54639 12.0505 2.51681 12.1219C2.48723 12.1933 2.47201 12.2699 2.47201 12.3472C2.47201 12.4245 2.48723 12.501 2.51681 12.5724C2.54639 12.6438 2.58975 12.7087 2.64441 12.7634C2.69906 12.818 2.76395 12.8614 2.83537 12.891C2.90678 12.9205 2.98332 12.9358 3.06062 12.9358H7.51642ZM10.8974 10.1775C11.3265 9.89072 11.831 9.73767 12.3471 9.73767C13.0389 9.73871 13.7021 10.014 14.1912 10.5031C14.6804 10.9923 14.9556 11.6554 14.9567 12.3472C14.9567 12.8633 14.8036 13.3678 14.5169 13.797C14.2301 14.2261 13.8226 14.5606 13.3458 14.7581C12.8689 14.9556 12.3443 15.0073 11.8381 14.9066C11.3319 14.8059 10.8669 14.5573 10.5019 14.1924C10.137 13.8274 9.88846 13.3625 9.78777 12.8563C9.68708 12.3501 9.73876 11.8254 9.93627 11.3486C10.1338 10.8717 10.4682 10.4642 10.8974 10.1775ZM11.5514 13.5381C11.7869 13.6955 12.0639 13.7795 12.3471 13.7795C12.7269 13.779 13.0909 13.6279 13.3594 13.3594C13.6279 13.0909 13.7789 12.7269 13.7794 12.3472C13.7794 12.0639 13.6954 11.787 13.5381 11.5514C13.3807 11.3159 13.157 11.1323 12.8953 11.0239C12.6335 10.9155 12.3456 10.8872 12.0677 10.9424C11.7899 10.9977 11.5347 11.1341 11.3344 11.3344C11.1341 11.5347 10.9976 11.7899 10.9424 12.0678C10.8871 12.3456 10.9155 12.6336 11.0239 12.8953C11.1323 13.157 11.3159 13.3807 11.5514 13.5381Z" fill="#EC6624"/>
</svg>
