<svg width="24" height="24" viewBox="0 0 24 24" fill="none" xmlns="http://www.w3.org/2000/svg">
<path fill-rule="evenodd" clip-rule="evenodd" d="M5.02703 10.6068C9.05273 8.77797 11.7327 7.56276 13.0784 6.97321C16.9086 5.30079 17.7137 5.01203 18.2313 5C18.3464 5 18.5994 5.02406 18.7719 5.16844C18.91 5.28876 18.9445 5.44518 18.9675 5.56549C18.9905 5.68581 19.0135 5.93848 18.9905 6.13098C18.7834 8.41702 17.8863 13.9636 17.4262 16.5144C17.2307 17.5972 16.8511 17.9582 16.483 17.9943C15.6779 18.0665 15.0683 17.4408 14.2977 16.9114C13.0784 16.0812 12.3998 15.5639 11.2151 14.7457C9.84637 13.8072 10.732 13.2899 11.5142 12.4477C11.7212 12.2311 15.2523 8.86219 15.3213 8.5614C15.3328 8.5253 15.3328 8.38092 15.2523 8.30873C15.1718 8.23654 15.0568 8.2606 14.9648 8.28467C14.8382 8.30873 12.9059 9.65629 9.14475 12.3153C8.59265 12.7123 8.09807 12.9049 7.64949 12.8928C7.1549 12.8808 6.21174 12.6041 5.49861 12.3634C4.63596 12.0747 3.94584 11.9183 4.00335 11.4129C4.03786 11.1482 4.38292 10.8835 5.02703 10.6068Z" fill="#9B9EA9"/>
</svg>
