<svg width="40" height="40" viewBox="0 0 40 40" fill="none" xmlns="http://www.w3.org/2000/svg">
<rect width="40" height="40" rx="20" fill="#EC6624"/>
<path fill-rule="evenodd" clip-rule="evenodd" d="M17.6436 9.47631C18.2688 8.85119 19.1166 8.5 20.0007 8.5C20.8847 8.5 21.7326 8.85119 22.3577 9.47631C22.9828 10.1014 23.334 10.9493 23.334 11.8333V21.2089C24.1751 21.8207 24.835 22.6549 25.236 23.6229C25.7133 24.7754 25.7971 26.0532 25.4742 27.2581C25.1514 28.463 24.44 29.5277 23.4503 30.2871C22.4607 31.0465 21.2481 31.4581 20.0007 31.4581C18.7532 31.4581 17.5407 31.0465 16.551 30.2871C15.5614 29.5277 14.8499 28.463 14.5271 27.2581C14.2042 26.0532 14.288 24.7754 14.7653 23.6229C15.1663 22.6549 15.8262 21.8207 16.6673 21.2089V16.5022C16.6673 16.5014 16.6673 16.5007 16.6673 16.5C16.6673 16.4993 16.6673 16.4986 16.6673 16.4978V11.8333C16.6673 10.9493 17.0185 10.1014 17.6436 9.47631ZM18.6673 17.5V21.75C18.6673 22.1073 18.4767 22.4374 18.1673 22.616C17.4683 23.0196 16.922 23.6426 16.6131 24.3883C16.3042 25.134 16.25 25.9608 16.4589 26.7405C16.6678 27.5201 17.1282 28.209 17.7685 28.7004C18.4089 29.1918 19.1935 29.4581 20.0007 29.4581C20.8078 29.4581 21.5924 29.1918 22.2328 28.7004C22.8731 28.209 23.3335 27.5201 23.5424 26.7405C23.7513 25.9608 23.6971 25.134 23.3882 24.3883C23.0793 23.6426 22.533 23.0196 21.834 22.616C21.5246 22.4374 21.334 22.1073 21.334 21.75V17.5H18.6673ZM21.334 15.5H18.6673V11.8333C18.6673 11.4797 18.8078 11.1406 19.0578 10.8905C19.3079 10.6405 19.647 10.5 20.0007 10.5C20.3543 10.5 20.6934 10.6405 20.9435 10.8905C21.1935 11.1406 21.334 11.4797 21.334 11.8333V15.5Z" fill="white"/>
</svg>
