<svg width="24" height="24" viewBox="0 0 24 24" fill="none" xmlns="http://www.w3.org/2000/svg">
<path fill-rule="evenodd" clip-rule="evenodd" d="M21.5395 7.73816C21.6802 7.30395 21.5395 7 20.883 7H18.6946C18.1318 7 17.8817 7.275 17.741 7.57895C17.741 7.57895 16.6312 10.0974 15.0524 11.7184C14.5366 12.1961 14.3177 12.3408 14.0363 12.3408C13.8957 12.3408 13.6924 12.1961 13.6924 11.7618V7.73816C13.6924 7.21711 13.5361 7 13.0672 7H9.62823C9.28433 7 9.06549 7.24605 9.06549 7.46316C9.06549 7.95526 9.84707 8.07105 9.94086 9.43158V12.4132C9.94086 13.0645 9.81581 13.1803 9.53444 13.1803C8.79975 13.1803 6.98648 10.6618 5.92353 7.76711C5.70469 7.23158 5.50148 7 4.93874 7H2.75032C2.12505 7 2 7.275 2 7.57895C2 8.11447 2.73469 10.7776 5.45459 14.2947C7.26785 16.6974 9.81581 18 12.1293 18C13.5205 18 13.6924 17.7105 13.6924 17.2184V15.3947C13.6924 14.8158 13.8175 14.7 14.2708 14.7C14.5991 14.7 15.1462 14.8447 16.4436 16.0026C17.9286 17.3776 18.1787 18 19.0072 18H21.1956C21.8209 18 22.1335 17.7105 21.9459 17.1461C21.7427 16.5816 21.0393 15.7566 20.1014 14.7724C19.5856 14.2079 18.8196 13.6145 18.6008 13.3105C18.2725 12.9197 18.3663 12.7461 18.6008 12.4132C18.6008 12.3987 21.2738 8.925 21.5395 7.73816Z" fill="#9B9EA9"/>
</svg>
