<svg width="40" height="40" viewBox="0 0 40 40" fill="none" xmlns="http://www.w3.org/2000/svg">
<rect width="40" height="40" rx="20" fill="#EC6624"/>
<path fill-rule="evenodd" clip-rule="evenodd" d="M21.7004 12.8754C20.9743 12.7434 20.2257 12.7414 19.4987 12.8695C18.7716 12.9977 18.0842 13.2527 17.4753 13.6165C16.245 14.3516 15.4211 15.476 15.1421 16.7189C15.0396 17.1755 14.6343 17.4999 14.1664 17.4999C12.9619 17.4999 11.8153 17.958 10.9765 18.7602C10.1393 19.561 9.67773 20.6374 9.67773 21.7499C9.67773 22.8624 10.1393 23.9388 10.9765 24.7396C11.8153 25.5418 12.9619 25.9999 14.1664 25.9999C14.7187 25.9999 15.1664 26.4476 15.1664 26.9999C15.1664 27.5522 14.7187 27.9999 14.1664 27.9999C12.4595 27.9999 10.814 27.3517 9.5941 26.1849C8.37267 25.0165 7.67773 23.4222 7.67773 21.7499C7.67773 20.0776 8.37267 18.4833 9.5941 17.315C10.6309 16.3232 11.9752 15.7061 13.4033 15.5433C13.9357 14.0392 15.0161 12.756 16.4495 11.8996C17.273 11.4076 18.1913 11.0691 19.1516 10.8999C20.1118 10.7307 21.099 10.7333 22.0582 10.9077C23.0174 11.0821 23.9336 11.4256 24.754 11.9221C25.5745 12.4188 26.2854 13.0603 26.8417 13.8144C27.3982 14.5688 27.7884 15.4205 27.9845 16.3218C28.093 16.8205 28.1405 17.3274 28.1271 17.8332H28.1664C29.5146 17.8332 30.8075 18.3688 31.7608 19.3221C32.7141 20.2754 33.2497 21.5684 33.2497 22.9166C33.2497 24.2648 32.7141 25.5577 31.7608 26.511C30.8075 27.4643 29.5146 27.9999 28.1664 27.9999C27.6141 27.9999 27.1664 27.5522 27.1664 26.9999C27.1664 26.4476 27.6141 25.9999 28.1664 25.9999C28.9841 25.9999 29.7684 25.6751 30.3466 25.0968C30.9249 24.5186 31.2497 23.7343 31.2497 22.9166C31.2497 22.0988 30.9249 21.3146 30.3466 20.7363C29.7684 20.1581 28.9841 19.8332 28.1664 19.8332H26.9997C26.696 19.8332 26.4088 19.6952 26.219 19.4581C26.0292 19.221 25.9575 18.9105 26.024 18.6142C26.1623 17.9978 26.1644 17.364 26.0302 16.747C25.8959 16.1298 25.6266 15.5363 25.2322 15.0016C24.8375 14.4665 24.3246 14 23.7184 13.6331C23.1121 13.2662 22.4266 13.0075 21.7004 12.8754ZM18.8331 20.1666C19.3854 20.1666 19.8331 20.6143 19.8331 21.1666V23.5C19.8331 24.0522 19.3854 24.5 18.8331 24.5C18.2808 24.5 17.8331 24.0522 17.8331 23.5V21.1666C17.8331 20.6143 18.2808 20.1666 18.8331 20.1666ZM23.4998 22.5C24.052 22.5 24.4998 22.9477 24.4998 23.5V25.8333C24.4998 26.3856 24.052 26.8333 23.4998 26.8333C22.9475 26.8333 22.4998 26.3856 22.4998 25.8333V23.5C22.4998 22.9477 22.9475 22.5 23.4998 22.5ZM18.8331 26C19.3854 26 19.8331 26.4477 19.8331 27V29.3333C19.8331 29.8856 19.3854 30.3333 18.8331 30.3333C18.2808 30.3333 17.8331 29.8856 17.8331 29.3333V27C17.8331 26.4477 18.2808 26 18.8331 26ZM23.4998 28.3333C24.052 28.3333 24.4998 28.781 24.4998 29.3333V31.6666C24.4998 32.2189 24.052 32.6666 23.4998 32.6666C22.9475 32.6666 22.4998 32.2189 22.4998 31.6666V29.3333C22.4998 28.781 22.9475 28.3333 23.4998 28.3333Z" fill="white"/>
</svg>
