<svg width="40" height="40" viewBox="0 0 40 40" fill="none" xmlns="http://www.w3.org/2000/svg">
<rect width="40" height="40" rx="20" fill="#EC6624"/>
<path fill-rule="evenodd" clip-rule="evenodd" d="M21.1725 8.55214C21.8907 8.43448 22.6275 8.51923 23.3001 8.79689C23.9728 9.07455 24.5549 9.53414 24.981 10.1241C25.407 10.7141 25.6603 11.4111 25.7124 12.137C25.7645 12.8628 25.6133 13.5889 25.2758 14.2336C24.9383 14.8784 24.4279 15.4164 23.8017 15.7872C23.1785 16.1563 22.4652 16.3454 21.7411 16.3334H11.8333C11.281 16.3334 10.8333 15.8857 10.8333 15.3334C10.8333 14.7811 11.281 14.3334 11.8333 14.3334H21.75L21.7691 14.3336C22.1252 14.3404 22.4761 14.2479 22.7825 14.0664C23.089 13.8849 23.3387 13.6216 23.5039 13.3061C23.6691 12.9906 23.743 12.6353 23.7175 12.2801C23.6921 11.9249 23.5681 11.5838 23.3596 11.2951C23.1511 11.0064 22.8663 10.7815 22.5371 10.6456C22.2079 10.5097 21.8474 10.4682 21.4959 10.5258C21.1445 10.5834 20.816 10.7378 20.5474 10.9716C20.2788 11.2054 20.0806 11.5094 19.9751 11.8496C19.8116 12.3771 19.2513 12.6721 18.7238 12.5085C18.1963 12.345 17.9013 11.7847 18.0649 11.2572C18.2804 10.5621 18.6854 9.94085 19.2343 9.46304C19.7832 8.98523 20.4544 8.66981 21.1725 8.55214ZM28.6159 21.267C28.3095 21.0855 27.9585 20.993 27.6025 20.9998L27.5833 21H9.5C8.94772 21 8.5 20.5523 8.5 20C8.5 19.4477 8.94772 19 9.5 19H27.5745C28.2986 18.988 29.0119 19.1771 29.6351 19.5462C30.2612 19.9171 30.7717 20.455 31.1092 21.0998C31.4467 21.7445 31.5978 22.4706 31.5458 23.1965C31.4937 23.9223 31.2404 24.6193 30.8143 25.2093C30.3882 25.7993 29.8062 26.2589 29.1335 26.5365C28.4608 26.8142 27.724 26.8989 27.0059 26.7813C26.2877 26.6636 25.6165 26.3482 25.0676 25.8704C24.5187 25.3926 24.1137 24.7713 23.8982 24.0762C23.7346 23.5487 24.0296 22.9885 24.5571 22.8249C25.0847 22.6613 25.6449 22.9563 25.8085 23.4838C25.9139 23.824 26.1121 24.128 26.3807 24.3618C26.6493 24.5956 26.9778 24.75 27.3292 24.8076C27.6807 24.8652 28.0412 24.8237 28.3704 24.6878C28.6996 24.5519 28.9844 24.327 29.1929 24.0383C29.4014 23.7496 29.5254 23.4085 29.5509 23.0533C29.5764 22.6981 29.5024 22.3428 29.3372 22.0273C29.1721 21.7118 28.9223 21.4485 28.6159 21.267ZM18.1159 25.9337C17.8095 25.7522 17.4585 25.6597 17.1025 25.6665L17.0833 25.6667H10.6667C10.1144 25.6667 9.66667 25.219 9.66667 24.6667C9.66667 24.1144 10.1144 23.6667 10.6667 23.6667H17.0745C17.7986 23.6547 18.5119 23.8437 19.1351 24.2129C19.7612 24.5837 20.2717 25.1217 20.6092 25.7665C20.9467 26.4112 21.0978 27.1372 21.0458 27.8631C20.9937 28.589 20.7404 29.286 20.3143 29.876C19.8882 30.4659 19.3062 30.9255 18.6335 31.2032C17.9608 31.4809 17.224 31.5656 16.5059 31.4479C15.7877 31.3303 15.1165 31.0149 14.5676 30.537C14.0187 30.0592 13.6137 29.4379 13.3982 28.7429C13.2346 28.2153 13.5296 27.6551 14.0571 27.4915C14.5847 27.328 15.1449 27.623 15.3085 28.1505C15.4139 28.4906 15.6121 28.7947 15.8807 29.0285C16.1493 29.2623 16.4778 29.4167 16.8292 29.4743C17.1807 29.5318 17.5412 29.4904 17.8704 29.3545C18.1996 29.2186 18.4844 28.9937 18.6929 28.705C18.9014 28.4163 19.0254 28.0752 19.0509 27.72C19.0764 27.3648 19.0024 27.0095 18.8372 26.694C18.6721 26.3784 18.4223 26.1152 18.1159 25.9337Z" fill="white"/>
</svg>
