<svg width="32" height="32" viewBox="0 0 32 32" fill="none" xmlns="http://www.w3.org/2000/svg">
<rect width="32" height="32" rx="10" fill="#D7D6D6"/>
<path d="M6.3507 15.6514L10.9488 17.366L12.7413 23.133C12.8192 23.5227 13.2868 23.6006 13.5985 23.3668L16.1703 21.2626C16.4041 21.0288 16.7938 21.0288 17.1055 21.2626L21.7036 24.6138C22.0154 24.8476 22.483 24.6917 22.5609 24.302L25.99 7.936C26.0679 7.54633 25.6782 7.15667 25.2886 7.31253L6.3507 14.6383C5.8831 14.7942 5.8831 15.4956 6.3507 15.6514ZM12.5075 16.5087L21.5477 10.9754C21.7036 10.8975 21.8595 11.1313 21.7036 11.2092L14.2999 18.1453C14.0661 18.3791 13.8323 18.6908 13.8323 19.0805L13.5985 20.9509C13.5985 21.1847 13.2089 21.2626 13.1309 20.9509L12.1957 17.5218C11.9619 17.1322 12.1178 16.6646 12.5075 16.5087Z" fill="#F8F9FA"/>
</svg>
