<svg width="32" height="32" viewBox="0 0 32 32" fill="none" xmlns="http://www.w3.org/2000/svg">
<g clip-path="url(#clip0_4887_84271)">
<path fill-rule="evenodd" clip-rule="evenodd" d="M32 0H0V32H32V0ZM25.4072 20.456C25.353 20.3721 25.0211 19.8806 23.4245 18.5038C22.7156 17.8931 22.3474 17.5832 22.3119 17.2389C22.2637 16.7711 22.8298 16.2399 23.9905 14.8046C25.2167 13.2864 25.7006 11.8874 25.585 11.479C25.5058 11.2001 25.0536 11.2002 24.5653 11.2003L24.5372 11.2003C24.2388 11.2003 23.3064 11.2065 22.5556 11.2115C22.0496 11.2149 21.626 11.2177 21.5346 11.2177C21.4117 11.2177 21.3568 11.2171 21.306 11.2312C21.263 11.2431 21.223 11.2655 21.1471 11.3078C20.9851 11.3979 20.8808 11.5803 20.8808 11.5803C20.8808 11.5803 20.3762 13.2385 19.7418 14.2382C18.4057 16.3457 17.6548 16.1849 17.4357 16.0532C16.9936 15.7878 17.0064 15.0568 17.0172 14.4403C17.0188 14.3483 17.0203 14.2588 17.0203 14.1737C17.0203 13.7909 17.0289 13.4594 17.0363 13.1719C17.0685 11.926 17.0792 11.5084 16.2795 11.3293C15.9541 11.2565 15.7135 11.208 14.8792 11.2003C13.8072 11.1906 13.1855 11.2413 12.7288 11.4388C12.3869 11.5948 12.1185 11.868 12.2791 11.8881C12.4775 11.913 12.9322 12.0732 13.1698 12.374C13.4782 12.763 13.4518 13.6358 13.4518 13.6358C13.4518 13.6358 13.6445 15.6684 13.0535 15.9665C12.6488 16.1724 12.0943 16.1239 10.9024 14.2119C10.2921 13.2323 9.81323 11.696 9.81323 11.696C9.81323 11.696 9.72472 11.4894 9.56557 11.3813C9.37286 11.2496 9.1045 11.2003 9.1045 11.2003L6.2532 11.201C6.2532 11.201 5.82426 11.1789 5.66652 11.3522C5.52735 11.5068 5.6551 11.7605 5.6551 11.7605C5.6551 11.7605 7.81838 16.8005 10.285 19.3024C12.0286 21.0723 13.7765 21.5992 15.3874 21.5992H16.3066C16.8012 21.5992 17.0203 21.4883 17.0203 21.2408V21.2219C17.0203 20.535 17.0202 19.7397 17.6306 19.5624C18.1304 19.417 18.7743 19.9413 19.4492 20.4909C19.765 20.7481 20.0877 21.0108 20.4055 21.2131C21.0172 21.6068 21.733 21.5992 21.733 21.5992H24.6735C24.6735 21.5992 26.0689 21.4751 25.4072 20.456Z" fill="#D7D6D6"/>
</g>
<defs>
<clipPath id="clip0_4887_84271">
<rect width="32" height="32" rx="8" fill="white"/>
</clipPath>
</defs>
</svg>
