<svg width="10" height="17" viewBox="0 0 10 17" fill="none" xmlns="http://www.w3.org/2000/svg">
<path d="M6.375 0C7.31431 0 8.21515 0.373139 8.87934 1.03733C9.54353 1.70152 9.91667 2.60236 9.91667 3.54167V12.0417C9.91667 12.6928 9.78842 13.3376 9.53924 13.9391C9.29006 14.5407 8.92483 15.0873 8.46441 15.5477C8.00398 16.0082 7.45738 16.3734 6.85581 16.6226C6.25423 16.8717 5.60947 17 4.95833 17C4.3072 17 3.66243 16.8717 3.06086 16.6226C2.45929 16.3734 1.91269 16.0082 1.45226 15.5477C0.991838 15.0873 0.62661 14.5407 0.377431 13.9391C0.128251 13.3376 -9.70271e-09 12.6928 0 12.0417V6.375H1.41667V12.0417C1.41667 12.981 1.78981 13.8818 2.454 14.546C3.11819 15.2102 4.01903 15.5833 4.95833 15.5833C5.89764 15.5833 6.79848 15.2102 7.46267 14.546C8.12686 13.8818 8.5 12.981 8.5 12.0417V3.54167C8.5 3.26261 8.44504 2.98628 8.33825 2.72846C8.23145 2.47065 8.07493 2.23639 7.8776 2.03906C7.68028 1.84174 7.44602 1.68521 7.1882 1.57842C6.93039 1.47163 6.65406 1.41667 6.375 1.41667C6.09594 1.41667 5.81962 1.47163 5.5618 1.57842C5.30398 1.68521 5.06972 1.84174 4.8724 2.03906C4.67507 2.23639 4.51855 2.47065 4.41176 2.72846C4.30497 2.98628 4.25 3.26261 4.25 3.54167V12.0417C4.25 12.2295 4.32463 12.4097 4.45747 12.5425C4.5903 12.6754 4.77047 12.75 4.95833 12.75C5.1462 12.75 5.32636 12.6754 5.4592 12.5425C5.59204 12.4097 5.66667 12.2295 5.66667 12.0417V4.25H7.08333V12.0417C7.08333 12.6053 6.85945 13.1458 6.46094 13.5443C6.06242 13.9428 5.52192 14.1667 4.95833 14.1667C4.39475 14.1667 3.85425 13.9428 3.45573 13.5443C3.05722 13.1458 2.83333 12.6053 2.83333 12.0417V3.54167C2.83333 2.60236 3.20647 1.70152 3.87066 1.03733C4.53486 0.373139 5.43569 0 6.375 0V0Z" fill="#808D9A"/>
</svg>
