<svg width="18" height="17" viewBox="0 0 18 17" fill="none" xmlns="http://www.w3.org/2000/svg">
<path d="M16.1578 9.15255L17.1146 3.89034C17.1311 3.79961 17.1274 3.70636 17.1039 3.61719C17.0804 3.52801 17.0376 3.44509 16.9785 3.37429C16.9194 3.30349 16.8455 3.24653 16.762 3.20744C16.6784 3.16836 16.5873 3.1481 16.4951 3.1481H3.7986L3.41421 1.03399C3.36158 0.743793 3.2087 0.481293 2.98226 0.292313C2.75583 0.103333 2.47021 -0.000123988 2.17528 1.11515e-07H0.75462C0.587634 1.11515e-07 0.427488 0.0663349 0.309411 0.184412C0.191335 0.302488 0.125 0.462634 0.125 0.62962C0.125 0.796606 0.191335 0.956752 0.309411 1.07483C0.427488 1.19291 0.587634 1.25924 0.75462 1.25924H2.1752L4.33606 13.1436C4.02865 13.4143 3.80281 13.7654 3.68391 14.1574C3.565 14.5494 3.55773 14.9667 3.66292 15.3626C3.76811 15.7585 3.98159 16.1172 4.27939 16.3985C4.57718 16.6798 4.9475 16.8725 5.34875 16.9549C5.74999 17.0374 6.16628 17.0063 6.55086 16.8652C6.93543 16.7242 7.27306 16.4787 7.52583 16.1563C7.77859 15.834 7.93649 15.4476 7.98178 15.0405C8.02706 14.6333 7.95795 14.2217 7.7822 13.8516H11.986C11.7814 14.283 11.7225 14.7692 11.8181 15.237C11.9137 15.7048 12.1586 16.1289 12.5161 16.4454C12.8735 16.7619 13.3241 16.9538 13.8 16.9922C14.2759 17.0305 14.7514 16.9132 15.1549 16.658C15.5584 16.4027 15.868 16.0233 16.0373 15.5769C16.2065 15.1304 16.2262 14.6411 16.0933 14.1825C15.9604 13.7239 15.6821 13.3209 15.3004 13.0341C14.9186 12.7474 14.4541 12.5923 13.9766 12.5924H5.51573L5.17227 10.7035H14.2994C14.7418 10.7037 15.1702 10.5486 15.5099 10.2651C15.8495 9.98162 16.0789 9.58786 16.1578 9.15255ZM6.73601 14.7961C6.73601 14.9829 6.68062 15.1655 6.57685 15.3208C6.47307 15.4761 6.32557 15.5971 6.153 15.6686C5.98043 15.7401 5.79053 15.7588 5.60733 15.7224C5.42413 15.6859 5.25585 15.596 5.12377 15.4639C4.99169 15.3318 4.90174 15.1635 4.8653 14.9803C4.82886 14.7971 4.84756 14.6072 4.91904 14.4347C4.99052 14.2621 5.11157 14.1146 5.26688 14.0108C5.42219 13.907 5.60479 13.8516 5.79158 13.8516C6.04198 13.8519 6.28204 13.9515 6.45909 14.1286C6.63615 14.3056 6.73574 14.5457 6.73601 14.7961ZM14.9211 14.7961C14.9211 14.9829 14.8657 15.1655 14.7619 15.3208C14.6581 15.4761 14.5106 15.5971 14.3381 15.6686C14.1655 15.7401 13.9756 15.7588 13.7924 15.7224C13.6092 15.6859 13.4409 15.596 13.3088 15.4639C13.1767 15.3318 13.0868 15.1635 13.0504 14.9803C13.0139 14.7971 13.0326 14.6072 13.1041 14.4347C13.1756 14.2621 13.2966 14.1146 13.4519 14.0108C13.6073 13.907 13.7898 13.8516 13.9766 13.8516C14.227 13.8519 14.4671 13.9515 14.6442 14.1286C14.8212 14.3056 14.9208 14.5457 14.9211 14.7961ZM4.02754 4.40734H15.7407L14.9189 8.92738C14.8925 9.07246 14.8161 9.20369 14.7029 9.29817C14.5897 9.39264 14.4469 9.44436 14.2995 9.4443H4.94332L4.02754 4.40734Z" fill="#808D9A"/>
</svg>
