<svg width="17" height="13" viewBox="0 0 17 13" fill="none" xmlns="http://www.w3.org/2000/svg">
<path d="M5.2 1.3H15.6" stroke="#004989" stroke-width="1.5" stroke-linecap="round" stroke-linejoin="round"/>
<path d="M5.2 6.49747H11.7" stroke="#004989" stroke-width="1.5" stroke-linecap="round" stroke-linejoin="round"/>
<path d="M5.2 11.7H15.6" stroke="#004989" stroke-width="1.5" stroke-linecap="round" stroke-linejoin="round"/>
<path fill-rule="evenodd" clip-rule="evenodd" d="M1.2987 2.6C1.9487 2.6 2.5987 1.95 2.5987 1.3C2.5987 0.65 1.9487 0 1.2987 0C0.6487 0 0 0.65 0 1.3C0 1.95 0.6487 2.6 1.2987 2.6ZM1.2987 7.8C1.9487 7.8 2.5987 7.15 2.5987 6.5C2.5987 5.85 1.9487 5.2 1.2987 5.2C0.6487 5.2 0 5.85 0 6.5C0 7.15 0.6487 7.8 1.2987 7.8ZM1.2987 13C1.9487 13 2.5987 12.35 2.5987 11.7C2.5987 11.05 1.9487 10.4 1.2987 10.4C0.6487 10.4 0 11.05 0 11.7C0 12.35 0.6487 13 1.2987 13Z" fill="#004989"/>
</svg>
