<svg width="20" height="18" viewBox="0 0 20 18" fill="none" xmlns="http://www.w3.org/2000/svg">
<path d="M5.80983 10.4198C6.37188 10.4198 6.91516 10.3835 7.42925 10.3159V4.68098C6.91521 4.61345 6.37188 4.57715 5.80983 4.57715C2.60062 4.57715 -0.000976562 5.75708 -0.000976562 7.21266V7.78422C-0.000976562 9.23975 2.60062 10.4198 5.80983 10.4198Z" fill="white" fill-opacity="0.59"/>
<path d="M5.80983 13.3631C6.37188 13.3631 6.91516 13.3268 7.42925 13.2593V11.6076C6.91506 11.6751 6.37203 11.7119 5.80983 11.7119C3.00854 11.7119 0.670438 10.8128 0.121235 9.61621C0.0412545 9.79051 -0.000976562 9.97099 -0.000976562 10.156V10.7276C-0.000976562 12.1831 2.60062 13.3631 5.80983 13.3631Z" fill="white" fill-opacity="0.59"/>
<path d="M7.43023 14.6784V14.55C6.91604 14.6175 6.37301 14.6543 5.81081 14.6543C3.00951 14.6543 0.671414 13.7552 0.122211 12.5586C0.0422311 12.7328 0 12.9133 0 13.0983V13.6699C0 15.1255 2.60159 16.3055 5.81081 16.3055C6.45259 16.3055 7.06987 16.2581 7.64711 16.171C7.50403 15.8783 7.43023 15.5697 7.43023 15.2499V14.6784Z" fill="white" fill-opacity="0.59"/>
<path d="M14.1897 0.114258C10.9805 0.114258 8.37891 1.29419 8.37891 2.74977V3.32133C8.37891 4.77691 10.9805 5.95684 14.1897 5.95684C17.3989 5.95684 20.0005 4.77691 20.0005 3.32133V2.74977C20.0005 1.29419 17.3989 0.114258 14.1897 0.114258Z" fill="white" fill-opacity="0.59"/>
<path d="M14.1897 7.24903C11.3884 7.24903 9.05032 6.34998 8.50112 5.15332C8.42114 5.32757 8.37891 5.50805 8.37891 5.69311V6.26467C8.37891 7.72025 10.9805 8.90018 14.1897 8.90018C17.3989 8.90018 20.0005 7.72025 20.0005 6.26467V5.69311C20.0005 5.50805 19.9583 5.32757 19.8783 5.15332C19.3291 6.34998 16.991 7.24903 14.1897 7.24903Z" fill="white" fill-opacity="0.59"/>
<path d="M14.1897 10.1914C11.3884 10.1914 9.05032 9.29232 8.50112 8.0957C8.42114 8.26996 8.37891 8.45044 8.37891 8.6355V9.20706C8.37891 10.6627 10.9805 11.8426 14.1897 11.8426C17.3989 11.8426 20.0005 10.6627 20.0005 9.20706V8.6355C20.0005 8.45044 19.9583 8.26996 19.8783 8.0957C19.3291 9.29237 16.991 10.1914 14.1897 10.1914Z" fill="white" fill-opacity="0.59"/>
<path d="M14.1897 13.292C11.3884 13.292 9.05032 12.3929 8.50112 11.1963C8.42114 11.3706 8.37891 11.551 8.37891 11.736V12.3076C8.37891 13.7632 10.9805 14.9432 14.1897 14.9432C17.3989 14.9432 20.0005 13.7632 20.0005 12.3076V11.736C20.0005 11.551 19.9583 11.3705 19.8783 11.1963C19.3291 12.3929 16.991 13.292 14.1897 13.292Z" fill="white" fill-opacity="0.59"/>
<path d="M14.1897 16.2334C11.3884 16.2334 9.05032 15.3344 8.50112 14.1377C8.42114 14.312 8.37891 14.4926 8.37891 14.6775V15.249C8.37891 16.7046 10.9805 17.8846 14.1897 17.8846C17.3989 17.8846 20.0005 16.7046 20.0005 15.249V14.6774C20.0005 14.4924 19.9583 14.3119 19.8783 14.1377C19.3291 15.3343 16.991 16.2334 14.1897 16.2334Z" fill="white" fill-opacity="0.59"/>
</svg>
