<svg width="20" height="20" viewBox="0 0 20 20" fill="none" xmlns="http://www.w3.org/2000/svg">
<g clip-path="url(#clip0_2786:58478)">
<path d="M5.80983 11.42C6.37188 11.42 6.91516 11.3837 7.42925 11.3162V5.68124C6.91521 5.61371 6.37188 5.57741 5.80983 5.57741C2.60062 5.57741 -0.000976562 6.75734 -0.000976562 8.21292V8.78448C-0.000976562 10.24 2.60062 11.42 5.80983 11.42Z" fill="#004989"/>
<path d="M5.80983 14.3632C6.37188 14.3632 6.91516 14.3269 7.42925 14.2595V12.6078C6.91506 12.6753 6.37203 12.7121 5.80983 12.7121C3.00854 12.7121 0.670438 11.813 0.121235 10.6164C0.0412545 10.7907 -0.000976562 10.9712 -0.000976562 11.1562V11.7277C-0.000976562 13.1833 2.60062 14.3632 5.80983 14.3632Z" fill="#004989"/>
<path d="M7.43023 15.6786V15.5502C6.91604 15.6178 6.37301 15.6546 5.81081 15.6546C3.00951 15.6546 0.671414 14.7555 0.122211 13.5588C0.0422311 13.7331 0 13.9136 0 14.0986V14.6701C0 16.1258 2.60159 17.3057 5.81081 17.3057C6.45259 17.3057 7.06987 17.2584 7.64711 17.1712C7.50403 16.8786 7.43023 16.5699 7.43023 16.2501V15.6786Z" fill="#004989"/>
<path d="M14.1897 1.11458C10.9805 1.11458 8.37891 2.29451 8.37891 3.75009V4.32165C8.37891 5.77723 10.9805 6.95716 14.1897 6.95716C17.3989 6.95716 20.0005 5.77723 20.0005 4.32165V3.75009C20.0005 2.29451 17.3989 1.11458 14.1897 1.11458Z" fill="#004989"/>
<path d="M14.1897 8.24928C11.3884 8.24928 9.05032 7.35023 8.50112 6.15356C8.42114 6.32782 8.37891 6.50829 8.37891 6.69335V7.26492C8.37891 8.72049 10.9805 9.90042 14.1897 9.90042C17.3989 9.90042 20.0005 8.72049 20.0005 7.26492V6.69335C20.0005 6.50829 19.9583 6.32782 19.8783 6.15356C19.3291 7.35023 16.991 8.24928 14.1897 8.24928Z" fill="#004989"/>
<path d="M14.1897 11.1917C11.3884 11.1917 9.05032 10.2926 8.50112 9.09602C8.42114 9.27028 8.37891 9.45076 8.37891 9.63582V10.2074C8.37891 11.663 10.9805 12.8429 14.1897 12.8429C17.3989 12.8429 20.0005 11.663 20.0005 10.2074V9.63582C20.0005 9.45076 19.9583 9.27028 19.8783 9.09602C19.3291 10.2927 16.991 11.1917 14.1897 11.1917Z" fill="#004989"/>
<path d="M14.1897 14.2926C11.3884 14.2926 9.05032 13.3935 8.50112 12.1968C8.42114 12.3711 8.37891 12.5516 8.37891 12.7366V13.3082C8.37891 14.7638 10.9805 15.9437 14.1897 15.9437C17.3989 15.9437 20.0005 14.7638 20.0005 13.3082V12.7366C20.0005 12.5516 19.9583 12.371 19.8783 12.1968C19.3291 13.3934 16.991 14.2926 14.1897 14.2926Z" fill="#004989"/>
<path d="M14.1897 17.234C11.3884 17.234 9.05032 16.335 8.50112 15.1383C8.42114 15.3126 8.37891 15.4932 8.37891 15.6781V16.2496C8.37891 17.7052 10.9805 18.8852 14.1897 18.8852C17.3989 18.8852 20.0005 17.7052 20.0005 16.2496V15.678C20.0005 15.493 19.9583 15.3125 19.8783 15.1383C19.3291 16.3349 16.991 17.234 14.1897 17.234Z" fill="#004989"/>
</g>
<defs>
<clipPath id="clip0_2786:58478">
<rect width="20" height="20" fill="white"/>
</clipPath>
</defs>
</svg>
