<svg width="17" height="17" viewBox="0 0 17 17" fill="none" xmlns="http://www.w3.org/2000/svg">
<path d="M5.78723 0.542553L5.78723 4.34043L1.98936 4.34043C1.84547 4.34043 1.70747 4.39759 1.60572 4.49934C1.50397 4.60108 1.44681 4.73909 1.44681 4.88298L1.44681 15.9149L0.542553 15.9149C0.398659 15.9149 0.260658 15.9721 0.15891 16.0738C0.0571616 16.1756 -3.00056e-08 16.3136 -2.37158e-08 16.4574C-1.74259e-08 16.6013 0.0571616 16.7393 0.15891 16.8411C0.260659 16.9428 0.398659 17 0.542553 17L16.4574 17C16.6013 17 16.7393 16.9428 16.8411 16.8411C16.9428 16.7393 17 16.6013 17 16.4574C17 16.3136 16.9428 16.1756 16.8411 16.0738C16.7393 15.9721 16.6013 15.9149 16.4574 15.9149L15.5532 15.9149L15.5532 7.7766C15.5532 7.6327 15.496 7.4947 15.3943 7.39295C15.2925 7.2912 15.1545 7.23404 15.0106 7.23404L11.2128 7.23404L11.2128 0.542552C11.2128 0.398658 11.1556 0.260658 11.0539 0.15891C10.9521 0.0571628 10.8141 -4.727e-07 10.6702 -4.6641e-07L6.32979 -2.76684e-07C6.18589 -2.70394e-07 6.04789 0.057163 5.94614 0.15891C5.84439 0.260658 5.78723 0.398658 5.78723 0.542553ZM2.53191 5.42553L5.78723 5.42553L5.78723 15.9149L2.53191 15.9149L2.53191 5.42553ZM14.4681 8.31915L14.4681 15.9149L11.2128 15.9149L11.2128 8.31915L14.4681 8.31915ZM10.1277 1.08511L10.1277 15.9149L6.87234 15.9149L6.87234 1.08511L10.1277 1.08511Z" fill="#808D9A"/>
</svg>
