<svg width="18" height="17" viewBox="0 0 18 17" fill="none" xmlns="http://www.w3.org/2000/svg">
<path d="M5.85464 0.542553L5.85464 4.34043L2.03057 4.34043C1.88569 4.34043 1.74673 4.39759 1.64428 4.49934C1.54183 4.60108 1.48428 4.73909 1.48428 4.88298L1.48428 15.9149L0.573785 15.9149C0.428899 15.9149 0.289947 15.9721 0.187497 16.0738C0.0850464 16.1756 0.0274906 16.3136 0.0274906 16.4574C0.0274906 16.6013 0.0850464 16.7393 0.187497 16.8411C0.289947 16.9428 0.428899 17 0.573786 17L16.5984 17C16.7433 17 16.8823 16.9428 16.9847 16.8411C17.0872 16.7393 17.1447 16.6013 17.1447 16.4574C17.1447 16.3136 17.0872 16.1756 16.9847 16.0738C16.8823 15.9721 16.7433 15.9149 16.5984 15.9149L15.6879 15.9149L15.6879 7.7766C15.6879 7.6327 15.6304 7.4947 15.5279 7.39295C15.4255 7.2912 15.2865 7.23404 15.1417 7.23404L11.3176 7.23404L11.3176 0.542552C11.3176 0.398658 11.26 0.260659 11.1576 0.15891C11.0551 0.0571618 10.9162 -4.727e-07 10.7713 -4.6641e-07L6.40093 -2.76684e-07C6.25604 -2.70394e-07 6.11709 0.057162 6.01464 0.15891C5.91219 0.260659 5.85464 0.398659 5.85464 0.542553Z" fill="#808D9A"/>
</svg>
