<svg width="15" height="11" viewBox="0 0 15 11" fill="none" xmlns="http://www.w3.org/2000/svg">
<path d="M11.5909 9.96875C11.3197 9.96875 11.0595 9.8601 10.8677 9.6667C10.6759 9.47331 10.5682 9.211 10.5682 8.9375C10.5682 8.664 10.6759 8.40169 10.8677 8.2083C11.0595 8.0149 11.3197 7.90625 11.5909 7.90625C11.8622 7.90625 12.1223 8.0149 12.3141 8.2083C12.5059 8.40169 12.6136 8.664 12.6136 8.9375C12.6136 9.211 12.5059 9.47331 12.3141 9.6667C12.1223 9.8601 11.8622 9.96875 11.5909 9.96875ZM12.6136 3.78125L13.95 5.5H10.9091V3.78125H12.6136ZM3.40909 9.96875C3.13785 9.96875 2.87771 9.8601 2.68591 9.6667C2.49411 9.47331 2.38636 9.211 2.38636 8.9375C2.38636 8.664 2.49411 8.40169 2.68591 8.2083C2.87771 8.0149 3.13785 7.90625 3.40909 7.90625C3.68034 7.90625 3.94047 8.0149 4.13227 8.2083C4.32407 8.40169 4.43182 8.664 4.43182 8.9375C4.43182 9.211 4.32407 9.47331 4.13227 9.6667C3.94047 9.8601 3.68034 9.96875 3.40909 9.96875ZM12.9545 2.75H10.9091V0H1.36364C0.606818 0 0 0.611875 0 1.375V8.9375H1.36364C1.36364 9.48451 1.57914 10.0091 1.96274 10.3959C2.34633 10.7827 2.8666 11 3.40909 11C3.95158 11 4.47185 10.7827 4.85545 10.3959C5.23904 10.0091 5.45455 9.48451 5.45455 8.9375H9.54545C9.54545 9.48451 9.76096 10.0091 10.1446 10.3959C10.5282 10.7827 11.0484 11 11.5909 11C12.1334 11 12.6537 10.7827 13.0373 10.3959C13.4209 10.0091 13.6364 9.48451 13.6364 8.9375H15V5.5L12.9545 2.75Z" fill="#808D9A"/>
</svg>
