<svg width="13" height="13" viewBox="0 0 13 13" fill="none" xmlns="http://www.w3.org/2000/svg">
<path d="M1.89133 11.1261C-0.647801 8.6452 -0.6478 4.30353 1.99709 1.8227C3.90147 -0.0380294 6.65211 -0.451463 9.08549 0.478847L10.0376 0.995724L11.0956 1.71937L9.40286 3.37333L8.76811 2.9599C7.28698 2.02959 5.17098 2.23625 3.79571 3.58011C2.20871 5.13074 2.10296 7.92178 3.79571 9.57574C5.38271 11.2297 8.23923 11.2297 9.72036 9.57574C10.1435 9.16231 10.5667 8.54199 10.6725 7.92178V7.71501H6.86385V5.64761H12.8942L13 6.16449V7.61168C12.8942 8.95553 12.3652 10.2994 11.413 11.2297C8.87398 13.6071 4.43047 13.6071 1.89133 11.1261Z" fill="white"/>
</svg>
