<svg width="20" height="17" viewBox="0 0 20 17" fill="none" xmlns="http://www.w3.org/2000/svg">
<path d="M9.5625 17C9.44127 17 9.32207 16.9689 9.2163 16.9097C8.84 16.699 0 11.6754 0 5.3125C0.000370456 4.19774 0.351292 3.11131 1.00311 2.20696C1.65492 1.30262 2.57463 0.626144 3.63207 0.273271C4.68951 -0.0796019 5.83115 -0.0910058 6.89543 0.240673C7.95972 0.572352 8.89275 1.23032 9.5625 2.12146C10.2322 1.23032 11.1653 0.572352 12.2296 0.240673C13.2938 -0.0910058 14.4355 -0.0796019 15.4929 0.273271C16.5504 0.626144 17.4701 1.30262 18.1219 2.20696C18.7737 3.11131 19.1246 4.19774 19.125 5.3125C19.125 8.01878 17.5566 10.8025 14.4635 13.5864C13.0604 14.844 11.5345 15.9574 9.90861 16.9097C9.80287 16.9689 9.68369 17 9.5625 17ZM5.3125 1.41667C4.27962 1.41784 3.28938 1.82867 2.55902 2.55903C1.82867 3.28938 1.41784 4.27962 1.41667 5.3125C1.41667 10.204 7.96698 14.496 9.56223 15.4682C11.1569 14.4949 17.7083 10.1967 17.7083 5.3125C17.7081 4.41208 17.396 3.53952 16.8252 2.84317C16.2543 2.14683 15.4599 1.66967 14.577 1.49281C13.6941 1.31596 12.7773 1.45033 11.9822 1.87308C11.1872 2.29583 10.5632 2.98086 10.2161 3.81172C10.1623 3.94067 10.0715 4.0508 9.95516 4.12827C9.83886 4.20573 9.70224 4.24706 9.5625 4.24706C9.42276 4.24706 9.28614 4.20573 9.16984 4.12827C9.05353 4.0508 8.96274 3.94067 8.90888 3.81172C8.61354 3.10155 8.1142 2.49493 7.47403 2.06861C6.83386 1.64228 6.08163 1.4154 5.3125 1.41667Z" fill="#808D9A"/>
</svg>
