<svg width="20" height="18" viewBox="0 0 20 18" fill="none" xmlns="http://www.w3.org/2000/svg">
<path d="M10.3716 17.5C10.2495 17.5 10.1295 17.4689 10.023 17.4097C9.64407 17.199 0.743109 12.1754 0.743109 5.8125C0.743482 4.69774 1.09682 3.61131 1.75314 2.70696C2.40945 1.80262 3.33549 1.12614 4.40023 0.773272C5.46497 0.420399 6.61448 0.408995 7.6861 0.740674C8.75772 1.07235 9.69719 1.73032 10.3716 2.62146C11.0459 1.73032 11.9854 1.07235 13.057 0.740674C14.1286 0.408995 15.2781 0.420399 16.3429 0.773272C17.4076 1.12614 18.3337 1.80262 18.99 2.70696C19.6463 3.61131 19.9996 4.69774 20 5.8125C20 8.51878 18.4208 11.3025 15.3063 14.0864C13.8936 15.344 12.3571 16.4574 10.7201 17.4097C10.6136 17.4689 10.4936 17.5 10.3716 17.5Z" fill="#808D9A"/>
</svg>
