<svg width="20" height="9" viewBox="0 0 20 9" fill="none" xmlns="http://www.w3.org/2000/svg">
<path d="M4.37483 8.62741C3.59193 8.62726 2.82341 8.43606 2.14945 8.07375C1.47549 7.71145 0.920783 7.1913 0.543193 6.56759C0.165603 5.94388 -0.0210338 5.23945 0.00275257 4.52778C0.0265389 3.81612 0.259877 3.1233 0.678424 2.52159C1.09697 1.91989 1.68539 1.43135 2.38231 1.10693C3.07922 0.78252 3.85909 0.634121 4.64055 0.677219C5.42202 0.720316 6.17646 0.953329 6.82515 1.35195C7.47385 1.75057 7.99305 2.3002 8.32858 2.94349H17.4998L19.3748 4.64867L17.4998 6.35384L16.2498 5.21706L14.9998 6.35384L13.7498 5.21706L12.4998 6.35384L11.2498 5.21706L9.99983 6.35384H8.32858C7.9737 7.03424 7.41377 7.60907 6.71389 8.01154C6.014 8.414 5.20289 8.62757 4.37483 8.62741ZM3.12483 5.78545C3.45635 5.78545 3.77429 5.66568 4.00871 5.45249C4.24313 5.23931 4.37483 4.95016 4.37483 4.64867C4.37483 4.34717 4.24313 4.05803 4.00871 3.84484C3.77429 3.63165 3.45635 3.51188 3.12483 3.51188C2.79331 3.51188 2.47537 3.63165 2.24095 3.84484C2.00653 4.05803 1.87483 4.34717 1.87483 4.64867C1.87483 4.95016 2.00653 5.23931 2.24095 5.45249C2.47537 5.66568 2.79331 5.78545 3.12483 5.78545Z" fill="black"/>
</svg>
