<svg width="21" height="20" viewBox="0 0 21 20" fill="none" xmlns="http://www.w3.org/2000/svg">
<path d="M10.7831 4.28577C10.0767 4.28577 9.38624 4.49523 8.79892 4.88766C8.2116 5.28009 7.75384 5.83788 7.48353 6.49047C7.21322 7.14306 7.14249 7.86116 7.2803 8.55395C7.4181 9.24673 7.75825 9.8831 8.25772 10.3826C8.75719 10.882 9.39356 11.2222 10.0863 11.36C10.7791 11.4978 11.4972 11.4271 12.1498 11.1568C12.8024 10.8865 13.3602 10.4287 13.7526 9.84137C14.1451 9.25406 14.3545 8.56356 14.3545 7.85719C14.3545 6.90999 13.9783 6.00159 13.3085 5.33181C12.6387 4.66204 11.7303 4.28577 10.7831 4.28577ZM10.7831 10.0001C10.3593 10.0001 9.94498 9.87437 9.59259 9.63892C9.2402 9.40345 8.96555 9.06879 8.80336 8.67723C8.64117 8.28567 8.59873 7.85482 8.68142 7.43914C8.7641 7.02347 8.96819 6.64165 9.26787 6.34197C9.56755 6.04228 9.94938 5.83819 10.365 5.75551C10.7807 5.67283 11.2116 5.71527 11.6031 5.87745C11.9947 6.03964 12.3294 6.3143 12.5648 6.66669C12.8003 7.01908 12.926 7.43338 12.926 7.85719C12.9254 8.42534 12.6994 8.97006 12.2977 9.3718C11.896 9.77354 11.3512 9.99948 10.7831 10.0001Z" fill="#808D9A"/>
<path d="M10.7832 0C8.80539 0 6.87199 0.58649 5.2275 1.6853C3.58301 2.78412 2.30129 4.3459 1.54441 6.17316C0.787536 8.00043 0.589503 10.0111 0.975355 11.9509C1.36121 13.8907 2.31361 15.6725 3.71214 17.0711C5.11066 18.4696 6.89249 19.422 8.8323 19.8078C10.7721 20.1937 12.7828 19.9957 14.61 19.2388C16.4373 18.4819 17.9991 17.2002 19.0979 15.5557C20.1967 13.9112 20.7832 11.9778 20.7832 10C20.7802 7.34876 19.7256 4.80698 17.8509 2.93227C15.9762 1.05756 13.4344 0.0030248 10.7832 0ZM6.49749 17.4121V16.4286C6.49806 15.8604 6.72401 15.3157 7.12575 14.914C7.52749 14.5122 8.0722 14.2863 8.64035 14.2857H12.9261C13.4942 14.2863 14.0389 14.5122 14.4407 14.914C14.8424 15.3157 15.0684 15.8604 15.0689 16.4286V17.4121C13.7683 18.1716 12.2893 18.5718 10.7832 18.5718C9.27712 18.5718 7.79809 18.1716 6.49749 17.4121ZM16.4918 16.3757C16.4775 15.4388 16.0958 14.545 15.4289 13.8868C14.7619 13.2287 13.8631 12.8589 12.9261 12.8571H8.64035C7.70334 12.8589 6.80452 13.2287 6.13756 13.8868C5.47059 14.545 5.08887 15.4388 5.07464 16.3757C3.77932 15.2191 2.86587 13.6963 2.45523 12.009C2.04459 10.3218 2.15614 8.54953 2.77509 6.92704C3.39405 5.30455 4.49122 3.90833 5.92133 2.92326C7.35144 1.93819 9.04702 1.41073 10.7836 1.41073C12.5201 1.41073 14.2157 1.93819 15.6458 2.92326C17.0759 3.90833 18.1731 5.30455 18.792 6.92704C19.411 8.54953 19.5225 10.3218 19.1119 12.009C18.7013 13.6963 17.7878 15.2191 16.4925 16.3757H16.4918Z" fill="#808D9A"/>
</svg>
