<svg width="28" height="17" viewBox="0 0 28 17" fill="none" xmlns="http://www.w3.org/2000/svg">
<path fill-rule="evenodd" clip-rule="evenodd" d="M14.0599 16.0839H15.6878C15.6878 16.0839 16.1762 15.9987 16.4204 15.7433C16.6646 15.4878 16.6646 14.9769 16.6646 14.9769C16.6646 14.9769 16.6646 12.7629 17.6413 12.4223C18.6181 12.0817 19.9204 14.6363 21.2227 15.5729C22.1995 16.3393 22.932 16.169 22.932 16.169L26.5135 16.0839C26.5135 16.0839 28.3856 15.9987 27.4902 14.3808C27.4088 14.2957 27.0018 13.2738 24.8041 11.145C22.5251 8.93105 22.8506 9.35682 25.5367 5.52495C27.1646 3.22584 27.8158 1.8634 27.653 1.18218C27.4902 0.58611 26.2693 0.756415 26.2693 0.756415H22.1995C22.1995 0.756415 21.8739 0.671262 21.7111 0.841567C21.4669 1.01187 21.3855 1.26733 21.3855 1.26733C21.3855 1.26733 20.7344 3.05553 19.9204 4.58828C18.1297 7.73892 17.3971 7.90922 17.1529 7.73892C16.5018 7.31316 16.6646 5.86556 16.6646 4.92889C16.6646 1.8634 17.1529 0.586109 15.7692 0.245499C15.3622 0.160347 15.0366 0.0751953 13.8971 0.0751953C12.432 0.0751953 11.211 0.075195 10.5599 0.415805C10.0715 0.671262 9.74592 1.18218 9.9901 1.18218C10.2343 1.18218 10.8855 1.35248 11.211 1.77825C11.5366 2.54462 11.5366 3.8219 11.5366 3.8219C11.5366 3.8219 11.7808 7.48346 10.9669 7.90922C10.3971 8.24983 9.66452 7.56861 8.0366 4.67343C7.22264 3.22584 6.57148 1.52279 6.57148 1.52279C6.57148 1.52279 6.49008 1.18218 6.24589 1.01187C6.00171 0.841568 5.59473 0.756415 5.59473 0.756415H1.76912C1.76912 0.756415 1.19935 0.756416 0.955164 1.01187C0.792373 1.26733 0.955164 1.69309 0.955164 1.69309C0.955164 1.69309 3.96681 9.01621 7.38544 12.7629C10.5599 16.3393 14.0599 16.0839 14.0599 16.0839Z" fill="white"/>
</svg>
