<svg width="60" height="60" viewBox="0 0 60 60" fill="none" xmlns="http://www.w3.org/2000/svg">
<g clip-path="url(#clip0_2193_92)">
<path d="M34.2203 47.8127H1.40819C0.890009 47.8127 0.470703 47.3934 0.470703 46.8752V6.56322C0.470703 6.04458 0.890009 5.62573 1.40819 5.62573H46.4076C46.9263 5.62573 47.3451 6.04458 47.3451 6.56322V31.8754C47.3451 32.3936 46.9263 32.8129 46.4076 32.8129C45.8894 32.8129 45.4701 32.3936 45.4701 31.8754V7.50071H2.34568V45.9377H34.2203C34.7389 45.9377 35.1578 46.3566 35.1578 46.8752C35.1578 47.3934 34.7389 47.8127 34.2203 47.8127Z" fill="#004989"/>
<path d="M46.4061 57.1877C39.1689 57.1877 33.2812 51.3 33.2812 44.0629C33.2812 36.8253 39.1689 30.938 46.4061 30.938C53.6437 30.938 59.5309 36.8253 59.5309 44.0629C59.5309 51.3 53.6437 57.1877 46.4061 57.1877ZM46.4061 32.813C40.203 32.813 35.1562 37.8593 35.1562 44.0629C35.1562 50.266 40.203 55.3127 46.4061 55.3127C52.6096 55.3127 57.6559 50.266 57.6559 44.0629C57.6559 37.8593 52.6096 32.813 46.4061 32.813Z" fill="#004989"/>
<path d="M46.4061 60C39.1689 60 33.2812 54.1123 33.2812 46.8752C33.2812 46.3566 33.7006 45.9377 34.2187 45.9377C34.7374 45.9377 35.1562 46.3566 35.1562 46.8752C35.1562 53.0783 40.203 58.125 46.4061 58.125C52.6096 58.125 57.6559 53.0783 57.6559 46.8752C57.6559 46.3566 58.0752 45.9377 58.5934 45.9377C59.1121 45.9377 59.5309 46.3566 59.5309 46.8752C59.5309 54.1123 53.6437 60 46.4061 60Z" fill="#004989"/>
<path d="M1.40553 7.50094C1.19358 7.50094 0.981637 7.42952 0.805398 7.28441C0.408975 6.95253 0.354501 6.36065 0.685464 5.96239L5.37296 0.337392C5.70484 -0.0599472 6.29353 -0.11259 6.69407 0.217458C7.09141 0.549336 7.14497 1.13985 6.814 1.53811L2.1265 7.16311C1.94111 7.38649 1.67469 7.50094 1.40553 7.50094Z" fill="#004989"/>
<path d="M46.408 7.50089C46.1389 7.50089 45.8729 7.38645 45.6861 7.16397L40.9986 1.53897C40.6668 1.14072 40.7212 0.549288 41.1186 0.218324C41.5182 -0.112639 42.1087 -0.0590803 42.4397 0.338259L47.1272 5.96326C47.4591 6.36151 47.4046 6.9534 47.0072 7.28436C46.8319 7.42948 46.62 7.50089 46.408 7.50089Z" fill="#004989"/>
<path d="M41.7183 1.87589H6.09374C5.57556 1.87589 5.15625 1.45659 5.15625 0.938404C5.15625 0.419764 5.57556 0.000915527 6.09374 0.000915527H41.7183C42.2369 0.000915527 42.6558 0.419764 42.6558 0.938404C42.6558 1.45659 42.2369 1.87589 41.7183 1.87589Z" fill="#004989"/>
<path d="M20.1572 7.50094C20.1105 7.50094 20.0633 7.49682 20.0166 7.49041C19.5049 7.41259 19.1524 6.93468 19.2293 6.42245L20.0784 0.797444C20.1563 0.285664 20.6328 -0.0590318 21.1464 0.0100905C21.6582 0.0879104 22.0107 0.566274 21.9338 1.07805L21.0846 6.70306C21.0132 7.16814 20.6131 7.50094 20.1572 7.50094Z" fill="#004989"/>
<path d="M27.6551 7.50091C27.2051 7.50091 26.8078 7.17544 26.7318 6.71722L25.7943 1.09222C25.7087 0.581812 26.0538 0.0984133 26.5647 0.0137271C27.0769 -0.0750791 27.5585 0.273737 27.6432 0.784601L28.5807 6.4096C28.6658 6.91955 28.3207 7.40341 27.8098 7.48763C27.7572 7.49679 27.7068 7.50091 27.6551 7.50091Z" fill="#004989"/>
<path d="M20.1562 15.9381C19.6381 15.9381 19.2188 15.5188 19.2188 15.0006V6.56322C19.2188 6.04458 19.6381 5.62573 20.1562 5.62573C20.6749 5.62573 21.0937 6.04458 21.0937 6.56322V15.0006C21.0937 15.5188 20.6749 15.9381 20.1562 15.9381Z" fill="#004989"/>
<path d="M27.6562 15.9381C27.1381 15.9381 26.7188 15.5188 26.7188 15.0006V6.56322C26.7188 6.04458 27.1381 5.62573 27.6562 5.62573C28.1749 5.62573 28.5937 6.04458 28.5937 6.56322V15.0006C28.5937 15.5188 28.1749 15.9381 27.6562 15.9381Z" fill="#004989"/>
<path d="M27.6552 15.9382C27.5147 15.9382 27.3714 15.9062 27.2373 15.8398L23.4873 13.9648C23.024 13.7332 22.8364 13.1697 23.068 12.7064C23.2996 12.2436 23.8631 12.0568 24.3264 12.2876L28.0764 14.1626C28.5392 14.3942 28.7269 14.9572 28.4952 15.4205C28.3304 15.7487 27.9995 15.9382 27.6552 15.9382Z" fill="#004989"/>
<path d="M20.158 15.9382C19.8142 15.9382 19.4832 15.7487 19.318 15.4196C19.0864 14.9563 19.274 14.3933 19.7373 14.1617L23.4873 12.2867C23.9501 12.056 24.5127 12.2423 24.7452 12.7055C24.9769 13.1688 24.7892 13.7323 24.3264 13.9639L20.5764 15.8389C20.4422 15.9062 20.2985 15.9382 20.158 15.9382Z" fill="#004989"/>
<path d="M8.90625 43.1254H6.09375C5.57556 43.1254 5.15625 42.7061 5.15625 42.1879V39.3754C5.15625 38.8567 5.57556 38.4379 6.09375 38.4379H8.90625C9.4249 38.4379 9.84375 38.8567 9.84375 39.3754V42.1879C9.84375 42.7061 9.4249 43.1254 8.90625 43.1254ZM7.03125 41.2504H7.96875V40.3129H7.03125V41.2504Z" fill="#004989"/>
<path d="M14.5312 43.1254H11.7188C11.2006 43.1254 10.7812 42.7061 10.7812 42.1879V39.3754C10.7812 38.8567 11.2006 38.4379 11.7188 38.4379H14.5312C15.0499 38.4379 15.4688 38.8567 15.4688 39.3754V42.1879C15.4688 42.7061 15.0499 43.1254 14.5312 43.1254ZM12.6562 41.2504H13.5938V40.3129H12.6562V41.2504Z" fill="#004989"/>
<path d="M20.1562 43.1254H17.3438C16.8256 43.1254 16.4062 42.7061 16.4062 42.1879V39.3754C16.4062 38.8567 16.8256 38.4379 17.3438 38.4379H20.1562C20.6749 38.4379 21.0938 38.8567 21.0938 39.3754V42.1879C21.0938 42.7061 20.6749 43.1254 20.1562 43.1254ZM18.2812 41.2504H19.2188V40.3129H18.2812V41.2504Z" fill="#004989"/>
<path d="M19.2186 31.8754H6.09374C5.57556 31.8754 5.15625 31.4561 5.15625 30.9379C5.15625 30.4193 5.57556 30.0005 6.09374 30.0005H19.2186C19.7372 30.0005 20.1561 30.4193 20.1561 30.9379C20.1561 31.4561 19.7372 31.8754 19.2186 31.8754Z" fill="#004989"/>
<path d="M12.6562 34.6881H6.09375C5.57556 34.6881 5.15625 34.2688 5.15625 33.7506C5.15625 33.2319 5.57556 32.8131 6.09375 32.8131H12.6562C13.1749 32.8131 13.5938 33.2319 13.5938 33.7506C13.5938 34.2688 13.1749 34.6881 12.6562 34.6881Z" fill="#004989"/>
<path d="M34.2188 47.8128C33.7006 47.8128 33.2812 47.3935 33.2812 46.8753V44.0628C33.2812 43.5442 33.7006 43.1253 34.2188 43.1253C34.7374 43.1253 35.1562 43.5442 35.1562 44.0628V46.8753C35.1562 47.3935 34.7374 47.8128 34.2188 47.8128Z" fill="#004989"/>
<path d="M58.5938 47.8128C58.0756 47.8128 57.6562 47.3935 57.6562 46.8753V44.0628C57.6562 43.5442 58.0756 43.1253 58.5938 43.1253C59.1124 43.1253 59.5312 43.5442 59.5312 44.0628V46.8753C59.5312 47.3935 59.1124 47.8128 58.5938 47.8128Z" fill="#004989"/>
<path d="M46.4062 44.9995C45.8881 44.9995 45.4688 44.5801 45.4688 44.062V37.5004C45.4688 36.9817 45.8881 36.5629 46.4062 36.5629C46.9249 36.5629 47.3438 36.9817 47.3438 37.5004V44.062C47.3438 44.5801 46.9249 44.9995 46.4062 44.9995Z" fill="#004989"/>
<path d="M51.0465 49.6397C50.8062 49.6397 50.5663 49.5482 50.3836 49.3651L45.7438 44.7257C45.3771 44.359 45.3771 43.7666 45.7438 43.4C46.1104 43.0333 46.7028 43.0333 47.0694 43.4L51.7093 48.0394C52.0755 48.4061 52.0755 48.9984 51.7093 49.3651C51.5262 49.5491 51.2864 49.6397 51.0465 49.6397Z" fill="#004989"/>
</g>
<defs>
<clipPath id="clip0_2193_92">
<rect width="60" height="60" fill="white"/>
</clipPath>
</defs>
</svg>
