<svg width="60" height="60" viewBox="0 0 60 60" fill="none" xmlns="http://www.w3.org/2000/svg">
<g clip-path="url(#clip0_2193_23)">
<path d="M29.9993 57.6564C17.5876 57.6564 6.76062 49.273 3.66845 37.2687C3.53936 36.7679 3.84194 36.2561 4.34365 36.1266C4.84032 36.0011 5.35621 36.3001 5.4853 36.8018C8.36278 47.9766 18.4436 55.7814 29.9993 55.7814C43.9564 55.7814 55.3116 44.4262 55.3116 30.4691C55.3116 29.9505 55.7304 29.5316 56.2491 29.5316C56.7673 29.5316 57.1866 29.9505 57.1866 30.4691C57.1866 45.4594 44.9895 57.6564 29.9993 57.6564Z" fill="#004989"/>
<path d="M3.74999 30.469C3.23135 30.469 2.8125 30.0497 2.8125 29.5315C2.8125 14.5407 15.0091 2.34418 29.9998 2.34418C42.411 2.34418 53.238 10.7271 56.3302 22.7315C56.4592 23.2322 56.1567 23.744 55.655 23.8736C55.161 24.004 54.6433 23.7001 54.5133 23.1984C51.6358 12.0235 41.555 4.21916 29.9998 4.21916C16.0422 4.21916 4.68749 15.5739 4.68749 29.5315C4.68749 30.0497 4.26818 30.469 3.74999 30.469Z" fill="#004989"/>
<path d="M3.75034 30.4693C3.51002 30.4693 3.27015 30.3773 3.0875 30.1942L0.275001 27.3817C-0.0916672 27.0155 -0.0916672 26.4227 0.275001 26.0565C0.641212 25.6898 1.23402 25.6898 1.60023 26.0565L4.41273 28.869C4.7794 29.2352 4.7794 29.828 4.41273 30.1942C4.23008 30.3773 3.99021 30.4693 3.75034 30.4693Z" fill="#004989"/>
<path d="M3.75034 30.4693C3.51002 30.4693 3.27015 30.3773 3.0875 30.1942C2.72083 29.828 2.72083 29.2352 3.0875 28.869L5.9 26.0565C6.26621 25.6898 6.85902 25.6898 7.22523 26.0565C7.5919 26.4227 7.5919 27.0155 7.22523 27.3817L4.41273 30.1942C4.23008 30.3773 3.99021 30.4693 3.75034 30.4693Z" fill="#004989"/>
<path d="M59.0628 33.2819C58.8225 33.2819 58.5826 33.1899 58.4 33.0068L55.5875 30.1943C55.2208 29.8281 55.2208 29.2353 55.5875 28.8691C55.9537 28.5024 56.5465 28.5024 56.9127 28.8691L59.7252 31.6816C60.0919 32.0478 60.0919 32.6406 59.7252 33.0068C59.5426 33.1899 59.3027 33.2819 59.0628 33.2819Z" fill="#004989"/>
<path d="M53.4378 33.2819C53.1975 33.2819 52.9576 33.1899 52.775 33.0068C52.4083 32.6406 52.4083 32.0478 52.775 31.6816L55.5875 28.8691C55.9537 28.5024 56.5465 28.5024 56.9127 28.8691C57.2794 29.2353 57.2794 29.8281 56.9127 30.1943L54.1002 33.0068C53.9176 33.1899 53.6777 33.2819 53.4378 33.2819Z" fill="#004989"/>
<path d="M13.123 51.511C12.6049 51.511 12.1855 51.0917 12.1855 50.5735V26.7096C12.1855 26.1909 12.6049 25.7721 13.123 25.7721C13.6417 25.7721 14.0605 26.1909 14.0605 26.7096V50.5735C14.0605 51.0917 13.6417 51.511 13.123 51.511Z" fill="#004989"/>
<path d="M46.8769 51.5129C46.3583 51.5129 45.9395 51.094 45.9395 50.5754V26.7096C45.9395 26.1909 46.3583 25.7721 46.8769 25.7721C47.3951 25.7721 47.8144 26.1909 47.8144 26.7096V50.5754C47.8144 51.094 47.3951 51.5129 46.8769 51.5129Z" fill="#004989"/>
<path d="M46.8769 27.6471H13.123C12.6049 27.6471 12.1855 27.2282 12.1855 26.7096C12.1855 26.1909 12.6049 25.7721 13.123 25.7721H46.8769C47.3951 25.7721 47.8144 26.1909 47.8144 26.7096C47.8144 27.2282 47.3951 27.6471 46.8769 27.6471Z" fill="#004989"/>
<path d="M13.1225 27.6472C12.9586 27.6472 12.7916 27.6042 12.641 27.5131C12.1965 27.2471 12.0532 26.6712 12.3191 26.2268L15.1316 21.5374C15.3971 21.0943 15.9726 20.9497 16.418 21.2161C16.8624 21.482 17.0057 22.0579 16.7398 22.5024L13.9273 27.1917C13.7519 27.4851 13.4416 27.6472 13.1225 27.6472Z" fill="#004989"/>
<path d="M46.8778 27.6473C46.5588 27.6473 46.2484 27.4853 46.0731 27.1928L43.2606 22.5034C42.9946 22.0589 43.1379 21.4831 43.5824 21.2171C44.0269 20.9507 44.6023 21.0953 44.8687 21.5385L47.6812 26.2278C47.9472 26.6723 47.8039 27.2481 47.3594 27.5141C47.2079 27.6043 47.0417 27.6473 46.8778 27.6473Z" fill="#004989"/>
<path d="M44.0644 22.958H15.9355C15.4174 22.958 14.998 22.5387 14.998 22.0206C14.998 21.5019 15.4174 21.0831 15.9355 21.0831H44.0644C44.5826 21.0831 45.0019 21.5019 45.0019 22.0206C45.0019 22.5387 44.5826 22.958 44.0644 22.958Z" fill="#004989"/>
<path d="M26.2487 27.6471C26.1888 27.6471 26.126 27.6416 26.0642 27.6283C25.557 27.5271 25.227 27.0332 25.3291 26.5251L26.2666 21.8353C26.3673 21.3285 26.8566 20.9944 27.3702 21.1006C27.8774 21.2017 28.2075 21.6957 28.1054 22.2038L27.1679 26.8931C27.0786 27.3395 26.6868 27.6471 26.2487 27.6471Z" fill="#004989"/>
<path d="M33.7486 27.6471C33.311 27.6471 32.9191 27.3395 32.8308 26.8932L31.8933 22.2039C31.7921 21.6958 32.1212 21.2028 32.6284 21.1007C33.143 20.9954 33.6305 21.3286 33.7321 21.8354L34.6696 26.5252C34.7708 27.0333 34.4416 27.5263 33.9344 27.6284C33.8717 27.6417 33.809 27.6471 33.7486 27.6471Z" fill="#004989"/>
<path d="M26.248 33.2721C25.7299 33.2721 25.3105 32.8532 25.3105 32.3346V26.7096C25.3105 26.1909 25.7299 25.7721 26.248 25.7721C26.7667 25.7721 27.1855 26.1909 27.1855 26.7096V32.3346C27.1855 32.8532 26.7667 33.2721 26.248 33.2721Z" fill="#004989"/>
<path d="M33.75 33.2721C33.2314 33.2721 32.8125 32.8532 32.8125 32.3346V26.7096C32.8125 26.1909 33.2314 25.7721 33.75 25.7721C34.2682 25.7721 34.6875 26.1909 34.6875 26.7096V32.3346C34.6875 32.8532 34.2682 33.2721 33.75 33.2721Z" fill="#004989"/>
<path d="M33.7512 33.2719C33.6761 33.2719 33.5992 33.2628 33.5232 33.244L29.7732 32.3065C29.2706 32.1806 28.9652 31.6716 29.0907 31.1699C29.2152 30.6668 29.7233 30.3601 30.2268 30.4873L33.9768 31.4248C34.4795 31.5507 34.7852 32.0598 34.6594 32.5615C34.5527 32.989 34.1709 33.2719 33.7512 33.2719Z" fill="#004989"/>
<path d="M26.2474 33.2722C25.8276 33.2722 25.4459 32.9879 25.3392 32.5617C25.2124 32.06 25.5182 31.551 26.0217 31.4251L29.7736 30.4876C30.2743 30.3594 30.7843 30.667 30.9097 31.1701C31.0365 31.6718 30.7307 32.1808 30.2272 32.3067L26.4754 33.2442C26.3994 33.263 26.3225 33.2722 26.2474 33.2722Z" fill="#004989"/>
<path d="M38.4412 44.524H21.5586C21.0404 44.524 20.6211 44.1051 20.6211 43.5865C20.6211 43.0683 21.0404 42.649 21.5586 42.649H38.4412C38.9594 42.649 39.3787 43.0683 39.3787 43.5865C39.3787 44.1051 38.9594 44.524 38.4412 44.524Z" fill="#004989"/>
<path d="M38.4412 40.7815H21.5586C21.0404 40.7815 20.6211 40.3622 20.6211 39.8441C20.6211 39.3254 21.0404 38.9066 21.5586 38.9066H38.4412C38.9594 38.9066 39.3787 39.3254 39.3787 39.8441C39.3787 40.3622 38.9594 40.7815 38.4412 40.7815Z" fill="#004989"/>
<path d="M33.7522 48.2755H26.248C25.7299 48.2755 25.3105 47.8566 25.3105 47.338C25.3105 46.8198 25.7299 46.4005 26.248 46.4005H33.7522C34.2704 46.4005 34.6897 46.8198 34.6897 47.338C34.6897 47.8566 34.2704 48.2755 33.7522 48.2755Z" fill="#004989"/>
</g>
<defs>
<clipPath id="clip0_2193_23">
<rect width="60" height="60" fill="white"/>
</clipPath>
</defs>
</svg>
