<svg width="60" height="60" viewBox="0 0 60 60" fill="none" xmlns="http://www.w3.org/2000/svg">
<g clip-path="url(#clip0_2193_48)">
<path d="M11.25 50.6275C10.7314 50.6275 10.3125 50.2086 10.3125 49.69C10.3125 46.0704 13.2573 43.1256 16.8769 43.1256C17.3956 43.1256 17.8144 43.5444 17.8144 44.0631C17.8144 44.5817 17.3956 45.0006 16.8769 45.0006C14.2914 45.0006 12.1875 47.1045 12.1875 49.69C12.1875 50.2086 11.7687 50.6275 11.25 50.6275Z" fill="#004989"/>
<path d="M48.7501 50.6266C48.2314 50.6266 47.8126 50.2077 47.8126 49.6891C47.8126 47.1045 45.7096 45.0015 43.125 45.0015C42.6064 45.0015 42.1875 44.5826 42.1875 44.064C42.1875 43.5458 42.6064 43.1265 43.125 43.1265C46.7428 43.1265 49.6876 46.0713 49.6876 49.6891C49.6876 50.2077 49.2688 50.6266 48.7501 50.6266Z" fill="#004989"/>
<path d="M24.3753 45.0015L16.877 45.0006C16.3588 45.0006 15.9395 44.5804 15.9395 44.0631C15.9395 43.5444 16.3597 43.1256 16.877 43.1256L24.3753 43.1265C24.8939 43.1265 25.3128 43.5467 25.3128 44.064C25.3128 44.5826 24.8925 45.0015 24.3753 45.0015Z" fill="#004989"/>
<path d="M43.1251 45.0015L35.625 45.0006C35.1064 45.0006 34.6875 44.5804 34.6875 44.0631C34.6875 43.5444 35.1073 43.1256 35.625 43.1256L43.1251 43.1265C43.6438 43.1265 44.0626 43.5467 44.0626 44.064C44.0626 44.5826 43.6424 45.0015 43.1251 45.0015Z" fill="#004989"/>
<path d="M11.2509 59.0626C10.7336 59.0626 10.3134 58.6433 10.3134 58.1251L10.3125 49.6902C10.3125 49.1729 10.7314 48.7527 11.25 48.7527C11.7673 48.7527 12.1875 49.172 12.1875 49.6902L12.1884 58.1251C12.1884 58.6424 11.7696 59.0626 11.2509 59.0626Z" fill="#004989"/>
<path d="M12.1875 60.0001C11.1534 60.0001 10.3125 59.1592 10.3125 58.125C10.3125 57.6064 10.7314 57.1875 11.25 57.1875C11.7687 57.1875 12.1875 57.6064 12.1875 58.125V58.1269C12.7062 58.1269 13.125 58.5448 13.125 59.0635C13.125 59.5808 12.7062 60.0001 12.1875 60.0001Z" fill="#004989"/>
<path d="M47.8125 60.0001C47.2939 60.0001 46.875 59.5808 46.875 59.0626C46.875 58.5439 47.2939 58.125 47.8125 58.125H47.8143C47.8143 57.6064 48.2323 57.1875 48.7509 57.1875C49.2687 57.1875 49.6875 57.6064 49.6875 58.125C49.6875 59.1592 48.8466 60.0001 47.8125 60.0001Z" fill="#004989"/>
<path d="M48.75 59.0626C48.2314 59.0626 47.8125 58.6433 47.8125 58.1251V49.6893C47.8125 49.1711 48.2314 48.7518 48.75 48.7518C49.2687 48.7518 49.6875 49.1711 49.6875 49.6893V58.1251C49.6875 58.6433 49.2687 59.0626 48.75 59.0626Z" fill="#004989"/>
<path d="M47.8122 60H12.1875C11.6689 60 11.25 59.5807 11.25 59.0625C11.25 58.5438 11.6689 58.1249 12.1875 58.1249H47.8122C48.3308 58.1249 48.7497 58.5438 48.7497 59.0625C48.7497 59.5807 48.3308 60 47.8122 60Z" fill="#004989"/>
<path d="M24.375 45.0016C23.8564 45.0016 23.4375 44.5827 23.4375 44.064V39.1421C23.4375 38.6239 23.8564 38.2046 24.375 38.2046C24.8937 38.2046 25.3125 38.6239 25.3125 39.1421V44.064C25.3125 44.5827 24.8937 45.0016 24.375 45.0016Z" fill="#004989"/>
<path d="M35.625 45.0006C35.1064 45.0006 34.6875 44.5818 34.6875 44.0631V39.1421C34.6875 38.6239 35.1064 38.2046 35.625 38.2046C36.1437 38.2046 36.5625 38.6239 36.5625 39.1421V44.0631C36.5625 44.5818 36.1437 45.0006 35.625 45.0006Z" fill="#004989"/>
<path d="M30.0002 41.2506C21.7297 41.2506 15 34.5209 15 26.2504C15 25.7331 15.4189 25.3129 15.9375 25.3129C16.4562 25.3129 16.875 25.7331 16.875 26.2504C16.875 33.4873 22.7624 39.3756 30.0002 39.3756C37.2381 39.3756 43.1254 33.4882 43.1254 26.2504C43.1254 25.7331 43.5443 25.3129 44.063 25.3129C44.5816 25.3129 45.0005 25.7331 45.0005 26.2504C45.0005 34.5209 38.2708 41.2506 30.0002 41.2506V41.2506Z" fill="#004989"/>
<path d="M44.0625 27.1879C43.5439 27.1879 43.125 26.7676 43.125 26.2503V18.7502C43.125 18.2329 43.5439 17.8127 44.0625 17.8127C44.5812 17.8127 45 18.2329 45 18.7502V26.2503C45 26.769 44.5812 27.1879 44.0625 27.1879Z" fill="#004989"/>
<path d="M13.1231 21.5627C12.6044 21.5627 12.1855 21.1425 12.1855 20.6252C12.1855 10.8028 20.1759 2.81244 29.9983 2.81244C33.9782 2.81244 37.7433 4.09603 40.8827 6.52404C41.2933 6.83991 41.3684 7.42952 41.0516 7.83922C40.734 8.24893 40.1462 8.32583 39.7374 8.00722C36.9276 5.8351 33.5598 4.68747 29.9983 4.68747C21.21 4.68747 14.0606 11.8369 14.0606 20.6252C14.0606 21.1425 13.6417 21.5627 13.1231 21.5627V21.5627Z" fill="#004989"/>
<path d="M14.0606 27.188C13.5419 27.188 13.123 26.7677 13.123 26.2505C13.123 25.7332 13.5419 25.3129 14.0606 25.3129C15.0947 25.3129 15.9356 24.472 15.9356 23.4379C15.9356 22.9206 16.3545 22.5004 16.8731 22.5004C17.3918 22.5004 17.8106 22.9206 17.8106 23.4379C17.8106 25.5061 16.1288 27.188 14.0606 27.188Z" fill="#004989"/>
<path d="M13.1231 27.1879C12.6044 27.1879 12.1855 26.7676 12.1855 26.2503V20.6253C12.1855 20.108 12.6044 19.6878 13.1231 19.6878C13.6417 19.6878 14.0606 20.108 14.0606 20.6253V26.2503C14.0606 26.769 13.6417 27.1879 13.1231 27.1879Z" fill="#004989"/>
<path d="M14.0606 27.1879H13.1231C12.6044 27.1879 12.1855 26.7676 12.1855 26.2504C12.1855 25.7331 12.6044 25.3129 13.1231 25.3129H14.0606C14.5792 25.3129 14.9981 25.7331 14.9981 26.2504C14.9981 26.7676 14.5792 27.1879 14.0606 27.1879Z" fill="#004989"/>
<path d="M16.875 24.3754C16.3564 24.3754 15.9375 23.9552 15.9375 23.4379V21.5629C15.9375 21.0456 16.3564 20.6254 16.875 20.6254C17.3937 20.6254 17.8125 21.0456 17.8125 21.5629V23.4379C17.8125 23.9566 17.3937 24.3754 16.875 24.3754Z" fill="#004989"/>
<path d="M16.875 22.5003C16.3564 22.5003 15.9375 22.0801 15.9375 21.5628C15.9375 19.4946 17.6194 17.8127 19.6876 17.8127C20.2062 17.8127 20.6251 18.2329 20.6251 18.7502C20.6251 19.2675 20.2062 19.6877 19.6876 19.6877C18.6535 19.6877 17.8125 20.5287 17.8125 21.5628C17.8125 22.0801 17.3937 22.5003 16.875 22.5003Z" fill="#004989"/>
<path d="M40.3128 19.6877H19.6875C19.1689 19.6877 18.75 19.2675 18.75 18.7502C18.75 18.2329 19.1689 17.8127 19.6875 17.8127H40.3128C40.8315 17.8127 41.2504 18.2329 41.2504 18.7502C41.2504 19.2675 40.8315 19.6877 40.3128 19.6877Z" fill="#004989"/>
<path d="M40.3125 19.6879C39.7939 19.6879 39.375 19.2677 39.375 18.7504V7.26674C39.375 6.74946 39.7939 6.32922 40.3125 6.32922C40.8312 6.32922 41.25 6.74946 41.25 7.26674V18.7504C41.25 19.2677 40.8312 19.6879 40.3125 19.6879Z" fill="#004989"/>
<path d="M44.0635 11.9552C43.5448 11.9552 43.126 11.5354 43.126 11.0177C43.126 9.46633 41.863 8.20425 40.3125 8.20425C39.7939 8.20425 39.375 7.78448 39.375 7.26674C39.375 6.74946 39.7939 6.32922 40.3125 6.32922C42.898 6.32922 45.001 8.43314 45.001 11.0177C45.001 11.5364 44.5821 11.9552 44.0635 11.9552Z" fill="#004989"/>
<path d="M40.3125 19.6877C39.7939 19.6877 39.375 19.2675 39.375 18.7502C39.375 18.2329 39.7939 17.8127 40.3125 17.8127C41.863 17.8127 43.126 16.5497 43.126 14.9993C43.126 14.4815 43.5448 14.0617 44.0635 14.0617C44.5821 14.0617 45.001 14.4815 45.001 14.9993C45.001 17.5838 42.898 19.6877 40.3125 19.6877Z" fill="#004989"/>
<path d="M44.0625 19.6879C43.5439 19.6879 43.125 19.2676 43.125 18.7503V11.0186C43.125 10.5013 43.5439 10.0811 44.0625 10.0811C44.5812 10.0811 45 10.5013 45 11.0186V18.7503C45 19.2676 44.5812 19.6879 44.0625 19.6879Z" fill="#004989"/>
<path d="M15.9375 27.188C15.4189 27.188 15 26.7677 15 26.2505V25.5341C15 25.0168 15.4189 24.5965 15.9375 24.5965C16.4562 24.5965 16.875 25.0168 16.875 25.5341V26.2505C16.875 26.7691 16.4562 27.188 15.9375 27.188Z" fill="#004989"/>
<path d="M32.8126 4.68757C32.2939 4.68757 31.8751 4.26733 31.8751 3.75005C31.8751 2.71595 31.0342 1.87502 30.0001 1.87502C28.966 1.87502 28.125 2.71595 28.125 3.75005C28.125 4.26733 27.7062 4.68757 27.1875 4.68757C26.6689 4.68757 26.25 4.26733 26.25 3.75005C26.25 1.68184 27.9318 -7.62939e-06 30.0001 -7.62939e-06C32.0683 -7.62939e-06 33.7501 1.68184 33.7501 3.75005C33.7501 4.26733 33.3313 4.68757 32.8126 4.68757Z" fill="#004989"/>
<path d="M27.1875 4.92093C26.6689 4.92093 26.25 4.5007 26.25 3.98342V3.74995C26.25 3.23267 26.6689 2.81244 27.1875 2.81244C27.7062 2.81244 28.125 3.23267 28.125 3.74995V3.98342C28.125 4.5007 27.7062 4.92093 27.1875 4.92093Z" fill="#004989"/>
<path d="M32.8125 4.92093C32.2939 4.92093 31.875 4.5007 31.875 3.98342V3.74995C31.875 3.23267 32.2939 2.81244 32.8125 2.81244C33.3312 2.81244 33.75 3.23267 33.75 3.74995V3.98342C33.75 4.5007 33.3312 4.92093 32.8125 4.92093Z" fill="#004989"/>
<path d="M30.0003 55.3125C25.3484 55.3125 21.5645 51.5285 21.5645 46.8766C21.5645 46.3585 21.9838 45.9391 22.502 45.9391C23.0206 45.9391 23.4395 46.3585 23.4395 46.8766C23.4395 50.4935 26.3834 53.4374 30.0003 53.4374C33.6171 53.4374 36.561 50.4935 36.561 46.8766C36.561 46.3585 36.9799 45.9391 37.4986 45.9391C38.0167 45.9391 38.4361 46.3585 38.4361 46.8766C38.4361 51.5285 34.6521 55.3125 30.0003 55.3125Z" fill="#004989"/>
<path d="M22.502 47.8141C21.9838 47.8141 21.5645 47.3952 21.5645 46.8766V44.064C21.5645 43.5458 21.9838 43.1265 22.502 43.1265C23.0206 43.1265 23.4395 43.5458 23.4395 44.064V46.8766C23.4395 47.3952 23.0206 47.8141 22.502 47.8141Z" fill="#004989"/>
<path d="M37.5 47.8141C36.9814 47.8141 36.5625 47.3952 36.5625 46.8766V44.064C36.5625 43.5458 36.9814 43.1265 37.5 43.1265C38.0187 43.1265 38.4375 43.5458 38.4375 44.064V46.8766C38.4375 47.3952 38.0187 47.8141 37.5 47.8141Z" fill="#004989"/>
<path d="M44.0625 35.6247C43.5439 35.6247 43.125 35.2054 43.125 34.6872C43.125 34.1685 43.5439 33.7497 44.0625 33.7497C46.1307 33.7497 47.8126 32.0678 47.8126 29.9996C47.8126 27.9314 46.1307 26.2496 44.0625 26.2496C43.5439 26.2496 43.125 25.8293 43.125 25.3121C43.125 24.7943 43.5439 24.3745 44.0625 24.3745C47.1648 24.3745 49.6876 26.8973 49.6876 29.9996C49.6876 33.1019 47.1648 35.6247 44.0625 35.6247Z" fill="#004989"/>
<path d="M44.0627 35.6248H31.875C31.3564 35.6248 30.9375 35.2054 30.9375 34.6872C30.9375 34.1686 31.3564 33.7497 31.875 33.7497H44.0627C44.5814 33.7497 45.0002 34.1686 45.0002 34.6872C45.0002 35.2054 44.5814 35.6248 44.0627 35.6248Z" fill="#004989"/>
<path d="M44.0626 54.3749H38.4375C37.9189 54.3749 37.5 53.9556 37.5 53.4374C37.5 52.9187 37.9189 52.4998 38.4375 52.4998H44.0626C44.5813 52.4998 45.0001 52.9187 45.0001 53.4374C45.0001 53.9556 44.5813 54.3749 44.0626 54.3749Z" fill="#004989"/>
<path d="M41.25 54.375C40.7314 54.375 40.3125 53.9556 40.3125 53.4374V52.4999C40.3125 51.9813 40.7314 51.5624 41.25 51.5624C41.7687 51.5624 42.1875 51.9813 42.1875 52.4999V53.4374C42.1875 53.9556 41.7687 54.375 41.25 54.375Z" fill="#004989"/>
<path d="M38.4375 57.1874C37.9189 57.1874 37.5 56.7681 37.5 56.2499V53.4374C37.5 52.9187 37.9189 52.4998 38.4375 52.4998C38.9562 52.4998 39.375 52.9187 39.375 53.4374V56.2499C39.375 56.7681 38.9562 57.1874 38.4375 57.1874Z" fill="#004989"/>
<path d="M44.0625 57.1874C43.5439 57.1874 43.125 56.7681 43.125 56.2499V53.4374C43.125 52.9187 43.5439 52.4998 44.0625 52.4998C44.5812 52.4998 45 52.9187 45 53.4374V56.2499C45 56.7681 44.5812 57.1874 44.0625 57.1874Z" fill="#004989"/>
<path d="M44.0626 57.1875H38.4375C37.9189 57.1875 37.5 56.7682 37.5 56.25C37.5 55.7314 37.9189 55.3125 38.4375 55.3125H44.0626C44.5813 55.3125 45.0001 55.7314 45.0001 56.25C45.0001 56.7682 44.5813 57.1875 44.0626 57.1875Z" fill="#004989"/>
</g>
<defs>
<clipPath id="clip0_2193_48">
<rect width="60" height="60" fill="white"/>
</clipPath>
</defs>
</svg>
