<svg width="25" height="19" viewBox="0 0 25 19" fill="none" xmlns="http://www.w3.org/2000/svg">
<path d="M24.2501 3.82254C24.0282 2.59797 22.9711 1.70618 21.7444 1.42776C19.9086 1.03842 16.5111 0.76001 12.8352 0.76001C9.16145 0.76001 5.70957 1.03842 3.87162 1.42776C2.64704 1.70618 1.58777 2.54141 1.36591 3.82254C1.14187 5.2146 0.920013 7.16349 0.920013 9.6692C0.920013 12.1749 1.14187 14.1238 1.42029 15.5159C1.64432 16.7404 2.70142 17.6322 3.926 17.9106C5.87488 18.3 9.21583 18.5784 12.8917 18.5784C16.5676 18.5784 19.9086 18.3 21.8575 17.9106C23.0821 17.6322 24.1392 16.797 24.3632 15.5159C24.585 14.1238 24.8635 12.1184 24.92 9.6692C24.8069 7.16349 24.5285 5.2146 24.2501 3.82254ZM9.8292 13.567V5.77143L16.622 9.6692L9.8292 13.567Z" fill="black"/>
</svg>
