<svg width="40" height="40" viewBox="0 0 40 40" fill="none" xmlns="http://www.w3.org/2000/svg">
    <rect width="40" height="40" rx="12" fill="#F0F2F5"/>
    <path fill-rule="evenodd" clip-rule="evenodd" d="M14.7929 14.7929C15.1834 14.4024 15.8166 14.4024 16.2071 14.7929L20 18.5858L23.7929 14.7929C24.1834 14.4024 24.8166 14.4024 25.2071 14.7929C25.5976 15.1834 25.5976 15.8166 25.2071 16.2071L21.4142 20L25.2071 23.7929C25.5976 24.1834 25.5976 24.8166 25.2071 25.2071C24.8166 25.5976 24.1834 25.5976 23.7929 25.2071L20 21.4142L16.2071 25.2071C15.8166 25.5976 15.1834 25.5976 14.7929 25.2071C14.4024 24.8166 14.4024 24.1834 14.7929 23.7929L18.5858 20L14.7929 16.2071C14.4024 15.8166 14.4024 15.1834 14.7929 14.7929Z" fill="#354052"/>
</svg>