<svg width="24" height="24" viewBox="0 0 24 24" fill="none" xmlns="http://www.w3.org/2000/svg">
<path fill-rule="evenodd" clip-rule="evenodd" d="M22.0015 12C22.0015 17.5232 17.524 22.0007 12.0008 22.0007C6.47749 22.0007 2 17.5232 2 12C2 6.4767 6.47749 1.99921 12.0008 1.99921C17.524 1.99921 22.0015 6.4767 22.0015 12ZM13.4256 18.278H15.621V18.2743H15.6061V5.72004H12.4328C9.24641 5.72004 7.56323 7.3624 7.56323 9.77675C7.56323 11.7086 8.4874 12.8536 10.1298 14.0265L7.27373 18.2762H9.63427L12.8076 13.5161L11.7035 12.772C10.3636 11.8756 9.71592 11.1723 9.71592 9.65427C9.71592 8.31626 10.6549 7.41992 12.4476 7.41992H13.4256V18.278Z" fill="#E33E3C"/>
</svg>
