<svg width="424" height="409" viewBox="0 0 424 409" fill="none" xmlns="http://www.w3.org/2000/svg">
<path d="M412.969 204.139C412.969 91.5793 320.33 0 206.469 0C92.607 0 0 91.6104 0 204.139C0 316.668 92.6385 408.278 206.5 408.278C226.117 408.278 245.514 405.57 264.187 400.185L286.921 393.648L241.389 334.722L231.596 336.528C223.378 338.053 214.939 338.8 206.5 338.8C131.369 338.8 70.2503 278.38 70.2503 204.108C70.2503 129.836 131.369 69.416 206.5 69.416C281.631 69.416 342.75 129.836 342.75 204.108C342.75 235.579 331.446 266.022 311.325 290.053H235.06L328.265 406.286L328.675 406.348L330.217 408.247H423.927L365.043 334.847C395.776 298.427 412.969 252.232 412.969 204.139Z" fill="#004989" fill-opacity="0.28"/>
</svg>
