<svg width="20" height="16" viewBox="0 0 20 16" fill="none" xmlns="http://www.w3.org/2000/svg">
<path d="M6.46855 15.3318C6.61953 15.5385 6.81856 15.707 7.04914 15.8232C7.27973 15.9394 7.53522 16 7.79445 16C8.05368 16 8.30917 15.9394 8.53975 15.8232C8.77034 15.707 8.96937 15.5385 9.12034 15.3318L19.9224 0.639036C20.1173 0.372352 19.9224 0 19.589 0H17.1834C16.6602 0 16.1627 0.246556 15.855 0.669225L7.79701 11.6385L4.14503 6.6671C3.83728 6.24946 3.34488 5.99788 2.81657 5.99788H0.410985C0.0775875 5.99788 -0.117322 6.37023 0.0775874 6.63691L6.46855 15.3318Z" fill="#EB5806"/>
</svg>
