<svg width="195" height="29" viewBox="0 0 195 29" fill="none" xmlns="http://www.w3.org/2000/svg">
<path d="M7.1891 21.4748C6.1491 21.4748 5.2091 21.2448 4.3691 20.7848C3.5391 20.3248 2.8841 19.6898 2.4041 18.8798C1.9341 18.0598 1.6991 17.1448 1.6991 16.1348C1.6991 15.1248 1.9341 14.2148 2.4041 13.4048C2.8841 12.5848 3.5441 11.9448 4.3841 11.4848C5.2241 11.0248 6.1641 10.7948 7.2041 10.7948C7.9841 10.7948 8.7041 10.9248 9.3641 11.1848C10.0241 11.4448 10.5841 11.8248 11.0441 12.3248L10.3391 13.0298C9.5191 12.1998 8.4841 11.7848 7.2341 11.7848C6.4041 11.7848 5.6491 11.9748 4.9691 12.3548C4.2891 12.7348 3.7541 13.2548 3.3641 13.9148C2.9841 14.5748 2.7941 15.3148 2.7941 16.1348C2.7941 16.9548 2.9841 17.6948 3.3641 18.3548C3.7541 19.0148 4.2891 19.5348 4.9691 19.9148C5.6491 20.2948 6.4041 20.4848 7.2341 20.4848C8.4941 20.4848 9.5291 20.0648 10.3391 19.2248L11.0441 19.9298C10.5841 20.4298 10.0191 20.8148 9.3491 21.0848C8.6891 21.3448 7.9691 21.4748 7.1891 21.4748ZM20.3955 20.4548V23.2898H19.3905V21.3848H12.3255V23.2898H11.3205V20.4548H11.7705C12.3005 20.4248 12.6605 20.0348 12.8505 19.2848C13.0405 18.5348 13.1705 17.4848 13.2405 16.1348L13.3455 13.4948H19.1655V20.4548H20.3955ZM14.2155 16.1948C14.1655 17.3148 14.0705 18.2398 13.9305 18.9698C13.7905 19.6898 13.5405 20.1848 13.1805 20.4548H18.1005V14.4398H14.3055L14.2155 16.1948ZM29.3711 17.7698H22.7711C22.8311 18.5898 23.1461 19.2548 23.7161 19.7648C24.2861 20.2648 25.0061 20.5148 25.8761 20.5148C26.3661 20.5148 26.8161 20.4298 27.2261 20.2598C27.6361 20.0798 27.9911 19.8198 28.2911 19.4798L28.8911 20.1698C28.5411 20.5898 28.1011 20.9098 27.5711 21.1298C27.0511 21.3498 26.4761 21.4598 25.8461 21.4598C25.0361 21.4598 24.3161 21.2898 23.6861 20.9498C23.0661 20.5998 22.5811 20.1198 22.2311 19.5098C21.8811 18.8998 21.7061 18.2098 21.7061 17.4398C21.7061 16.6698 21.8711 15.9798 22.2011 15.3698C22.5411 14.7598 23.0011 14.2848 23.5811 13.9448C24.1711 13.6048 24.8311 13.4348 25.5611 13.4348C26.2911 13.4348 26.9461 13.6048 27.5261 13.9448C28.1061 14.2848 28.5611 14.7598 28.8911 15.3698C29.2211 15.9698 29.3861 16.6598 29.3861 17.4398L29.3711 17.7698ZM25.5611 14.3498C24.8011 14.3498 24.1611 14.5948 23.6411 15.0848C23.1311 15.5648 22.8411 16.1948 22.7711 16.9748H28.3661C28.2961 16.1948 28.0011 15.5648 27.4811 15.0848C26.9711 14.5948 26.3311 14.3498 25.5611 14.3498ZM38.0324 13.4948V21.3848H36.9674V14.4398H33.1874L33.0824 16.3898C33.0024 18.0298 32.8124 19.2898 32.5124 20.1698C32.2124 21.0498 31.6774 21.4898 30.9074 21.4898C30.6974 21.4898 30.4424 21.4498 30.1424 21.3698L30.2174 20.4548C30.3974 20.4948 30.5224 20.5148 30.5924 20.5148C31.0024 20.5148 31.3124 20.3248 31.5224 19.9448C31.7324 19.5648 31.8724 19.0948 31.9424 18.5348C32.0124 17.9748 32.0724 17.2348 32.1224 16.3148L32.2574 13.4948H38.0324ZM43.7749 13.4348C44.8049 13.4348 45.5949 13.6948 46.1449 14.2148C46.6949 14.7248 46.9699 15.4848 46.9699 16.4948V21.3848H45.9499V20.1548C45.7099 20.5648 45.3549 20.8848 44.8849 21.1148C44.4249 21.3448 43.8749 21.4598 43.2349 21.4598C42.3549 21.4598 41.6549 21.2498 41.1349 20.8298C40.6149 20.4098 40.3549 19.8548 40.3549 19.1648C40.3549 18.4948 40.5949 17.9548 41.0749 17.5448C41.5649 17.1348 42.3399 16.9298 43.3999 16.9298H45.9049V16.4498C45.9049 15.7698 45.7149 15.2548 45.3349 14.9048C44.9549 14.5448 44.3999 14.3648 43.6699 14.3648C43.1699 14.3648 42.6899 14.4498 42.2299 14.6198C41.7699 14.7798 41.3749 15.0048 41.0449 15.2948L40.5649 14.4998C40.9649 14.1598 41.4449 13.8998 42.0049 13.7198C42.5649 13.5298 43.1549 13.4348 43.7749 13.4348ZM43.3999 20.6198C43.9999 20.6198 44.5149 20.4848 44.9449 20.2148C45.3749 19.9348 45.6949 19.5348 45.9049 19.0148V17.7248H43.4299C42.0799 17.7248 41.4049 18.1948 41.4049 19.1348C41.4049 19.5948 41.5799 19.9598 41.9299 20.2298C42.2799 20.4898 42.7699 20.6198 43.3999 20.6198ZM49.805 13.4948H50.87V16.9898H55.835V13.4948H56.9V21.3848H55.835V17.9048H50.87V21.3848H49.805V13.4948ZM63.1821 21.4598C62.4221 21.4598 61.7371 21.2898 61.1271 20.9498C60.5171 20.5998 60.0371 20.1198 59.6871 19.5098C59.3371 18.8998 59.1621 18.2098 59.1621 17.4398C59.1621 16.6698 59.3371 15.9798 59.6871 15.3698C60.0371 14.7598 60.5171 14.2848 61.1271 13.9448C61.7371 13.6048 62.4221 13.4348 63.1821 13.4348C63.9421 13.4348 64.6271 13.6048 65.2371 13.9448C65.8471 14.2848 66.3221 14.7598 66.6621 15.3698C67.0121 15.9798 67.1871 16.6698 67.1871 17.4398C67.1871 18.2098 67.0121 18.8998 66.6621 19.5098C66.3221 20.1198 65.8471 20.5998 65.2371 20.9498C64.6271 21.2898 63.9421 21.4598 63.1821 21.4598ZM63.1821 20.5148C63.7421 20.5148 64.2421 20.3898 64.6821 20.1398C65.1321 19.8798 65.4821 19.5148 65.7321 19.0448C65.9821 18.5748 66.1071 18.0398 66.1071 17.4398C66.1071 16.8398 65.9821 16.3048 65.7321 15.8348C65.4821 15.3648 65.1321 15.0048 64.6821 14.7548C64.2421 14.4948 63.7421 14.3648 63.1821 14.3648C62.6221 14.3648 62.1171 14.4948 61.6671 14.7548C61.2271 15.0048 60.8771 15.3648 60.6171 15.8348C60.3671 16.3048 60.2421 16.8398 60.2421 17.4398C60.2421 18.0398 60.3671 18.5748 60.6171 19.0448C60.8771 19.5148 61.2271 19.8798 61.6671 20.1398C62.1171 20.3898 62.6221 20.5148 63.1821 20.5148ZM78.414 17.3048C79.484 17.5548 80.019 18.1998 80.019 19.2398C80.019 19.9298 79.764 20.4598 79.254 20.8298C78.744 21.1998 77.984 21.3848 76.974 21.3848H73.389V13.4948H76.869C77.769 13.4948 78.474 13.6698 78.984 14.0198C79.494 14.3698 79.749 14.8698 79.749 15.5198C79.749 15.9498 79.629 16.3198 79.389 16.6298C79.159 16.9298 78.834 17.1548 78.414 17.3048ZM74.424 17.0048H76.794C77.404 17.0048 77.869 16.8898 78.189 16.6598C78.519 16.4298 78.684 16.0948 78.684 15.6548C78.684 15.2148 78.519 14.8848 78.189 14.6648C77.869 14.4448 77.404 14.3348 76.794 14.3348H74.424V17.0048ZM76.929 20.5448C77.609 20.5448 78.119 20.4348 78.459 20.2148C78.799 19.9948 78.969 19.6498 78.969 19.1798C78.969 18.7098 78.814 18.3648 78.504 18.1448C78.194 17.9148 77.704 17.7998 77.034 17.7998H74.424V20.5448H76.929Z" fill="white"/>
<path d="M94.7584 6.0835C95.581 6.0835 96.4036 6.17139 97.1348 6.34718C97.866 6.52298 98.643 6.83061 99.4656 7.22615V10.3025C98.6887 9.81909 97.866 9.4675 96.9977 9.15987C96.1294 8.85223 95.3525 8.72039 94.667 8.72039C94.0728 8.72039 93.6158 8.80828 93.2959 9.02802C92.976 9.24776 92.7932 9.5554 92.7932 9.90699C92.7932 10.1267 92.9303 10.3465 93.2045 10.5662C93.4787 10.7859 94.2099 11.1815 95.4439 11.7968C97.1805 12.6318 98.4145 13.4228 99.1 14.126C99.7855 14.8292 100.151 15.7081 100.151 16.719C100.151 18.1253 99.6484 19.224 98.5973 20.059C97.5918 20.8501 96.1751 21.2896 94.4385 21.2896C93.3416 21.2896 92.3362 21.1577 91.3765 20.938C90.4167 20.7182 89.6398 20.4106 89.0457 20.103V16.8947C91.1023 17.9934 92.7475 18.4769 94.0728 18.4769C94.7584 18.4769 95.3068 18.345 95.7181 18.1253C96.1294 17.9056 96.3579 17.5979 96.3579 17.2024C96.3579 16.9826 96.2665 16.7629 96.1294 16.5871C95.9923 16.4113 95.7638 16.1916 95.4439 16.0158C95.124 15.796 94.1642 15.3566 92.5647 14.5655C91.3308 13.9942 90.4167 13.3789 89.8226 12.7197C89.2742 12.0604 89 11.2694 89 10.3465C89 9.02802 89.5484 8.01721 90.5995 7.22615C91.6507 6.47903 93.0217 6.0835 94.7584 6.0835Z" fill="white"/>
<path d="M108.413 6.0835C110.54 6.0835 112.232 6.7887 113.491 8.15505C114.75 9.52139 115.357 11.4607 115.357 13.8849V14.4578H105.071C105.245 15.7801 105.722 16.7939 106.503 17.4991C107.328 18.2043 108.413 18.5569 109.845 18.5569C110.757 18.5569 111.625 18.3806 112.493 18.072C113.317 17.7635 114.229 17.2787 115.097 16.6176V19.4825C113.404 20.7166 111.321 21.2896 108.934 21.2896C106.634 21.2896 104.767 20.5843 103.335 19.1739C101.903 17.7635 101.165 15.9123 101.165 13.5763C101.165 11.3285 101.816 9.52139 103.162 8.11097C104.507 6.70055 106.286 6.0835 108.413 6.0835ZM111.755 12.1659C111.668 11.1081 111.321 10.2707 110.8 9.65361C110.279 9.03656 109.542 8.72803 108.587 8.72803C107.632 8.72803 106.851 9.03656 106.286 9.60954C105.722 10.1825 105.332 11.02 105.158 12.1659H111.755Z" fill="white"/>
<path d="M129.55 6.84206C129.272 6.66369 129.041 6.52991 128.809 6.44072C128.3 6.21776 127.745 6.08398 127.19 6.08398C126.311 6.08398 125.478 6.39613 124.737 7.06502C123.997 7.68932 123.257 8.75954 122.516 10.1865H122.47V6.39613H118.398V21.29H122.47V14.4674C122.47 13.7093 122.655 12.9958 123.025 12.2378C123.396 11.4797 123.905 10.9 124.506 10.4541C125.108 10.0081 125.755 9.78517 126.357 9.78517C126.866 9.78517 127.514 10.0081 128.254 10.4541L129.55 6.84206Z" fill="white"/>
<path d="M154.577 6.08398C156.22 6.08398 157.498 6.61909 158.502 7.64472C159.46 8.67035 159.962 10.0527 159.962 11.7918V21.2455H155.946V12.1932C155.946 11.2121 155.718 10.4541 155.216 9.91894C154.76 9.33924 154.121 9.07169 153.299 9.07169C152.66 9.07169 152.113 9.25006 151.565 9.6068C151.017 9.96354 150.424 10.5432 149.785 11.3905V21.29H145.77V6.35154H149.785V8.44739C150.516 7.60013 151.291 6.97584 152.067 6.6191C152.843 6.26235 153.664 6.08398 154.577 6.08398Z" fill="white"/>
<path d="M173.774 3.04199H174.076V6.82756H181.249V9.67736H174.076V16.2277C174.076 16.8657 174.292 17.3761 174.681 17.7589C175.07 18.1417 175.589 18.3544 176.28 18.3544C177.144 18.3544 178.181 18.0566 179.348 17.4186V20.396C177.965 20.9915 176.712 21.2893 175.502 21.2893C173.86 21.2893 172.607 20.8639 171.7 19.9707C170.792 19.0775 170.317 17.929 170.317 16.4403V9.63483H168.07V9.03935L173.774 3.04199Z" fill="white"/>
<path d="M182.626 7.0957L186.298 14.7139L190.016 7.0957H194.431L183.695 28.3842H179.326L184.253 18.6499L178.211 7.0957H182.626Z" fill="white"/>
<path d="M136.778 6.08398C138.911 6.08398 140.609 6.78919 141.871 8.15553C143.134 9.52188 143.743 11.4612 143.743 13.8854V14.4583H133.469C133.643 15.7806 134.122 16.7943 134.906 17.4995C135.733 18.2048 136.821 18.5574 138.258 18.5574C139.172 18.5574 140.043 18.3811 140.913 18.0725C141.741 17.764 142.655 17.2792 143.525 16.618V19.4829C141.828 20.7171 139.738 21.29 137.343 21.29C135.036 21.29 133.164 20.5848 131.728 19.1744C130.291 17.764 129.551 15.9128 129.551 13.5768C129.551 11.329 130.204 9.52188 131.553 8.11146C132.903 6.70104 134.644 6.08398 136.778 6.08398ZM140.13 12.1664C140.043 11.1086 139.694 10.2712 139.172 9.6541C138.65 9.03705 137.909 8.72852 136.952 8.72852C135.994 8.72852 135.21 9.03705 134.644 9.61003C134.078 10.183 133.687 11.0204 133.512 12.1664H140.13Z" fill="white"/>
<path d="M163.995 0C164.569 0 165.019 0.21812 165.429 0.654359C165.838 1.0906 166.043 1.57046 166.043 2.1812C166.043 2.74831 165.838 3.2718 165.47 3.70804C165.06 4.14428 164.61 4.36239 164.036 4.36239C163.504 4.36239 163.012 4.14428 162.603 3.70804C162.193 3.2718 161.988 2.74831 161.988 2.1812C161.988 1.57046 162.193 1.04697 162.603 0.654359C163.012 0.21812 163.463 0 163.995 0ZM165.797 21.2885H162.193V6.71809H165.797V21.2885Z" fill="white"/>
</svg>
