<svg width="205" height="133" viewBox="0 0 205 133" fill="none" xmlns="http://www.w3.org/2000/svg">
<path d="M148.243 62.0851L145.525 82.495L160.039 71.8986L204.506 49.252L170.126 52.3833C170.126 52.3833 152.614 56.6331 151.661 57.4998C150.709 58.3665 148.243 62.0851 148.243 62.0851Z" fill="#EB5806"/>
<path d="M148.368 61.5436L199.916 49.7861L134.403 50.2728L148.368 61.5436Z" fill="white" stroke="#EB5806"/>
<path d="M202.6 50.4549L153.488 67.793L171.181 81.9642L202.6 50.4549Z" fill="white" stroke="#EB5806"/>
<path d="M8.16993 51.8372L9.82944 52.1656C9.47708 53.885 9.38145 55.6656 9.52332 57.4478L7.83982 57.5745C7.67945 55.6535 7.7965 53.695 8.16993 51.8372Z" fill="#808D9A" fill-opacity="0.44"/>
<path d="M11.0262 68.2454L12.5176 67.4841C13.995 70.3841 16.0062 73.3473 18.4928 76.2743L17.1963 77.3537C14.6317 74.3074 12.562 71.2448 11.0262 68.2454ZM24.9422 85.1471L26.0229 83.8485C26.3766 84.1281 26.7499 84.4276 27.1036 84.7072C28.3414 85.6857 29.6592 86.5857 31.0369 87.4267C32.2965 88.1877 33.6157 88.9293 34.9557 89.5722L34.2093 91.0909C32.8102 90.4278 31.4318 89.666 30.1329 88.8651C28.716 87.9842 27.3591 87.0444 26.062 86.0457C25.7083 85.7661 25.3155 85.4466 24.9422 85.1471ZM44.9765 93.2056C48.3136 94.0407 51.8712 94.5805 55.5501 94.844L55.4356 96.5255C51.6775 96.2614 48.0212 95.7011 44.5853 94.8456L44.9765 93.2056ZM85.2714 59.1323C85.8943 58.1274 87.9323 56.0439 90.0549 55.5245C91.6418 55.1399 93.4023 55.2513 95.0988 55.8571L94.53 57.4364C93.0899 56.9314 91.7052 56.8425 90.4357 57.1501C88.9083 57.5154 87.1906 59.2053 86.6883 60.0132C86.628 60.1117 86.6077 60.171 86.6077 60.171C86.587 60.2698 86.5663 60.3686 86.5456 60.4674L84.9061 60.1193C84.9268 60.0205 84.9478 59.8821 84.9685 59.7833C85.0299 59.566 85.1109 59.3687 85.2714 59.1323ZM66.2778 94.8012C69.7835 94.5291 73.3702 94.0597 76.9395 93.3329L77.2608 94.9779C73.6319 95.7241 69.9857 96.2129 66.4008 96.4844L66.2778 94.8012ZM87.1996 71.0804L88.6133 70.1602C89.179 71.0548 89.8443 71.8908 90.5697 72.6282C91.609 73.6846 92.8076 74.6233 94.1457 75.464C94.8738 75.9243 95.6617 76.3258 96.4697 76.7075L95.7629 78.2265C94.8958 77.8245 94.049 77.3633 93.2617 76.8827C91.8053 76.0016 90.489 74.9433 89.3713 73.8073C88.5674 72.9901 87.8238 72.0744 87.1996 71.0804ZM101.373 64.3922L102.962 63.8492C104.118 67.1824 104.022 71.1995 102.722 74.832L102.64 75.0689L101.062 74.5036L101.143 74.2666C102.322 70.9895 102.394 67.388 101.373 64.3922ZM86.7535 89.3648C89.5777 87.8807 91.7072 86.6093 92.5657 85.8039C93.5637 84.9005 94.4621 84.0558 95.2618 83.1907L96.4782 84.3472C95.619 85.2317 94.7202 86.116 93.6627 87.0387C92.3255 88.2366 89.2224 89.9167 87.492 90.8347L86.7535 89.3648ZM106.678 79.2933C110.198 79.5953 113.743 79.3631 117.234 78.6357L117.594 80.281C113.946 81.0469 110.242 81.2779 106.544 80.9549L106.678 79.2933Z" fill="#808D9A" fill-opacity="0.44"/>
<path d="M127.123 74.9452C128.715 74.0461 130.229 73.0276 131.624 71.9292L132.681 73.2429C131.225 74.4003 129.652 75.4777 127.941 76.4156L127.123 74.9452Z" fill="#808D9A" fill-opacity="0.44"/>
</svg>
