<svg width="327" height="316" viewBox="0 0 327 316" fill="none" xmlns="http://www.w3.org/2000/svg">
<g filter="url(#filter0_b_167:4)">
<path d="M318.547 158C318.547 70.8807 247.09 0 159.262 0C71.4333 0 0 70.9048 0 158C0 245.095 71.4576 316 159.286 316C174.418 316 189.38 313.904 203.783 309.736L221.319 304.676L186.198 259.069L178.644 260.466C172.305 261.647 165.795 262.225 159.286 262.225C101.333 262.225 54.1883 215.461 54.1883 157.976C54.1883 100.491 101.333 53.7268 159.286 53.7268C217.239 53.7268 264.383 100.491 264.383 157.976C264.383 182.334 255.664 205.896 240.143 224.496H181.316L253.211 314.458L253.526 314.506L254.717 315.976H327L281.58 259.165C305.286 230.977 318.547 195.223 318.547 158Z" fill="#004989" fill-opacity="0.28"/>
</g>
<defs>
<filter id="filter0_b_167:4" x="-4" y="-4" width="335" height="324" filterUnits="userSpaceOnUse" color-interpolation-filters="sRGB">
<feFlood flood-opacity="0" result="BackgroundImageFix"/>
<feGaussianBlur in="BackgroundImage" stdDeviation="2"/>
<feComposite in2="SourceAlpha" operator="in" result="effect1_backgroundBlur_167:4"/>
<feBlend mode="normal" in="SourceGraphic" in2="effect1_backgroundBlur_167:4" result="shape"/>
</filter>
</defs>
</svg>
