<svg width="495" height="478" viewBox="0 0 495 478" fill="none" xmlns="http://www.w3.org/2000/svg">
<path d="M481.517 239.086C481.517 107.678 373.655 0.763184 241.082 0.763184C108.51 0.763184 0.684082 107.714 0.684082 239.086C0.684082 370.457 108.546 477.408 241.119 477.408C263.96 477.408 286.544 474.246 308.285 467.959L334.756 460.328L281.742 391.535L270.339 393.643C260.77 395.423 250.945 396.295 241.119 396.295C153.642 396.295 82.4789 325.758 82.4789 239.049C82.4789 152.34 153.642 81.803 241.119 81.803C328.597 81.803 399.759 152.34 399.759 239.049C399.759 275.79 386.597 311.331 363.17 339.386H274.372L382.894 475.082L383.371 475.155L385.168 477.372H494.276L425.717 391.68C461.5 349.162 481.517 295.232 481.517 239.086Z" fill="white" fill-opacity="0.11"/>
</svg>
