<svg width="194" height="133" viewBox="0 0 194 133" fill="none" xmlns="http://www.w3.org/2000/svg">
<path d="M8.10444 52.2652L9.76657 52.58C9.42825 54.3023 9.34716 56.0836 9.50356 57.8646L7.82116 58.005C7.64511 56.0854 7.74618 54.126 8.10444 52.2652Z" fill="#808D9A" fill-opacity="0.44"/>
<path d="M11.0937 68.6491L12.5789 67.8756C14.0799 70.7635 16.1152 73.7102 18.6256 76.6168L17.338 77.7067C14.7486 74.6814 12.654 71.6359 11.0937 68.6491ZM25.1472 85.4366L26.2173 84.1293C26.5732 84.406 26.949 84.7024 27.3049 84.9791C28.5507 85.9475 29.8758 86.8367 31.2602 87.6665C32.5261 88.4172 33.8513 89.148 35.1964 89.7799L34.4625 91.3046C33.058 90.653 31.6734 89.9024 30.3681 89.1122C28.944 88.2429 27.5794 87.3142 26.2743 86.326C25.9184 86.0493 25.5229 85.7331 25.1472 85.4366ZM45.2465 93.3314C48.5904 94.1392 52.1523 94.65 55.8332 94.8835L55.7324 96.5658C51.9723 96.3324 48.3115 95.802 44.8687 94.9745L45.2465 93.3314ZM85.2621 58.9305C85.8768 57.9205 87.8977 55.8204 90.016 55.2837C91.5997 54.8862 93.361 54.9832 95.0624 55.5751L94.5066 57.159C93.0623 56.6658 91.677 56.5882 90.4101 56.9062C88.8857 57.2839 87.1818 58.9878 86.6862 59.7997C86.6267 59.8988 86.6068 59.9582 86.6068 59.9582C86.5869 60.0571 86.567 60.1561 86.5471 60.2551L84.9048 59.9204C84.9247 59.8214 84.9447 59.6829 84.9646 59.5839C85.0242 59.3661 85.1035 59.1681 85.2621 58.9305ZM66.5602 94.7531C70.0636 94.4525 73.6463 93.9538 77.2096 93.1979L77.5443 94.8402C73.9216 95.616 70.2795 96.1345 66.6969 96.4352L66.5602 94.7531ZM87.2877 70.8624L88.6939 69.9307C89.2669 70.8207 89.9389 71.6512 90.6704 72.3827C91.7182 73.4305 92.9245 74.3594 94.2694 75.1892C95.0012 75.6436 95.7924 76.0385 96.6034 76.4137L95.9091 77.9384C95.0387 77.5435 94.1881 77.0892 93.397 76.6151C91.9334 75.7458 90.6085 74.6983 89.4816 73.5714C88.6711 72.7609 87.92 71.8513 87.2877 70.8624ZM101.406 64.0587L102.99 63.5029C104.174 66.8265 104.11 70.8442 102.84 74.4872L102.76 74.7248L101.178 74.1723L101.257 73.9347C102.408 70.6481 102.452 67.0461 101.406 64.0587ZM86.9909 89.1499C89.8029 87.6427 91.9219 86.354 92.7738 85.5416C93.7644 84.6301 94.6559 83.7781 95.4485 82.9065L96.6743 84.053C95.8223 84.9446 94.9307 85.8361 93.8808 86.7675C92.5535 87.9762 89.4642 89.6816 87.7413 90.6136L86.9909 89.1499ZM106.833 78.9161C110.355 79.1894 113.898 78.9283 117.382 78.1724L117.757 79.8147C114.114 80.6103 110.413 80.8716 106.712 80.5787L106.833 78.9161Z" fill="#808D9A" fill-opacity="0.44"/>
<path d="M127.242 74.4017C128.826 73.4896 130.332 72.4588 131.718 71.349L132.785 72.654C131.339 73.8233 129.775 74.9135 128.072 75.8653L127.242 74.4017Z" fill="#808D9A" fill-opacity="0.44"/>
<path d="M148 54H147V55V81.9V82.9H148H191.1H192.1V81.9V55V54H191.1H148Z" stroke="#EB5806" stroke-width="2"/>
<path d="M148 55H191.1L169.6 73.8L148 55Z" fill="#EB5806"/>
<path d="M148.7 82.6998C153.6 76.1998 158.4 69.6998 163.3 63.2998C164.2 62.0998 162.8 60.3998 161.9 61.5998C157 67.9998 152.1 74.4998 147.3 80.9998C146.4 82.1998 147.8 83.8998 148.7 82.6998Z" fill="#EB5806"/>
<path d="M191.499 80.9996C186.599 74.4996 181.799 67.9996 176.899 61.5996C175.999 60.3996 174.599 62.1996 175.499 63.2996C180.399 69.7996 185.199 76.2996 190.099 82.6996C190.999 83.8996 192.399 82.1996 191.499 80.9996Z" fill="#EB5806"/>
</svg>
