<svg width="21" height="29" viewBox="0 0 21 29" fill="none" xmlns="http://www.w3.org/2000/svg">
<path d="M10.4997 0C5.16958 0 0.833008 4.33658 0.833008 9.66669C0.833008 11.2668 1.23306 12.8533 1.99357 14.2605L9.97106 28.6885C10.0773 28.8808 10.2796 29 10.4997 29C10.7197 29 10.9221 28.8808 11.0283 28.6885L19.0088 14.2557C19.7663 12.8533 20.1664 11.2667 20.1664 9.66663C20.1664 4.33658 15.8298 0 10.4997 0ZM10.4997 14.5C7.83464 14.5 5.66638 12.3317 5.66638 9.66669C5.66638 7.00163 7.83464 4.83337 10.4997 4.83337C13.1647 4.83337 15.333 7.00163 15.333 9.66669C15.333 12.3317 13.1647 14.5 10.4997 14.5Z" fill="black"/>
</svg>
