<svg width="25" height="15" viewBox="0 0 25 15" xmlns="http://www.w3.org/2000/svg">
<path d="M23.9541 11.9441C23.2128 11.0476 22.3339 10.2791 21.5079 9.45726C20.7561 8.7208 20.7137 8.29386 21.3173 7.45067C21.9738 6.52208 22.6833 5.6362 23.3399 4.71829C23.9541 3.85374 24.5894 2.99988 24.9177 1.96456C25.1295 1.31349 24.9389 1.01463 24.2717 0.907898C24.1553 0.886551 24.0388 0.886552 23.9223 0.886552H19.9618C19.4747 0.875878 19.1994 1.08935 19.03 1.52695C18.797 2.11399 18.5534 2.70102 18.2781 3.27738C17.6533 4.56886 16.9439 5.80697 15.959 6.86363C15.7472 7.09845 15.5037 7.38663 15.1331 7.26922C14.6777 7.09845 14.5401 6.35131 14.5506 6.09515V1.48426C14.4659 0.822511 14.3177 0.53433 13.6717 0.40625H9.56301C9.01236 0.40625 8.73704 0.619717 8.45112 0.961265C8.28169 1.16406 8.22875 1.29214 8.5782 1.35618C9.26651 1.48426 9.64773 1.93254 9.75362 2.61564C9.91247 3.71499 9.90188 4.82502 9.81716 5.93505C9.78539 6.25525 9.73244 6.57545 9.60537 6.88498C9.40417 7.36528 9.08649 7.45067 8.66291 7.16249C8.28169 6.89565 8.01696 6.52208 7.75222 6.14852C6.74622 4.75031 5.96261 3.23469 5.31665 1.64436C5.12604 1.18541 4.80836 0.907898 4.33183 0.897225C3.14581 0.875878 1.9598 0.875878 0.763191 0.897225C0.0536981 0.907898 -0.16868 1.26012 0.127824 1.91119C1.41974 4.81435 2.8599 7.63211 4.73423 10.2044C5.69787 11.5279 6.80976 12.6913 8.23934 13.5131C9.85952 14.4524 11.6068 14.7299 13.4493 14.6445C14.3071 14.6018 14.5718 14.3777 14.6142 13.5131C14.6459 12.9261 14.7095 12.3284 14.9954 11.8054C15.2813 11.2824 15.7049 11.1863 16.2026 11.5065C16.4461 11.6666 16.6579 11.8801 16.8591 12.0936C17.3463 12.6272 17.8122 13.1823 18.3205 13.6946C18.9558 14.3457 19.6971 14.7299 20.6396 14.6445H24.2823C24.8648 14.6018 25.1718 13.876 24.833 13.225C24.6 12.7553 24.2823 12.3391 23.9541 11.9441Z"/>
</svg>
