<svg width="81" height="80" viewBox="0 0 81 80" fill="none" xmlns="http://www.w3.org/2000/svg">
<path fill-rule="evenodd" clip-rule="evenodd" d="M40.4972 4C45.3738 4 49.3191 7.96905 49.3191 12.853V48.7701C53.0666 51.505 55.5 55.9398 55.5 60.9472C55.5 69.2565 48.7902 76 40.5 76C32.2101 76 25.5 69.2569 25.5 60.9472C25.5 55.9362 27.9334 51.5049 31.6809 48.7701V12.853C31.6809 7.96897 35.6263 4 40.5028 4H40.4972ZM37.6387 32.5978V51.8116L35.1891 53.6024C32.84 55.3183 31.461 58.0273 31.461 60.9447C31.461 65.9556 35.507 70.0127 40.4973 70.0127C45.4906 70.0127 49.5335 65.9525 49.5335 60.9447C49.5335 58.0273 48.1545 55.3183 45.8054 53.6024L43.3558 51.8116V32.5978H37.6387ZM40.4972 7.9918C37.8236 7.9918 35.6563 10.1668 35.6563 12.8497V50.8015L34.021 51.9932C31.1625 54.0868 29.4785 57.3851 29.4785 60.9437C29.4785 67.0519 34.4135 72.0047 40.5007 72.0047C46.588 72.0047 51.523 67.0523 51.523 60.9437C51.523 57.3849 49.8358 54.0833 46.9805 51.9932L45.3452 50.8015V12.8497C45.3452 10.1667 43.1778 7.9918 40.5043 7.9918H40.4972Z" fill="#EC6624"/>
</svg>
