<svg width="80" height="80" viewBox="0 0 80 80" fill="none" xmlns="http://www.w3.org/2000/svg">
<path d="M67.1175 49.6475L59.6952 45.1095L67.1175 40.5714C67.4949 40.3712 67.6207 39.8373 67.3691 39.5036L65.9224 36.8342C65.7337 36.4338 65.2305 36.3003 64.916 36.5673L55.2921 42.5068L44.9134 36.0334L55.2921 29.6267L64.7902 35.4327C65.1676 35.6329 65.6079 35.4995 65.7966 35.1658L67.2433 32.4963C67.432 32.0959 67.3062 31.6288 66.9917 31.4286L59.6952 26.9572L67.0546 22.4859C67.432 22.2857 67.5578 21.7518 67.3062 21.4181L65.8595 18.7487C65.6708 18.3483 65.1676 18.2148 64.8531 18.4818L57.4936 22.8863V13.8102C57.4936 13.3431 57.1791 13.0094 56.7388 13.0094H53.7825C53.3422 13.0094 53.0276 13.3431 53.0276 13.8102V25.6225L42.7119 31.9625V19.8832L52.2728 14.0104C52.6502 13.8102 52.776 13.2763 52.5244 12.9426L51.0777 10.2732C50.889 9.87278 50.3858 9.73931 50.0713 10.0063L42.7119 14.5443V4.80083C42.7119 4.33368 42.3974 4 41.9571 4H39.0007C38.5604 4 38.2459 4.33368 38.2459 4.80083V14.4108L30.8865 9.87278C30.5091 9.67258 30.0687 9.80605 29.88 10.1397L28.4333 12.8092C28.2446 13.2096 28.3704 13.6767 28.6849 13.877L38.2459 19.7497V31.829L28.3704 25.756V14.1439C28.3704 13.6767 28.0559 13.3431 27.6156 13.3431H24.6593C24.2189 13.3431 23.9044 13.6767 23.9044 14.1439V23.1533L16.0418 18.3483C15.6644 18.1481 15.2241 18.2815 15.0354 18.6152L13.5887 21.2847C13.4 21.6851 13.5258 22.1522 13.8403 22.3524L21.7029 27.1575L14.4064 31.7622C14.029 31.9625 13.9032 32.4963 14.1548 32.83L15.6015 35.4995C15.7902 35.8999 16.2934 36.0334 16.6079 35.7664L26.1689 29.8936L36.0444 36.0334L26.1689 42.1064L16.6079 36.2336C16.2305 36.0334 15.7902 36.1668 15.6015 36.5005L14.1548 39.17C13.9661 39.5704 14.0919 40.0375 14.4064 40.2377L21.7658 44.7758L13.9032 49.6475C13.5258 49.8478 13.4 50.3816 13.6516 50.7153L15.0983 53.3848C15.287 53.7852 15.7902 53.9187 16.1047 53.6517L23.9673 48.8467V57.8561C23.9673 58.3232 24.2818 58.6569 24.7222 58.6569H27.6785C28.1188 58.6569 28.4333 58.3232 28.4333 57.8561V46.1773L38.3088 40.1043V52.8509L28.8107 58.6569C28.4333 58.8571 28.3075 59.391 28.5591 59.7247L30.0058 62.3942C30.1946 62.7946 30.6978 62.928 31.0123 62.6611L38.3088 58.1898V67.1992C38.3088 67.6663 38.6233 68 39.0636 68H42.02C42.4603 68 42.7748 67.6663 42.7748 67.1992V58.1898L50.1342 62.7278C50.5116 62.928 50.9519 62.7946 51.1406 62.4609L52.5873 59.7914C52.776 59.391 52.6502 58.9239 52.3357 58.7237L42.7119 52.7841V40.1043L53.0905 46.5109V58.1898C53.0905 58.6569 53.4051 58.9906 53.8454 58.9906H56.8017C57.242 58.9906 57.5565 58.6569 57.5565 58.1898V49.1804L64.916 53.6517C65.2934 53.8519 65.7337 53.7185 65.9224 53.3848L67.3691 50.7153C67.5578 50.3149 67.432 49.8478 67.1175 49.6475Z" fill="#EC6624"/>
</svg>
