<svg width="22" height="21" viewBox="0 0 22 21" fill="none" xmlns="http://www.w3.org/2000/svg">
<path d="M20.7776 14.8887V17.5453C20.7787 17.7919 20.7226 18.0361 20.6129 18.262C20.5032 18.488 20.3423 18.6908 20.1405 18.8576C19.9388 19.0243 19.7005 19.1512 19.4411 19.2302C19.1817 19.3092 18.9069 19.3386 18.6341 19.3164C15.6085 19.0203 12.7022 18.0892 10.1487 16.5978C7.773 15.2382 5.75882 13.4242 4.24921 11.2846C2.5875 8.97445 1.55338 6.34423 1.23064 3.60706C1.20607 3.36218 1.23838 3.11538 1.32552 2.88236C1.41266 2.64935 1.55272 2.43522 1.73678 2.25363C1.92084 2.07204 2.14487 1.92695 2.3946 1.8276C2.64433 1.72826 2.91429 1.67683 3.1873 1.6766H6.13704C6.61422 1.67237 7.07682 1.82455 7.43863 2.10478C7.80044 2.38501 8.03676 2.77417 8.10354 3.19971C8.22804 4.04988 8.45894 4.88464 8.79181 5.68806C8.9241 6.00501 8.95273 6.34947 8.87432 6.68063C8.7959 7.01179 8.61371 7.31576 8.34935 7.55653L7.10063 8.68115C8.50034 10.8981 10.5385 12.7337 13.0001 13.9943L14.2488 12.8697C14.5162 12.6316 14.8537 12.4676 15.2214 12.3969C15.5891 12.3263 15.9716 12.3521 16.3235 12.4712C17.2156 12.771 18.1424 12.979 19.0864 13.0911C19.564 13.1518 20.0003 13.3685 20.3121 13.6999C20.6239 14.0313 20.7896 14.4544 20.7776 14.8887Z" stroke="#5476FF" stroke-linecap="round" stroke-linejoin="round"/>
</svg>