<svg width="32" height="32" viewBox="0 0 32 32" fill="none" xmlns="http://www.w3.org/2000/svg">
<rect width="32" height="32" rx="10" fill="#D7D6D6"/>
<g clip-path="url(#clip0_4887_84267)">
<path d="M23.0147 20.05C23.8697 18.5691 23.3609 16.6704 21.88 15.8154L18.4159 13.8154L19.3659 12.1699L22.83 14.1699C25.2203 15.5499 26.0402 18.6098 24.6602 21C23.2802 23.3903 20.2203 24.2102 17.83 22.8302L14.3659 20.8302L15.3159 19.1847L18.78 21.1847C20.2609 22.0397 22.1597 21.531 23.0147 20.05ZM18.964 18.8661L12.0358 14.8661L13.0358 13.134L19.964 17.134L18.964 18.8661ZM14.1698 9.16992L17.6339 11.1699L16.6839 12.8154L13.2198 10.8154C11.7389 9.96037 9.8401 10.4691 8.9851 11.95C8.1301 13.431 8.63887 15.3297 10.1198 16.1847L13.5839 18.1847L12.6339 19.8302L9.16978 17.8302C6.77955 16.4502 5.95965 13.3903 7.33965 11C8.71965 8.60982 11.7795 7.78992 14.1698 9.16992Z" fill="#F8F9FA"/>
</g>
<defs>
<clipPath id="clip0_4887_84267">
<rect width="24" height="24" fill="white" transform="translate(4 4)"/>
</clipPath>
</defs>
</svg>
