<svg width="24" height="24" viewBox="0 0 24 24" fill="none" xmlns="http://www.w3.org/2000/svg">
<g clip-path="url(#clip0_942_4253)">
<circle cx="11.8519" cy="11.8519" r="11.2519" stroke="#EB5806" stroke-width="1.2"/>
<path d="M11.8503 10.1013C11.2749 10.1013 10.8086 10.5677 10.8086 11.143V17.851C10.8086 18.4263 11.2749 18.8926 11.8503 18.8926C12.4256 18.8926 12.8919 18.4262 12.8919 17.8509V11.143C12.8919 10.5677 12.4256 10.1013 11.8503 10.1013Z" fill="#EB5806"/>
<path d="M11.8516 8.82568C12.6282 8.82568 13.2578 8.19608 13.2578 7.41943C13.2578 6.64278 12.6282 6.01318 11.8516 6.01318C11.0749 6.01318 10.4453 6.64278 10.4453 7.41943C10.4453 8.19608 11.0749 8.82568 11.8516 8.82568Z" fill="#EB5806"/>
</g>
<defs>
<clipPath id="clip0_942_4253">
<rect width="24" height="24" fill="white"/>
</clipPath>
</defs>
</svg>
