<svg width="56" height="56" viewBox="0 0 56 56" fill="none" xmlns="http://www.w3.org/2000/svg">
<path d="M16.8 44.8C13.72 44.8 11.228 47.32 11.228 50.4C11.228 53.48 13.72 56 16.8 56C19.88 56 22.4 53.48 22.4 50.4C22.4 47.32 19.88 44.8 16.8 44.8ZM0 0V5.6H5.6L15.68 26.852L11.9 33.712C11.452 34.496 11.2 35.42 11.2 36.4C11.2 39.48 13.72 42 16.8 42H50.4V36.4H17.976C17.584 36.4 17.276 36.092 17.276 35.7L17.36 35.364L19.88 30.8H40.74C42.84 30.8 44.688 29.652 45.64 27.916L55.664 9.744C55.888 9.352 56 8.876 56 8.4C56 6.86 54.74 5.6 53.2 5.6H11.788L9.156 0H0ZM44.8 44.8C41.72 44.8 39.228 47.32 39.228 50.4C39.228 53.48 41.72 56 44.8 56C47.88 56 50.4 53.48 50.4 50.4C50.4 47.32 47.88 44.8 44.8 44.8Z" fill="black"/>
</svg>
