<svg width="48" height="45" viewBox="0 0 48 45" fill="none" xmlns="http://www.w3.org/2000/svg">
<path d="M5.79088 45V0H27.4745C33.7373 0 38.7131 1.24286 42.4021 3.72857C46.134 6.21429 48 10.0714 48 15.3C48 20.4857 46.134 24.3429 42.4021 26.8714C38.7131 29.3571 33.7373 30.6 27.4745 30.6H14.2198L20.9759 24.1071V45H5.79088ZM20.9759 25.7786L14.2198 19.2857H27.2815C28.9973 19.2857 30.3271 18.9643 31.2708 18.3214C32.2145 17.6786 32.6863 16.7357 32.6863 15.4929C32.6863 14.25 32.2145 13.3071 31.2708 12.6643C30.3271 12.0214 28.9973 11.7 27.2815 11.7H14.2198L20.9759 4.82143V25.7786ZM0 41.1429V33.9429H34.4879V41.1429H0Z" fill="black"/>
</svg>
