<svg width="66" height="48" viewBox="0 0 66 48" fill="none" xmlns="http://www.w3.org/2000/svg">
<path d="M57 12H48V0H6C2.7 0 0 2.7 0 6V39H6C6 43.98 10.02 48 15 48C19.98 48 24 43.98 24 39H42C42 43.98 46.02 48 51 48C55.98 48 60 43.98 60 39H66V24L57 12ZM15 43.5C12.51 43.5 10.5 41.49 10.5 39C10.5 36.51 12.51 34.5 15 34.5C17.49 34.5 19.5 36.51 19.5 39C19.5 41.49 17.49 43.5 15 43.5ZM55.5 16.5L61.38 24H48V16.5H55.5ZM51 43.5C48.51 43.5 46.5 41.49 46.5 39C46.5 36.51 48.51 34.5 51 34.5C53.49 34.5 55.5 36.51 55.5 39C55.5 41.49 53.49 43.5 51 43.5Z" fill="black"/>
</svg>
