<svg width="47" height="57" viewBox="0 0 47 57" fill="none" xmlns="http://www.w3.org/2000/svg">
<path fill-rule="evenodd" clip-rule="evenodd" d="M0 10.2727L23.1136 0L46.2273 10.2727V25.6818C46.2273 39.9352 36.3655 53.2641 23.1136 56.5C9.86182 53.2641 0 39.9352 0 25.6818V10.2727ZM12.1354 38.131H9.40178V23.0217H12.1354C12.8871 23.0217 13.5022 23.6398 13.5022 24.3953V36.7574C13.5022 37.5129 12.8871 38.131 12.1354 38.131ZM36.7377 27.2523C36.7377 27.6369 36.6557 28.0078 36.5053 28.3512L32.8697 36.7986C32.3776 37.6227 31.4755 38.131 30.5188 38.131H19.4341C17.6709 38.131 16.2358 36.6887 16.2358 34.9305V24.1618C16.2358 23.4338 16.5228 22.7333 17.0422 22.2113L25.8033 13.4068L26.4321 14.0523C26.9241 14.5468 27.3205 15.11 27.6348 15.7281C27.7715 16.0028 27.8125 16.3325 27.7442 16.6346L26.4867 23.0217H34.0041C35.5076 23.0217 36.7377 24.2579 36.7377 25.7689V27.2523Z" fill="black"/>
</svg>
