<svg width="340" height="35" viewBox="0 0 340 35" fill="none" xmlns="http://www.w3.org/2000/svg">
<path d="M14.08 31.2973C7.55508 31.2973 5.24931 28.3856 5.24931 20.1905V14.3658C5.24931 6.17072 7.55508 3.25768 14.08 3.25768H38.7085V0H13.4422C3.18896 0 0 4.14638 0 17.2775C0 30.3597 3.18896 34.5563 13.4422 34.5563H40.8673V15.6493H35.5681V31.2973H14.08ZM72.0665 0H68.2883L47.8304 34.5563H51.707L57.7411 24.2881H80.4562L86.4903 34.5563H92.5244L72.0665 0ZM78.5429 21.029H59.6545L69.1229 4.93604L78.5429 21.029ZM127.176 35C137.38 35 140.618 30.9527 140.618 18.1173V0H135.368V20.6342C135.368 28.8293 133.063 31.7423 126.488 31.7423H113.88C107.355 31.7423 105.05 28.8293 105.05 20.6342V0H99.8004V18.1173C99.8004 30.9527 102.989 35 113.243 35H127.176ZM148.816 3.25768H166.674V34.5563H171.923V3.25768H189.78V0H148.816V3.25768Z" fill="black"/>
<path fill-rule="evenodd" clip-rule="evenodd" d="M340 8.75C340 3.92115 336.103 0 331.304 0H211.7C206.901 0 203.004 3.92115 203.004 8.75V26.25C203.004 31.0788 206.901 35 211.7 35H331.304C336.103 35 340 31.0788 340 26.25V8.75Z" fill="#908A8B"/>
<path d="M238.39 17.0718C238.39 23.1596 237.444 25.0192 232.89 25.0192H232.296L235.376 28.3619H232.516L229.634 25.0192H229.238C224.684 25.0192 223.716 23.1596 223.716 17.0718C223.716 10.984 224.684 9.12442 229.238 9.12442H232.89C237.444 9.12442 238.39 10.984 238.39 17.0718ZM229.48 23.5581H232.626C235.486 23.5581 236.146 22.2963 236.146 18.71V15.4336C236.146 11.8473 235.486 10.5855 232.626 10.5855H229.48C226.642 10.5855 225.982 11.8473 225.982 15.4336V18.71C225.982 22.2963 226.642 23.5581 229.48 23.5581Z" fill="white"/>
<path d="M250.368 25.0192H247.464C243.284 25.0192 241.964 23.5802 241.964 19.0863V9.32365H244.208V19.7062C244.208 22.6505 245.022 23.5581 247.662 23.5581H250.148C252.81 23.5581 253.624 22.6505 253.624 19.7062V9.32365H255.868V19.0863C255.868 23.5802 254.548 25.0192 250.368 25.0192Z" fill="white"/>
<path d="M266.691 9.32365L273.401 24.8199H270.981L269.045 20.3039H261.763L259.826 24.8199H258.22L264.909 9.32365H266.691ZM268.407 18.8207L265.393 11.8695L262.401 18.8207H268.407Z" fill="white"/>
<path d="M286.005 18.5329L289.899 24.8199H287.303L283.475 18.5329H278.481V24.8199H276.237V9.32365H285.675C288.271 9.32365 289.217 10.5412 289.217 13.9283C289.217 17.1603 288.359 18.4222 286.005 18.5329ZM284.729 10.7847H278.481V17.0718H284.729C286.379 17.0718 286.973 16.4077 286.973 14.5703V13.2863C286.973 11.4489 286.379 10.7847 284.729 10.7847Z" fill="white"/>
<path d="M291.586 10.7847V9.32365H305.557V10.7847H299.705V24.8199H297.439V10.7847H291.586Z" fill="white"/>
<path d="M320.254 9.32365V10.7847L310.134 23.3589H320.496V24.8199H307.296V23.3589L317.438 10.7847H307.692V9.32365H320.254Z" fill="white"/>
</svg>
