<svg width="334" height="35" viewBox="0 0 334 35" fill="none" xmlns="http://www.w3.org/2000/svg">
<path fill-rule="evenodd" clip-rule="evenodd" d="M334.001 9.0129C334.001 4.29863 330.172 0.47052 325.458 0.47052H207.964C203.25 0.47052 199.422 4.29863 199.422 9.0129V26.0977C199.422 30.8119 203.25 34.6401 207.964 34.6401H325.458C330.172 34.6401 334.001 30.8119 334.001 26.0977V9.0129Z" fill="black"/>
<path d="M221.519 24.896H217.932C213.458 24.896 212.507 23.0806 212.507 17.1372C212.507 11.1939 213.458 9.37844 217.932 9.37844H221.519C225.993 9.37844 226.922 11.1939 226.922 17.1372C226.922 23.0806 225.993 24.896 221.519 24.896ZM218.169 23.4696H221.26C224.069 23.4696 224.718 22.2377 224.718 18.7366V15.5379C224.718 12.0367 224.069 10.8048 221.26 10.8048H218.169C215.381 10.8048 214.733 12.0367 214.733 15.5379V18.7366C214.733 22.2377 215.381 23.4696 218.169 23.4696Z" fill="white"/>
<path d="M242.319 16.6185C243.616 17.0508 244.113 18.2179 244.113 20.4871C244.113 23.5345 243.141 24.7015 240.612 24.7015H230.627V9.57295H240.245C242.73 9.57295 243.724 10.6536 243.724 13.3983C243.724 15.1057 243.357 16.1431 242.319 16.6185ZM239.315 10.9994H232.832V16.035H239.315C240.893 16.035 241.52 15.5595 241.52 13.9602V13.0741C241.52 11.4748 240.893 10.9994 239.315 10.9994ZM241.887 20.8113V19.9036C241.887 18.045 241.282 17.483 239.704 17.483H232.832V23.2751H239.704C241.282 23.2751 241.887 22.6916 241.887 20.8113Z" fill="white"/>
<path d="M255.201 24.7015H246.815V23.2751H254.898C256.216 23.2751 256.757 22.8861 256.757 21.9136C256.757 21.2436 256.454 20.8329 254.466 19.4714C247.291 14.7815 246.642 14.198 246.642 12.5122C246.642 10.5239 247.874 9.57295 250.403 9.57295H258.01V10.9994H250.727C249.409 10.9994 248.868 11.3884 248.868 12.3177C248.868 12.9661 249.149 13.3983 251.159 14.7383C258.334 19.4498 258.961 20.0333 258.961 21.719C258.961 23.7074 257.708 24.7015 255.201 24.7015Z" fill="white"/>
<path d="M264.195 9.57295V24.7015H261.99V9.57295H264.195Z" fill="white"/>
<path d="M268.385 9.57295H276.382C280.856 9.57295 281.807 11.3668 281.807 17.1372C281.807 22.8861 280.856 24.7015 276.382 24.7015H268.385V9.57295ZM279.581 18.542V15.7324C279.581 12.2529 278.954 10.9994 276.144 10.9994H270.59V23.2751H276.144C278.954 23.2751 279.581 22.0216 279.581 18.542Z" fill="white"/>
<path d="M287.664 9.57295V24.7015H285.46V9.57295H287.664Z" fill="white"/>
<path d="M298.771 9.57295L305.363 24.7015H302.985L301.083 20.2926H293.93L292.028 24.7015H290.45L297.02 9.57295H298.771ZM300.457 18.8446L297.496 12.0584L294.557 18.8446H300.457Z" fill="white"/>
<path d="M310.094 9.57295L319.409 21.5245V9.57295H320.921V24.7015H318.976L309.661 12.75V24.7015H308.149V9.57295H310.094Z" fill="white"/>
<path d="M13.8315 31.0252C7.42177 31.0252 5.15669 28.1826 5.15669 20.182V14.4954C5.15669 6.49483 7.42177 3.6509 13.8315 3.6509H38.0255V0.47052H13.205C3.13269 0.47052 0 4.51852 0 17.3381C0 30.1099 3.13269 34.2069 13.205 34.2069H40.1462V15.7485H34.9405V31.0252H13.8315ZM70.7949 0.47052H67.0834L46.9864 34.2069H50.7947L56.7223 24.1823H79.0366L84.9642 34.2069H90.8918L70.7949 0.47052ZM77.157 21.0006H58.6019L67.9033 5.28944L77.157 21.0006ZM124.932 34.6401C134.956 34.6401 138.137 30.6888 138.137 18.158V0.47052H132.98V20.6151C132.98 28.6157 130.715 31.4597 124.256 31.4597H111.871C105.461 31.4597 103.196 28.6157 103.196 20.6151V0.47052H98.0394V18.158C98.0394 30.6888 101.172 34.6401 111.244 34.6401H124.932ZM146.19 3.6509H163.733V34.2069H168.89V3.6509H186.432V0.47052H146.19V3.6509Z" fill="black"/>
</svg>
