<svg width="342" height="35" viewBox="0 0 342 35" fill="none" xmlns="http://www.w3.org/2000/svg">
<path d="M14.1628 31.2973C7.59952 31.2973 5.28019 28.3856 5.28019 20.1905V14.3658C5.28019 6.17072 7.59952 3.25768 14.1628 3.25768H38.9362V0H13.5213C3.20772 0 0 4.14638 0 17.2775C0 30.3597 3.20772 34.5563 13.5213 34.5563H41.1077V15.6493H35.7773V31.2973H14.1628ZM72.4904 0H68.69L48.1117 34.5563H52.0112L58.0808 24.2881H80.9295L86.9991 34.5563H93.0687L72.4904 0ZM79.0049 21.029H60.0054L69.5296 4.93604L79.0049 21.029ZM127.924 35C138.188 35 141.445 30.9527 141.445 18.1173V0H136.165V20.6342C136.165 28.8293 133.845 31.7423 127.232 31.7423H114.55C107.987 31.7423 105.668 28.8293 105.668 20.6342V0H100.387V18.1173C100.387 30.9527 103.595 35 113.909 35H127.924ZM149.691 3.25768H167.655V34.5563H172.935V3.25768H190.897V0H149.691V3.25768Z" fill="black"/>
<path fill-rule="evenodd" clip-rule="evenodd" d="M342 8.75C342 3.92115 338.08 0 333.253 0H212.945C208.118 0 204.198 3.92115 204.198 8.75V26.25C204.198 31.0788 208.118 35 212.945 35H333.253C338.08 35 342 31.0788 342 26.25V8.75Z" fill="#A0403D"/>
<path d="M239.118 9.32365L245.868 24.8199H243.433L241.486 20.3039H234.161L232.213 24.8199H230.598L237.325 9.32365H239.118ZM240.844 18.8207L237.812 11.8695L234.803 18.8207H240.844Z" fill="white"/>
<path d="M251.132 9.32365L256.753 22.2741L262.374 9.32365H264.72V24.8199H262.441V13.1756L257.24 24.8199H255.448L250.269 13.1756V24.8199H248.72V9.32365H251.132Z" fill="white"/>
<path d="M280.964 16.5405C282.292 16.9832 282.801 18.1787 282.801 20.5031C282.801 23.6245 281.805 24.8199 279.216 24.8199H268.992V9.32365H278.839C281.384 9.32365 282.402 10.4305 282.402 13.242C282.402 14.9909 282.026 16.0535 280.964 16.5405ZM277.888 10.7847H271.249V15.9428H277.888C279.503 15.9428 280.145 15.4558 280.145 13.8176V12.9099C280.145 11.2718 279.503 10.7847 277.888 10.7847ZM280.521 20.8352V19.9054C280.521 18.0016 279.902 17.426 278.286 17.426H271.249V23.3589H278.286C279.902 23.3589 280.521 22.7611 280.521 20.8352Z" fill="white"/>
<path d="M286.497 9.32365H298.823V10.7847H288.754V15.9206H298.159V17.4039H288.754V23.3589H298.823V24.8199H286.497V9.32365Z" fill="white"/>
<path d="M311.904 18.5329L315.821 24.8199H313.21L309.359 18.5329H304.336V24.8199H302.078V9.32365H311.572C314.183 9.32365 315.135 10.5412 315.135 13.9283C315.135 17.1603 314.272 18.4222 311.904 18.5329ZM310.621 10.7847H304.336V17.0718H310.621C312.28 17.0718 312.878 16.4077 312.878 14.5703V13.2863C312.878 11.4489 312.28 10.7847 310.621 10.7847Z" fill="white"/>
</svg>
