<svg width="140" height="26" viewBox="0 0 140 26" fill="none" xmlns="http://www.w3.org/2000/svg">
<path d="M10.3868 23.2496C5.57341 23.2496 3.87243 21.086 3.87243 14.9986V10.6714C3.87243 4.58392 5.57341 2.42031 10.3868 2.42031H28.5547V0H9.91633C2.35241 0 0 3.08039 0 12.835C0 22.5529 2.35241 25.67 9.91633 25.67H30.1471V11.6248H26.2385V23.2496H10.3868Z" fill="black"/>
<path d="M53.1628 0H50.3761L35.2845 25.67H38.1436L42.5951 18.0423H59.3515L63.803 25.67H68.2545L53.1628 0ZM57.9401 15.622H44.0065L50.9914 3.66714L57.9401 15.622Z" fill="black"/>
<path d="M93.8163 26C101.344 26 103.733 22.9929 103.733 13.4584V0H99.8602V15.3286C99.8602 21.4161 98.1593 23.5797 93.3097 23.5797H84.0086C79.1952 23.5797 77.4942 21.4161 77.4942 15.3286V0H73.6218V13.4584C73.6218 22.9929 75.9742 26 83.5381 26H93.8163Z" fill="black"/>
<path d="M109.781 2.42031H122.954V25.67H126.826V2.42031H140V0H109.781V2.42031Z" fill="black"/>
</svg>
