<svg width="346" height="35" viewBox="0 0 346 35" fill="none" xmlns="http://www.w3.org/2000/svg">
<path d="M14.0792 31.2973C7.55469 31.2973 5.24904 28.3856 5.24904 20.1905V14.3658C5.24904 6.17072 7.55469 3.25768 14.0792 3.25768H38.7065V0H13.4415C3.1888 0 0 4.14638 0 17.2775C0 30.3597 3.1888 34.5563 13.4415 34.5563H40.8651V15.6493H35.5662V31.2973H14.0792ZM72.0628 0H68.2848L47.8279 34.5563H51.7044L57.7381 24.2881H80.4521L86.4858 34.5563H92.5196L72.0628 0ZM78.5388 21.029H59.6514L69.1194 4.93604L78.5388 21.029ZM127.169 35C137.373 35 140.61 30.9527 140.61 18.1173V0H135.361V20.6342C135.361 28.8293 133.056 31.7423 126.481 31.7423H113.874C107.35 31.7423 105.044 28.8293 105.044 20.6342V0H99.7952V18.1173C99.7952 30.9527 102.984 35 113.237 35H127.169ZM148.808 3.25768H166.666V34.5563H171.915V3.25768H189.771V0H148.808V3.25768Z" fill="black"/>
<path fill-rule="evenodd" clip-rule="evenodd" d="M346 8.75C346 3.92115 342.103 0 337.305 0H211.689C206.89 0 202.994 3.92115 202.994 8.75V26.25C202.994 31.0788 206.89 35 211.689 35H337.305C342.103 35 346 31.0788 346 26.25V8.75Z" fill="#455951"/>
<path d="M217.341 9.32365L226.823 21.5657V9.32365H228.363V24.8199H226.383L216.901 12.5779V24.8199H215.361V9.32365H217.341Z" fill="white"/>
<path d="M232.634 9.32365H244.888V10.7847H234.878V15.9206H244.228V17.4039H234.878V23.3589H244.888V24.8199H232.634V9.32365Z" fill="white"/>
<path d="M248.124 24.8199V9.32365H257.936C260.51 9.32365 261.5 10.5412 261.5 13.9283C261.5 17.3153 260.51 18.5329 257.936 18.5329H250.368V24.8199H248.124ZM259.234 14.5703V13.2863C259.234 11.4489 258.662 10.7847 257.012 10.7847H250.368V17.0718H257.012C258.662 17.0718 259.234 16.4077 259.234 14.5703Z" fill="white"/>
<path d="M267.039 15.9428H276.191V9.32365H278.457V24.8199H276.191V17.4039H267.039V24.8199H264.795V9.32365H267.039V15.9428Z" fill="white"/>
<path d="M292.48 18.5329L296.374 24.8199H293.778L289.951 18.5329H284.957V24.8199H282.713V9.32365H292.15C294.746 9.32365 295.692 10.5412 295.692 13.9283C295.692 17.1603 294.834 18.4222 292.48 18.5329ZM291.205 10.7847H284.957V17.0718H291.205C292.854 17.0718 293.448 16.4077 293.448 14.5703V13.2863C293.448 11.4489 292.854 10.7847 291.205 10.7847Z" fill="white"/>
<path d="M301.736 9.32365V24.8199H299.492V9.32365H301.736Z" fill="white"/>
<path d="M304.571 10.7847V9.32365H318.541V10.7847H312.689V24.8199H310.423V10.7847H304.571Z" fill="white"/>
<path d="M321.383 9.32365H333.637V10.7847H323.627V15.9206H332.977V17.4039H323.627V23.3589H333.637V24.8199H321.383V9.32365Z" fill="white"/>
</svg>
