<svg width="20" height="20" viewBox="0 0 20 20" fill="none" xmlns="http://www.w3.org/2000/svg">
<path d="M12.8907 0.343051C15.4211 0.628059 17.5857 2.00689 18.8798 4.15216C19.4113 5.03414 19.7386 5.93539 19.9312 7.0215C20.0313 7.60308 20.0198 8.94724 19.912 9.54422C19.4498 12.0746 17.9554 14.1159 15.7254 15.2714C14.5314 15.8876 13.4492 16.1495 12.0858 16.1456C10.4258 16.1456 9.06235 15.7335 7.67582 14.8169L7.2175 14.5126L4.53687 17.1817C2.73053 18.9842 1.81003 19.8777 1.70604 19.9278C1.49806 20.0241 1.06284 20.0241 0.87797 19.9278C0.415792 19.6851 0.203962 19.1844 0.358021 18.7069C0.423496 18.5104 0.566 18.3564 3.11953 15.799L5.81171 13.0991L5.51514 12.6601C4.08625 10.5494 3.77043 7.90734 4.66012 5.46166C4.94898 4.66055 5.50359 3.72849 6.10442 3.03138C7.1058 1.87594 8.52315 0.978543 9.97515 0.589545C10.861 0.350753 12.0627 0.246764 12.8907 0.343051ZM11.5157 2.3073C10.0522 2.46521 8.90829 3.00827 7.8838 4.03276C6.84005 5.07651 6.28544 6.26276 6.14679 7.74173C6.02354 9.06278 6.37788 10.4108 7.15972 11.5855C7.48325 12.0746 8.24584 12.8372 8.73498 13.1607C10.7069 14.4741 13.1372 14.5434 15.1438 13.3418C16.592 12.479 17.6126 11.0232 17.9477 9.34009C18.0709 8.72385 18.0709 7.74558 17.9477 7.12934C17.6011 5.39233 16.5342 3.91337 14.9936 3.03908C13.9653 2.45366 12.6673 2.1802 11.5157 2.3073Z" fill="black"/>
</svg>
