<svg width="25" height="15" viewBox="0 0 25 15" fill="none" xmlns="http://www.w3.org/2000/svg">
<path d="M23.9541 11.5379C23.2128 10.6413 22.3339 9.87286 21.5079 9.05101C20.7561 8.31455 20.7137 7.88761 21.3173 7.04442C21.9738 6.11583 22.6833 5.22995 23.3399 4.31204C23.9541 3.44749 24.5894 2.59363 24.9177 1.55831C25.1295 0.907236 24.9389 0.608382 24.2717 0.501648C24.1553 0.480301 24.0388 0.480302 23.9223 0.480302H19.9618C19.4747 0.469628 19.1994 0.683095 19.03 1.1207C18.797 1.70774 18.5534 2.29477 18.2781 2.87113C17.6533 4.16261 16.9439 5.40072 15.959 6.45738C15.7472 6.6922 15.5037 6.98038 15.1331 6.86297C14.6777 6.6922 14.5401 5.94506 14.5506 5.6889V1.07801C14.4659 0.416261 14.3177 0.12808 13.6717 0H9.56301C9.01236 0 8.73704 0.213467 8.45112 0.555015C8.28169 0.757809 8.22875 0.885889 8.5782 0.949929C9.26651 1.07801 9.64773 1.52629 9.75362 2.20939C9.91247 3.30874 9.90188 4.41877 9.81716 5.5288C9.78539 5.849 9.73244 6.1692 9.60537 6.47873C9.40417 6.95903 9.08649 7.04442 8.66291 6.75624C8.28169 6.4894 8.01696 6.11583 7.75222 5.74227C6.74622 4.34406 5.96261 2.82844 5.31665 1.23811C5.12604 0.779155 4.80836 0.501648 4.33183 0.490975C3.14581 0.469628 1.9598 0.469628 0.763191 0.490975C0.0536981 0.501648 -0.16868 0.853869 0.127824 1.50494C1.41974 4.4081 2.8599 7.22586 4.73423 9.79814C5.69787 11.1216 6.80976 12.285 8.23934 13.1069C9.85952 14.0461 11.6068 14.3236 13.4493 14.2383C14.3071 14.1956 14.5718 13.9714 14.6142 13.1069C14.6459 12.5198 14.7095 11.9221 14.9954 11.3991C15.2813 10.8762 15.7049 10.7801 16.2026 11.1003C16.4461 11.2604 16.6579 11.4739 16.8591 11.6873C17.3463 12.221 17.8122 12.776 18.3205 13.2883C18.9558 13.9394 19.6971 14.3236 20.6396 14.2383H24.2823C24.8648 14.1956 25.1718 13.4698 24.833 12.8187C24.6 12.3491 24.2823 11.9328 23.9541 11.5379Z" fill="#C9C9C9"/>
</svg>
