<svg width="26" height="23" viewBox="0 0 26 23" fill="none" xmlns="http://www.w3.org/2000/svg">
<g clip-path="url(#clip0_1449_402)">
<path d="M12.807 5.15312C6.0125 7.69185 0.391016 9.80746 0.325 9.85174C0.157422 9.95998 0 10.2109 0 10.3831C0 10.5897 0.121875 10.8357 0.284375 10.944C0.365625 10.9981 1.76719 11.5245 3.40234 12.1149C5.0375 12.7004 6.39844 13.2072 6.42891 13.2416C6.45937 13.2711 6.99258 14.8898 7.61211 16.8382C8.23672 18.7865 8.78008 20.4544 8.82578 20.5478C8.86641 20.6364 8.97305 20.7545 9.05937 20.8037C9.23711 20.907 9.59766 20.9267 9.76523 20.8381C9.82617 20.8086 10.6031 20.2034 11.502 19.495C13.452 17.9501 13.391 17.9993 13.6551 17.9402C14.0715 17.8517 14.1527 17.896 16.6105 19.6229C20.9168 22.6536 20.607 22.447 20.8762 22.447C21.1605 22.447 21.3586 22.324 21.4957 22.0731C21.6277 21.8221 26.0152 1.29091 25.9797 1.08919C25.9187 0.789068 25.5938 0.523388 25.2789 0.528307C25.2129 0.528307 19.6016 2.60947 12.807 5.15312ZM20.3531 5.11376C20.3887 5.1482 20.4141 5.20724 20.4141 5.25152C20.4141 5.2958 18.5453 7.01289 16.2652 9.06946C10.7148 14.0633 10.4914 14.2699 10.3441 14.511C10.1512 14.8357 10.075 15.1604 9.89727 16.4446C9.80586 17.1186 9.70937 17.6746 9.66875 17.7336C9.59258 17.8517 9.38437 17.8861 9.25234 17.8025C9.21172 17.7779 8.88164 16.7545 8.51602 15.5294C7.81523 13.158 7.77461 12.9464 7.94219 12.5725C7.98789 12.4692 8.09961 12.3216 8.19102 12.2379C8.39414 12.051 20.1043 5.05472 20.216 5.05472C20.2566 5.05472 20.3176 5.07932 20.3531 5.11376Z" fill="#F9F9F9"/>
</g>
<defs>
<clipPath id="clip0_1449_402">
<rect width="26" height="23" fill="white"/>
</clipPath>
</defs>
</svg>
