<svg width="30" height="30" viewBox="0 0 30 30" fill="none" xmlns="http://www.w3.org/2000/svg">
<g clip-path="url(#clip0_1449_399)">
<path d="M29.7326 21.7092C29.652 21.5742 29.1532 20.4903 26.753 18.2627C24.2403 15.93 24.5779 16.3088 27.6043 12.2754C29.4476 9.81893 30.1845 8.31882 29.9539 7.67753C29.7345 7.06623 28.3788 7.22749 28.3788 7.22749L23.8709 7.25374C23.8709 7.25374 23.5372 7.20874 23.2878 7.35688C23.0459 7.50314 22.8902 7.84066 22.8902 7.84066C22.8902 7.84066 22.1758 9.74205 21.2232 11.3584C19.215 14.7693 18.4105 14.9493 18.0824 14.7374C17.3192 14.2443 17.5105 12.7535 17.5105 11.6959C17.5105 8.39008 18.0111 7.01185 16.5335 6.65558C16.0422 6.53744 15.6822 6.45869 14.4277 6.44556C12.8189 6.42868 11.4556 6.45118 10.685 6.82809C10.1712 7.07936 9.77551 7.64002 10.0174 7.6719C10.3156 7.71128 10.9906 7.85379 11.3488 8.34132C11.8119 8.9695 11.795 10.3834 11.795 10.3834C11.795 10.3834 12.0613 14.2743 11.1744 14.758C10.5649 15.0899 9.73051 14.413 7.93975 11.3172C7.02281 9.73268 6.32901 7.97942 6.32901 7.97942C6.32901 7.97942 6.19587 7.65315 5.95773 7.47876C5.66896 7.26687 5.26393 7.19937 5.26393 7.19937L0.977366 7.22562C0.977366 7.22562 0.334193 7.24437 0.0979258 7.52376C-0.11209 7.77316 0.0810496 8.28695 0.0810496 8.28695C0.0810496 8.28695 3.43755 16.1382 7.23658 20.0966C10.7225 23.725 14.679 23.4868 14.679 23.4868H16.4716C16.4716 23.4868 17.0135 23.4268 17.2892 23.1287C17.5442 22.8549 17.5348 22.3411 17.5348 22.3411C17.5348 22.3411 17.4992 19.9353 18.6168 19.5809C19.7175 19.2321 21.1314 21.9061 22.6296 22.9355C23.7622 23.7137 24.6229 23.5431 24.6229 23.5431L28.63 23.4868C28.63 23.4868 30.7264 23.3574 29.7326 21.7092Z" fill="white"/>
</g>
<defs>
<clipPath id="clip0_1449_399">
<rect width="30" height="30" fill="white"/>
</clipPath>
</defs>
</svg>
