<svg width="136" height="40" viewBox="0 0 136 40" fill="none" xmlns="http://www.w3.org/2000/svg">
<path d="M14.4803 13.4289V18.0645C14.4803 20.8363 12.6165 23.7993 7.31183 23.7993C1.91159 23.7993 0 20.7885 0 17.9689C0 16.7264 0.525687 12.6165 7.31183 12.6165C8.3632 12.6165 9.41458 12.7121 10.3226 12.8554C10.3226 10.9916 9.36679 9.65353 6.69056 9.65353C4.6356 9.65353 2.96296 9.98806 1.72043 10.5137V7.21625C3.15412 6.64277 4.87455 6.26046 6.92951 6.26046C11.8519 6.21267 14.4803 8.79331 14.4803 13.4289ZM10.4182 15.4361C9.70132 15.3405 8.88889 15.2449 7.98089 15.2449C5.20908 15.2449 4.10992 16.0574 4.10992 17.4433C4.10992 19.2115 5.16129 20.1673 7.31183 20.1673C9.60574 20.1673 10.4182 19.1637 10.4182 17.5866V15.4361ZM23.5603 6.21267C24.5161 6.21267 25.4719 6.30825 26.3799 6.4994V0H30.4899V18.0645C30.4899 20.8363 28.5783 23.7993 23.2736 23.7993C20.9797 23.7993 15.675 22.8913 15.675 14.8148C15.675 9.27121 18.4946 6.21267 23.5603 6.21267ZM23.2736 20.2628C25.1374 20.2628 26.3799 19.8327 26.3799 18.399V9.74911C25.6153 9.55795 24.7551 9.46237 23.7037 9.46237C21.362 9.46237 19.785 10.6093 19.785 14.6237C19.785 18.4946 20.693 20.2628 23.2736 20.2628ZM40.4301 6.21267C41.3859 6.21267 42.3417 6.30825 43.2497 6.4994V0H47.3596V18.0645C47.3596 20.8363 45.448 23.7993 40.1434 23.7993C37.8495 23.7993 32.5448 22.8913 32.5448 14.8148C32.5448 9.27121 35.3644 6.21267 40.4301 6.21267ZM40.1912 20.2628C42.055 20.2628 43.2975 19.8327 43.2975 18.399V9.74911C42.5329 9.55795 41.6727 9.46237 40.6213 9.46237C38.2796 9.46237 36.7025 10.6093 36.7025 14.6237C36.6547 18.4946 37.5627 20.2628 40.1912 20.2628ZM63.1302 13.4289V18.0645C63.1302 20.8363 61.2664 23.7993 55.9618 23.7993C50.5616 23.7993 48.65 20.7885 48.65 17.9689C48.65 16.7264 49.1756 12.6165 55.9618 12.6165C57.0132 12.6165 58.0645 12.7121 58.9725 12.8554C58.9725 10.9916 58.0167 9.65353 55.3405 9.65353C53.2856 9.65353 51.6129 9.98806 50.3704 10.5137V7.21625C51.8041 6.64277 53.5245 6.26046 55.5795 6.26046C60.5018 6.21267 63.1302 8.79331 63.1302 13.4289ZM59.0681 15.4361C58.3513 15.3405 57.5388 15.2449 56.6308 15.2449C53.859 15.2449 52.7599 16.0574 52.7599 17.4433C52.7599 19.2115 53.8113 20.1673 55.9618 20.1673C58.2557 20.1673 59.0681 19.1637 59.0681 17.5866V15.4361ZM90.7049 13.2855V23.5126H86.595V12.9988C86.595 11.0394 85.926 9.70132 82.724 9.70132C81.4337 9.70132 80.239 9.89248 79.2354 10.1314C79.2354 10.1314 79.9522 10.9439 79.9522 13.2855V23.5126H75.8901V12.9032C75.8901 11.0394 75.2211 9.74911 72.0669 9.74911C71.0633 9.74911 70.1075 9.84469 69.2473 10.0358V23.5126H65.1374V8.12426C65.2808 8.07647 68.5305 6.21267 72.6404 6.21267C74.5042 6.21267 76.0335 6.64277 77.2282 7.4552C78.6141 6.92951 80.7647 6.21267 83.3453 6.21267C87.9809 6.21267 90.7049 8.8411 90.7049 13.2855ZM106.619 13.4289V18.0645C106.619 20.8363 104.755 23.7993 99.4505 23.7993C94.0502 23.7993 92.1386 20.7885 92.1386 17.9689C92.1386 16.7264 92.6643 12.6165 99.4505 12.6165C100.502 12.6165 101.553 12.7121 102.461 12.8554C102.461 10.9916 101.505 9.65353 98.8292 9.65353C96.7742 9.65353 95.1016 9.98806 93.859 10.5137V7.21625C95.2927 6.64277 97.0132 6.26046 99.0681 6.26046C103.99 6.21267 106.619 8.79331 106.619 13.4289ZM102.557 15.4361C101.84 15.3405 101.028 15.2449 100.12 15.2449C97.3477 15.2449 96.2485 16.0574 96.2485 17.4433C96.2485 19.2115 97.2999 20.1673 99.4505 20.1673C101.744 20.1673 102.557 19.1637 102.557 17.5866V15.4361ZM124.014 13.2855V23.5126H119.952V12.951C119.952 11.4695 119.666 9.84469 115.938 9.84469C114.791 9.84469 113.692 9.98806 112.784 10.1314V23.5126H108.674V8.07646C108.817 8.02868 112.163 6.21267 116.464 6.21267C121.243 6.21267 124.014 8.8411 124.014 13.2855ZM131.47 9.98805V18.3513C131.47 19.8327 132.043 20.2151 133.572 20.2151C134.337 20.2151 134.958 20.0717 135.532 19.8327V23.2258C134.719 23.5603 133.811 23.7515 132.855 23.7515C129.462 23.7515 127.455 21.6488 127.455 18.1123V9.98805H124.588V6.4994H127.455V1.43369H131.565V6.4994H135.579V9.98805H131.47Z" fill="#18233A"/>
<path d="M3.24988 32.2102C3.72778 32.2102 4.20567 32.258 4.63578 32.4014V30.1553H5.44821V36.2246C5.44821 36.6547 5.25705 37.9928 3.1543 37.9928C2.24629 37.9928 0.717023 37.6105 0.717023 35.0298C0.669233 32.6881 2.05513 32.2102 3.24988 32.2102ZM3.10651 37.2282C4.11009 37.2282 4.58799 36.8937 4.58799 36.2246V33.2138C4.15788 33.0227 3.67999 32.9271 3.20209 32.9271C1.95956 32.9271 1.43387 33.5484 1.43387 34.9821C1.48166 36.9892 2.43745 37.2282 3.10651 37.2282Z" fill="#18233A"/>
<path d="M13.5244 35.1729C13.5244 35.364 13.5244 35.5552 13.5244 35.5552H9.46225C9.55783 36.6543 10.1313 37.18 11.2783 37.18C12.0907 37.18 12.712 37.0367 13.1899 36.7499V37.5623C12.6642 37.8013 11.9951 37.9447 11.1827 37.9447C10.0357 37.9447 8.60203 37.4668 8.60203 35.1251C8.60203 34.5516 8.50645 32.1621 11.0393 32.1621C13.62 32.1621 13.5244 34.9339 13.5244 35.1729ZM12.712 34.8383C12.712 34.5516 12.6164 32.9267 11.0871 32.9267C9.98794 32.9267 9.51004 33.4524 9.46225 34.8383H12.712Z" fill="#18233A"/>
<path d="M20.2627 36.4159C20.2627 37.3717 19.4981 37.993 18.2078 37.993C17.4909 37.993 16.9174 37.8019 16.5351 37.5629V36.7027C17.013 36.9894 17.6343 37.1806 18.2078 37.1806C18.7812 37.1806 19.4981 37.0372 19.4981 36.4159C19.4981 34.9345 16.4873 35.7947 16.4873 33.8353C16.4873 33.0707 17.013 32.2104 18.4945 32.2104C19.068 32.2104 19.5459 32.3538 19.9282 32.545V33.3574C19.6415 33.1662 19.1636 32.9751 18.5901 32.9751C18.0166 32.9751 17.2997 33.1185 17.2997 33.8353C17.2519 34.8867 20.2627 34.2176 20.2627 36.4159Z" fill="#18233A"/>
<path d="M24.325 31.3025H23.417V30.3945H24.325V31.3025ZM24.2772 32.2583H23.4648V37.8497H24.2772V32.2583Z" fill="#18233A"/>
<path d="M32.163 33.8825V38.088C32.163 38.996 31.7329 39.9996 29.7257 39.9996C29.0567 39.9996 28.531 39.904 28.1487 39.8084V39.0916C28.531 39.1871 29.0089 39.2827 29.6302 39.2827C31.1594 39.2827 31.3506 38.7092 31.3506 38.1358V37.5623C30.9205 37.7057 30.4904 37.7535 30.0603 37.7535C28.9133 37.7535 27.5752 37.2756 27.5752 35.0295C27.5752 32.5444 29.0567 32.1621 29.9647 32.1621C32.0196 32.1621 32.163 33.5002 32.163 33.8825ZM31.3506 33.8825C31.3506 33.2613 30.8727 32.9267 29.9169 32.9267C29.2478 32.9267 28.3398 33.1657 28.3398 35.0773C28.3398 36.7977 29.2 37.0366 30.0125 37.0366C30.4904 37.0366 30.9205 36.941 31.3028 36.7977V33.8825H31.3506Z" fill="#18233A"/>
<path d="M40.287 34.2173V37.8493H39.4746V34.2173C39.4746 33.6916 39.3312 32.9748 37.9931 32.9748C37.4197 32.9748 36.894 33.0703 36.5116 33.2137V37.8971H35.6992V32.7358C35.986 32.5924 36.894 32.2101 38.0887 32.2101C39.4746 32.1623 40.287 32.927 40.287 34.2173Z" fill="#18233A"/>
<path d="M49.9403 37.8975H48.8889L48.2198 37.0851C47.6941 37.6108 47.0251 37.9931 46.1171 37.9931C44.3967 37.9931 43.7754 36.655 43.7754 35.8426C43.7754 35.1257 43.9665 34.3133 45.3047 33.5964C44.9701 33.2141 44.5878 32.5929 44.5878 32.0672C44.5878 31.1592 45.3525 30.3945 46.2605 30.3945C47.2163 30.3945 47.9809 31.1114 47.9809 32.0194C47.9809 32.8318 47.5508 33.3097 46.595 33.8832L48.2198 35.8426C48.4588 35.4124 48.6022 34.9823 48.6977 34.7434H49.4146C49.319 35.2213 49.1278 35.8903 48.7455 36.5116L49.9403 37.8975ZM47.6942 36.4638L45.7348 34.1221C44.4922 34.7912 44.4922 35.4124 44.4922 35.7948C44.4922 36.1771 44.779 37.1807 46.0693 37.1807C46.8339 37.1807 47.3596 36.8939 47.6942 36.4638ZM45.3047 32.0194C45.3047 32.3061 45.687 32.8318 46.0215 33.1663C47.0729 32.6406 47.1685 32.3539 47.1685 31.9716C47.1685 31.4937 46.7861 31.1114 46.2605 31.1114C45.7348 31.1114 45.3047 31.5415 45.3047 32.0194Z" fill="#18233A"/>
<path d="M55.4364 32.2102C55.9143 32.2102 56.3922 32.258 56.8223 32.4014V30.1553H57.6347V36.2246C57.6347 36.6547 57.4436 37.9928 55.3408 37.9928C54.4328 37.9928 52.9035 37.6105 52.9035 35.0298C52.8558 32.6881 54.2417 32.2102 55.4364 32.2102ZM55.3408 37.2282C56.3444 37.2282 56.8223 36.8937 56.8223 36.2246V33.2138C56.3922 33.0227 55.9143 32.9271 55.4364 32.9271C54.1939 32.9271 53.6682 33.5484 53.6682 34.9821C53.6682 36.9892 54.624 37.2282 55.3408 37.2282Z" fill="#18233A"/>
<path d="M65.7109 35.1729C65.7109 35.364 65.7109 35.5552 65.7109 35.5552H61.6488C61.7443 36.6543 62.3178 37.18 63.4648 37.18C64.2772 37.18 64.8985 37.0367 65.3764 36.7499V37.5623C64.8507 37.8013 64.1816 37.9447 63.3692 37.9447C62.2222 37.9447 60.7886 37.4668 60.7886 35.1251C60.7886 34.5516 60.693 32.1621 63.2258 32.1621C65.8065 32.1621 65.7109 34.9339 65.7109 35.1729ZM64.8985 34.8383C64.8985 34.5516 64.8029 32.9267 63.2736 32.9267C62.1745 32.9267 61.6966 33.4524 61.6488 34.8383H64.8985Z" fill="#18233A"/>
<path d="M73.3096 32.2583L71.1592 37.8497H70.3468L68.1963 32.2583H69.0565L70.7291 36.8461L72.4017 32.2583H73.3096Z" fill="#18233A"/>
<path d="M80.8603 35.1729C80.8603 35.364 80.8603 35.5552 80.8603 35.5552H76.7982C76.8938 36.6543 77.4672 37.18 78.6142 37.18C79.4266 37.18 80.0479 37.0367 80.5258 36.7499V37.5623C80.0001 37.8013 79.331 37.9447 78.5186 37.9447C77.3717 37.9447 75.938 37.4668 75.938 35.1251C75.938 34.5516 75.8424 32.1621 78.3752 32.1621C80.9559 32.1621 80.8603 34.9339 80.8603 35.1729ZM80.0479 34.8383C80.0479 34.5516 79.9523 32.9267 78.423 32.9267C77.3239 32.9267 76.846 33.4524 76.7982 34.8383H80.0479Z" fill="#18233A"/>
<path d="M83.9668 37.8972V30.1553H84.7792V37.8972H83.9668Z" fill="#18233A"/>
<path d="M93.3332 35.0773C93.3332 37.4668 91.8995 37.9925 90.7047 37.9925C89.5099 37.9925 88.0762 37.4668 88.0762 35.0773C88.0762 32.6878 89.5099 32.1621 90.7047 32.1621C91.8995 32.1621 93.3332 32.6878 93.3332 35.0773ZM92.5207 35.0773C92.5207 33.5958 91.995 32.9267 90.7047 32.9267C89.4143 32.9267 88.8886 33.5958 88.8886 35.0773C88.8886 36.5588 89.4143 37.2278 90.7047 37.2278C91.995 37.2278 92.5207 36.5588 92.5207 35.0773Z" fill="#18233A"/>
<path d="M101.266 35.1729C101.266 37.5146 99.8804 37.9925 98.6857 37.9925C98.2078 37.9925 97.7299 37.8969 97.2998 37.8013V39.9997H96.5352V33.9782C96.5352 33.5481 96.7263 32.2099 98.8291 32.2099C99.7371 32.1622 101.266 32.5923 101.266 35.1729ZM100.454 35.1251C100.454 33.1179 99.4981 32.9268 98.7813 32.9268C97.7777 32.9268 97.2998 33.2613 97.2998 33.9304V36.9411C97.7299 37.1323 98.2078 37.2279 98.6857 37.2279C99.9282 37.2279 100.454 36.6066 100.454 35.1251Z" fill="#18233A"/>
<path d="M112.784 34.2173V37.8493H111.971V34.2173C111.971 33.6916 111.828 32.9748 110.585 32.9748C109.964 32.9748 109.391 33.1181 109.056 33.2615C109.199 33.5482 109.247 33.835 109.247 34.2173V37.8493H108.435V34.2173C108.435 33.6916 108.291 32.9748 107.001 32.9748C106.475 32.9748 106.045 33.0703 105.663 33.1659V37.8493H104.851V32.7358C105.137 32.5924 105.998 32.2101 107.097 32.2101C107.718 32.2101 108.196 32.3535 108.578 32.688C108.961 32.4969 109.725 32.2101 110.633 32.2101C112.019 32.1623 112.784 32.927 112.784 34.2173Z" fill="#18233A"/>
<path d="M121.004 35.1729C121.004 35.364 121.004 35.5552 121.004 35.5552H116.942C117.037 36.6543 117.611 37.18 118.758 37.18C119.57 37.18 120.192 37.0367 120.67 36.7499V37.5623C120.144 37.8013 119.475 37.9447 118.662 37.9447C117.515 37.9447 116.082 37.4668 116.082 35.1251C116.082 34.5516 115.986 32.1621 118.519 32.1621C121.052 32.1621 121.004 34.9339 121.004 35.1729ZM120.144 34.8383C120.144 34.5516 120.048 32.9267 118.519 32.9267C117.42 32.9267 116.942 33.4524 116.894 34.8383H120.144Z" fill="#18233A"/>
<path d="M128.794 34.2173V37.8493H127.981V34.2173C127.981 33.6916 127.838 32.9748 126.5 32.9748C125.926 32.9748 125.401 33.0703 125.018 33.2137V37.8971H124.206V32.7358C124.493 32.5924 125.401 32.2101 126.596 32.2101C127.981 32.1623 128.794 32.927 128.794 34.2173Z" fill="#18233A"/>
<path d="M133.429 36.4155C133.429 36.989 133.621 37.1801 134.242 37.1801C134.529 37.1801 134.72 37.1323 134.863 37.0368V37.8014C134.672 37.897 134.385 37.9448 134.146 37.9448C133.668 37.9448 132.617 37.8014 132.617 36.3677V33.0224H131.661V32.3056H132.617V30.7285H133.429V32.3056H134.863V33.0224H133.429V36.4155Z" fill="#18233A"/>
</svg>
